<?xml version="1.0" encoding="UTF-8" standalone="no"?>
<!-- Created with Inkscape (http://www.inkscape.org/) -->

<svg
   xmlns:dc="http://purl.org/dc/elements/1.1/"
   xmlns:cc="http://creativecommons.org/ns#"
   xmlns:rdf="http://www.w3.org/1999/02/22-rdf-syntax-ns#"
   xmlns:svg="http://www.w3.org/2000/svg"
   xmlns="http://www.w3.org/2000/svg"
   xmlns:sodipodi="http://sodipodi.sourceforge.net/DTD/sodipodi-0.dtd"
   xmlns:inkscape="http://www.inkscape.org/namespaces/inkscape"
   width="50"
   height="50"
   id="svg2"
   version="1.1"
   inkscape:version="0.48.5 r10040"
   sodipodi:docname="cpp.svg"
   inkscape:export-filename="/Users/ahagen/code/alexhagen.github.io/images/cpp.png"
   inkscape:export-xdpi="90"
   inkscape:export-ydpi="90">
  <defs
     id="defs4" />
  <sodipodi:namedview
     id="base"
     pagecolor="#ffffff"
     bordercolor="#666666"
     borderopacity="1.0"
     inkscape:pageopacity="0.0"
     inkscape:pageshadow="2"
     inkscape:zoom="11"
     inkscape:cx="8.9090909"
     inkscape:cy="25"
     inkscape:document-units="px"
     inkscape:current-layer="layer1"
     showgrid="false"
     inkscape:window-width="1103"
     inkscape:window-height="756"
     inkscape:window-x="0"
     inkscape:window-y="0"
     inkscape:window-maximized="0" />
  <metadata
     id="metadata7">
    <rdf:RDF>
      <cc:Work
         rdf:about="">
        <dc:format>image/svg+xml</dc:format>
        <dc:type
           rdf:resource="http://purl.org/dc/dcmitype/StillImage" />
        <dc:title />
      </cc:Work>
    </rdf:RDF>
  </metadata>
  <g
     inkscape:label="Layer 1"
     inkscape:groupmode="layer"
     id="layer1"
     transform="translate(0,-1002.3622)">
    <path
       style="fill:#285668;fill-opacity:1"
       d="m 23.999948,1044.0165 c -4.393781,-2.4347 -8.778606,-4.8994 -13.051423,-7.5416 -0.869618,-0.7495 -1.0025306,-1.9609 -0.932483,-3.0378 0.03316,-4.4769 -0.085819,-8.958 0.08785,-13.4316 0.132252,-1.8552 2.172006,-2.419 3.482758,-3.2971 3.500415,-2.0097 6.986121,-4.0477 10.527617,-5.9841 1.60485,-0.4979 2.923123,0.6708 4.239345,1.371 3.56279,2.1133 7.267599,4.0051 10.708352,6.3143 0.744851,0.5553 1.027423,1.4644 0.913785,2.3494 0,4.7411 0,9.4823 0,14.2234 -0.396779,1.1485 -1.313042,1.9126 -2.400307,2.4037 -3.810902,2.2226 -7.610971,4.4681 -11.482844,6.5828 -0.672726,0.1894 -1.411087,0.1956 -2.092648,0.048 z m 2.933091,-6.9706 c 2.697315,-0.5226 5.17259,-2.2353 6.539091,-4.6216 -1.080824,-0.8622 -2.483382,-1.4959 -3.705528,-2.2412 -1.090093,-0.1753 -1.850229,1.8687 -3.24946,1.9555 -2.653258,0.9259 -5.826385,-0.8294 -6.34674,-3.6208 -0.818245,-2.9156 1.636145,-6.0178 4.609733,-6.0975 1.714272,-0.058 3.394087,0.8415 4.380163,2.2301 1.246439,-0.1373 2.488948,-1.2946 3.697883,-1.8997 1.426106,-0.8927 -1.074701,-2.4508 -1.811354,-3.261 -3.733752,-2.9765 -9.595206,-2.6481 -12.973995,0.7257 -3.641045,3.3494 -4.129861,9.5736 -0.820069,13.3215 2.238086,2.9084 6.110516,4.2086 9.680276,3.509 z m 6.807665,-8.5329 c -0.178019,-1.1431 1.602794,-0.1224 1.153682,-1.3204 -0.05599,-0.6304 -1.609134,-0.072 -1.174012,-1.3199 -0.657706,-0.3798 -1.125542,0.1243 -1.047782,0.9189 -0.831474,-0.2508 -1.355781,0.6181 -0.810199,1.038 1.209851,-0.3545 0.723869,1.8218 1.8582,1.0384 0.0067,-0.1184 0.01341,-0.2367 0.02011,-0.355 z m 4.193801,0.3567 c -0.414967,-1.1581 0.861659,-0.7853 1.106272,-1.1893 0.298061,-0.9841 -0.503728,-0.6868 -1.040436,-1.0296 0.226647,-1.3821 -1.523394,-1.0468 -1.181358,0.1408 -0.831474,-0.2508 -1.355781,0.6181 -0.810199,1.038 1.581715,-0.4339 0.22718,1.9492 1.925721,1.0401 z"
       id="path3365"
       inkscape:connector-curvature="0" />
    <path
       style="fill:#142735;fill-opacity:1"
       d="m 24.29663,1044.0675 c -4.023965,-2.2111 -7.989549,-4.5372 -11.950776,-6.8613 -0.847552,-0.4541 -2.6115361,-1.443 -0.870939,-2.025 1.571641,-0.9483 3.17292,-1.8463 4.760713,-2.767 1.385209,2.0485 3.335487,3.7962 5.745124,4.5081 3.896938,1.2702 8.473565,-0.1574 10.934025,-3.4459 0.796172,-0.6789 0.836637,-1.4748 -0.249488,-1.7837 -1.114873,-0.6108 -2.20186,-1.4123 -3.36996,-1.8395 -0.768661,0.9683 -1.709748,1.8579 -2.93763,2.203 -1.73553,0.4448 -3.737755,0.021 -4.929636,-1.3846 -1.507214,-1.0634 0.981001,-1.5579 1.65991,-2.1958 3.082634,-1.8648 6.285312,-3.5133 9.401489,-5.3171 2.278811,-1.4214 4.583873,-2.8079 6.951026,-4.0792 0.652086,1.1288 0.237299,2.5628 0.368793,3.8201 0.0069,4.0248 0.0027,8.0496 0.0039,12.0744 -0.268543,1.0237 -1.116299,1.6752 -2.021492,2.1339 -3.942171,2.3324 -7.921092,4.6058 -11.905813,6.8628 -0.508554,0.1575 -1.064506,0.1345 -1.589209,0.097 z m 9.52601,-15.0107 c -0.0436,-0.9321 0.313974,-1.0999 1.170177,-1.1403 0.451195,-0.9789 -0.406671,-1.2407 -1.037753,-1.3121 0.404084,-1.1568 -1.595662,-1.4852 -1.337128,-0.2041 0.14525,0.5823 -0.682849,0.2364 -1.016272,0.3623 0.112532,0.3761 -0.24956,1.2048 0.230496,1.2305 0.573595,-0.062 0.955711,0.043 0.793475,0.6943 -0.07309,0.654 0.823808,0.4993 1.197005,0.3694 z m 4.136283,0.04 c 0.148353,-0.5948 -0.01259,-1.2758 0.82873,-1.0859 0.650608,0.12 0.277976,-0.7076 0.375077,-1.1001 -0.04324,-0.4449 -1.13131,0.1 -1.068749,-0.46 0.340352,-1.1848 -1.71948,-1.1633 -1.329654,0.026 0.101585,0.5406 -0.86877,0.059 -1.016272,0.3622 0.113586,0.3752 -0.278864,1.2328 0.307328,1.1573 0.698628,-0.1432 0.79793,0.2398 0.737603,0.8604 0.04926,0.4577 0.862917,0.287 1.165937,0.2397 z"
       id="path3363"
       inkscape:connector-curvature="0" />
  </g>
</svg>
