<?xml version="1.0" encoding="UTF-8" standalone="no"?>
<!-- Created with Inkscape (http://www.inkscape.org/) -->

<svg
   xmlns:dc="http://purl.org/dc/elements/1.1/"
   xmlns:cc="http://creativecommons.org/ns#"
   xmlns:rdf="http://www.w3.org/1999/02/22-rdf-syntax-ns#"
   xmlns:svg="http://www.w3.org/2000/svg"
   xmlns="http://www.w3.org/2000/svg"
   xmlns:sodipodi="http://sodipodi.sourceforge.net/DTD/sodipodi-0.dtd"
   xmlns:inkscape="http://www.inkscape.org/namespaces/inkscape"
   width="50"
   height="50"
   id="svg2"
   version="1.1"
   inkscape:version="0.48.5 r10040"
   sodipodi:docname="cpp.svg"
   inkscape:export-filename="/Users/ahagen/code/alexhagen.github.io/images/cpp.png"
   inkscape:export-xdpi="90"
   inkscape:export-ydpi="90">
  <defs
     id="defs4" />
  <sodipodi:namedview
     id="base"
     pagecolor="#ffffff"
     bordercolor="#666666"
     borderopacity="1.0"
     inkscape:pageopacity="0.0"
     inkscape:pageshadow="2"
     inkscape:zoom="11"
     inkscape:cx="25"
     inkscape:cy="25"
     inkscape:document-units="px"
     inkscape:current-layer="layer1"
     showgrid="false"
     inkscape:window-width="1103"
     inkscape:window-height="756"
     inkscape:window-x="0"
     inkscape:window-y="0"
     inkscape:window-maximized="0" />
  <metadata
     id="metadata7">
    <rdf:RDF>
      <cc:Work
         rdf:about="">
        <dc:format>image/svg+xml</dc:format>
        <dc:type
           rdf:resource="http://purl.org/dc/dcmitype/StillImage" />
        <dc:title></dc:title>
      </cc:Work>
    </rdf:RDF>
  </metadata>
  <g
     inkscape:label="Layer 1"
     inkscape:groupmode="layer"
     id="layer1"
     transform="translate(0,-1002.3622)">
    <g
       id="g3374"
       transform="matrix(0.08130178,0,0,0.08130178,22.784117,941.63968)">
      <path
         inkscape:connector-curvature="0"
         id="path3365"
         d="m 14.95454,1259.2198 c -54.042864,-29.9463 -107.975563,-60.2623 -160.53059,-92.7603 -10.69617,-9.2184 -12.33098,-24.1192 -11.46941,-37.3644 0.40788,-55.0657 -1.05556,-110.1826 1.08052,-165.2069 1.62668,-22.81839 26.71536,-29.7531 42.83742,-40.55426 43.054584,-24.71895 85.928267,-49.78529 129.48814,-73.60273 19.739423,-6.12424 35.953988,8.2504 52.143323,16.86244 43.821807,25.99322 89.390407,49.26238 131.711167,77.66477 9.16156,6.83086 12.63716,18.01255 11.23943,28.89771 0,58.31537 0,116.63077 0,174.94617 -4.88033,14.1264 -16.15023,23.5236 -29.52343,29.5647 -46.87354,27.3376 -93.613833,54.9565 -141.2373,80.9675 -8.274433,2.3293 -17.356168,2.4054 -25.73927,0.5853 z m 36.07659,-85.7369 c 33.176581,-6.428 63.6221,-27.4943 80.42987,-56.8454 -13.29398,-10.6052 -30.54524,-18.3996 -45.577451,-27.5665 -13.407985,-2.1559 -22.757548,22.9845 -39.967893,24.0521 -32.634677,11.3892 -71.663675,-10.2007 -78.063966,-44.5345 -10.064299,-35.8616 20.124336,-74.01882 56.699044,-74.99889 21.085285,-0.70679 41.746772,10.35039 53.875362,27.42949 15.33101,-1.688 30.613694,-15.9231 45.483414,-23.36498 17.5409,-10.98011 -13.21866,-30.14538 -22.27938,-40.11035 -45.924614,-36.61092 -118.01964,-32.57143 -159.578244,8.92637 -44.784326,41.19736 -50.796686,117.75406 -10.086733,163.85246 27.528133,35.7729 75.1584529,51.765 119.065977,43.1602 z m 83.73329,-104.954 c -2.18961,-14.0598 19.71413,-1.5056 14.19012,-16.2409 -0.68869,-7.7536 -19.79211,-0.8829 -14.44018,-16.2337 -8.08969,-4.6724 -13.844,1.528 -12.88756,11.3013 -10.22701,-3.0838 -16.67591,7.6026 -9.96533,12.7679 14.88099,-4.3607 8.90348,22.4081 22.85559,12.7715 0.0825,-1.4553 0.16491,-2.9107 0.24736,-4.3661 z m 51.58313,4.3879 c -5.10403,-14.2443 10.59828,-9.6591 13.60699,-14.6288 3.66611,-12.1036 -6.19578,-8.4468 -12.79721,-12.6637 2.78772,-16.9994 -18.73753,-12.8753 -14.53053,1.7313 -10.22701,-3.0838 -16.67591,7.6026 -9.96533,12.7679 19.45486,-5.3369 2.79428,23.9743 23.68608,12.7933 z"
         style="fill:#6598d1" />
      <path
         inkscape:connector-curvature="0"
         id="path3363"
         d="m 18.60369,1259.8467 c -49.494184,-27.1953 -98.270291,-55.806 -146.9928,-84.393 -10.42476,-5.5847 -32.12151,-17.7485 -10.71242,-24.9069 19.33096,-11.6641 39.02645,-22.7084 58.55607,-34.0339 17.037872,25.1962 41.026009,46.6926 70.6641821,55.449 47.9317719,15.6241 104.2236159,-1.9362 134.4869079,-42.3831 9.7928,-8.3506 10.29052,-18.1406 -3.06866,-21.9398 -13.71277,-7.5128 -27.082555,-17.3713 -41.450018,-22.6254 -9.454417,11.9095 -21.029645,22.8512 -36.132412,27.0958 -21.346774,5.4718 -45.9738466,0.2571 -60.633806,-17.0295 -18.538509,-13.0798 12.066167,-19.1623 20.4166512,-27.0078 37.9159408,-22.9368 77.3084198,-43.2142 115.6369348,-65.4004 28.02905,-17.48327 56.38097,-34.53633 85.49661,-50.17316 8.02056,13.88456 2.91874,31.52162 4.5361,46.98682 0.0852,49.50434 0.033,99.00874 0.0475,148.51314 -3.30304,12.5913 -13.73032,20.6042 -24.86406,26.2461 -48.48812,28.6887 -97.428264,56.6513 -146.439755,84.412 -6.255143,1.9378 -13.093267,1.6539 -19.547035,1.1901 z m 117.16853,-184.6285 c -0.53631,-11.4652 3.86183,-13.5296 14.393,-14.0263 5.54964,-12.0398 -5.00199,-15.2597 -12.7642,-16.138 4.97017,-14.2292 -19.62642,-18.2678 -16.44648,-2.5106 1.78655,7.1616 -8.39895,2.9077 -12.5,4.4556 1.38412,4.6263 -3.06955,14.819 2.83507,15.135 7.05513,-0.7575 11.7551,0.5242 9.75962,8.5409 -0.89897,8.0433 10.13272,6.141 14.72299,4.5434 z m 50.87567,0.491 c 1.82472,-7.3156 -0.15481,-15.6919 10.19326,-13.3558 8.00239,1.4759 3.41906,-8.7029 4.61339,-13.5315 -0.53188,-5.4713 -13.91494,1.2272 -13.14545,-5.658 4.18628,-14.5723 -21.14935,-14.3075 -16.35455,0.3252 1.24948,6.6495 -10.68575,0.7273 -12.5,4.4555 1.39709,4.614 -3.42999,15.1626 3.78009,14.234 8.59302,-1.7614 9.81442,2.9495 9.07241,10.5827 0.60585,5.6294 10.61375,3.5308 14.34085,2.9479 z"
         style="fill:#004b8b" />
    </g>
  </g>
</svg>
