<?xml version="1.0" encoding="UTF-8" standalone="no"?>
<!-- Created with Inkscape (http://www.inkscape.org/) -->

<svg
   xmlns:dc="http://purl.org/dc/elements/1.1/"
   xmlns:cc="http://creativecommons.org/ns#"
   xmlns:rdf="http://www.w3.org/1999/02/22-rdf-syntax-ns#"
   xmlns:svg="http://www.w3.org/2000/svg"
   xmlns="http://www.w3.org/2000/svg"
   xmlns:sodipodi="http://sodipodi.sourceforge.net/DTD/sodipodi-0.dtd"
   xmlns:inkscape="http://www.inkscape.org/namespaces/inkscape"
   inkscape:version="0.48.5 r10040"
   version="1.1"
   id="svg3211"
   height="300"
   width="300"
   sodipodi:docname="cv_illustration.svg">
  <sodipodi:namedview
     id="base"
     pagecolor="#ffffff"
     bordercolor="#666666"
     borderopacity="1.0"
     inkscape:pageopacity="0.0"
     inkscape:pageshadow="2"
     inkscape:zoom="1.185"
     inkscape:cx="150"
     inkscape:cy="150"
     inkscape:document-units="px"
     inkscape:current-layer="layer1"
     showgrid="false"
     inkscape:window-width="1320"
     inkscape:window-height="917"
     inkscape:window-x="20"
     inkscape:window-y="21"
     inkscape:window-maximized="0" />
  <defs
     id="defs3213" />
  <metadata
     id="metadata3216">
    <rdf:RDF>
      <cc:Work
         rdf:about="">
        <dc:format>image/svg+xml</dc:format>
        <dc:type
           rdf:resource="http://purl.org/dc/dcmitype/StillImage" />
        <dc:title></dc:title>
      </cc:Work>
    </rdf:RDF>
  </metadata>
  <g
     transform="translate(0,-752.36218)"
     id="layer1"
     inkscape:groupmode="layer"
     inkscape:label="Layer 1">
    <path
       style="fill:#dce6f0;fill-opacity:1;stroke:none"
       d="m 22.614992,886.10147 c 1.794084,2.9227 4.485175,1.12411 4.485175,1.12411 l 6.952048,-15.28793 c 0,0 31.172032,-77.33895 31.172032,-79.812 0,-2.47305 0.67277,-5.17091 0.67277,-5.17091 l -38.572584,98.02261 -1.121303,1.34894 z"
       id="path8587"
       inkscape:connector-curvature="0" />
    <path
       style="fill:#dce6f0;fill-opacity:1;stroke:none"
       d="m 22.390736,961.1922 c 0,3.14751 4.709431,5.84538 20.40758,7.19432 15.69815,1.34892 115.717774,24.73047 115.717774,24.73047 0,0 41.2637,10.79151 43.95481,8.99291 2.69112,-1.7986 9.64315,-42.04182 10.98871,-47.8872 1.34555,-5.84539 29.37796,-142.98713 28.92944,-144.56089 -0.44852,-1.57377 -0.67278,-2.0234 -0.67278,-2.0234 l -38.12407,186.6027 -1.56981,5.84539 z"
       id="path8585"
       inkscape:connector-curvature="0"
       sodipodi:nodetypes="cscssscccc" />
    <path
       inkscape:connector-curvature="0"
       style="fill:#dce6f0;fill-opacity:1;stroke:none"
       d="m 0.37582237,915.97905 0,3.625 c 8.34430093,1.78428 15.75770963,3.18455 16.61451763,2.46875 1.902901,-1.58974 2.213191,-2.5625 2.213191,-2.5625 L 0.37582237,915.97905 z"
       id="path8571" />
    <path
       inkscape:connector-curvature="0"
       style="fill:#dce6f0;fill-opacity:1;stroke:none"
       d="m 235.44164,1014.2603 c -0.44852,4.0468 1.58443,5.6666 7.85527,6.0625 7.35354,0.4642 33.95797,6.5561 56.32727,11.3125 l 0,-3.9062 -64.18254,-13.4688 z"
       id="path8559" />
    <path
       inkscape:connector-curvature="0"
       style="fill:#dce6f0;fill-opacity:1;stroke:none"
       d="m 256.51371,844.9478 c 0,0 0.66937,4.50697 3.58475,5.40625 2.91536,0.89929 28.25381,4.70749 35.87863,6.28125 1.08527,0.224 2.33707,0.4459 3.64709,0.65625 l 0,-4.96875 -43.11047,-7.375 z"
       id="path8545" />
    <path
       inkscape:connector-curvature="0"
       style="fill:#dce6f0;fill-opacity:1;stroke:none"
       d="m 248.44024,889.91655 c 0,0 2.24525,4.05643 3.36654,4.28125 11.98607,1.70584 22.06244,2.96997 32.73029,5.40625 3.59437,0.94826 9.37125,2.30069 15.08711,3.4375 l 0,-3.65625 -51.18394,-9.46875 z"
       id="path8551" />
    <path
       style="fill:#eaf0f6;fill-opacity:1;stroke:#809aac;stroke-width:0.75259005999999984px;stroke-linecap:butt;stroke-linejoin:miter;stroke-opacity:1"
       d="m 22.166469,956.47092 0,4.72128 180.080181,38.8943 1.34555,-5.62057"
       id="path8539"
       inkscape:connector-curvature="0" />
    <path
       style="fill:none;stroke:#8198ab;stroke-width:0.75259005999999984px;stroke-linecap:butt;stroke-linejoin:miter;stroke-opacity:1"
       d="M 22.390736,956.47092 88.098692,773.46538 242.38905,802.46748 203.5922,994.46593 z"
       id="path8537"
       inkscape:connector-curvature="0" />
    <path
       inkscape:connector-curvature="0"
       style="fill:#eaf0f6;fill-opacity:1;stroke:#809aac;stroke-width:0.75259005999999984px;stroke-linecap:butt;stroke-linejoin:miter;stroke-opacity:1"
       d="m 257.85409,834.3853 -1.34038,10.34375 43.11047,7.53125 0,-10.34375 -41.77009,-7.53125 z"
       id="path8543" />
    <path
       inkscape:connector-curvature="0"
       style="fill:none;stroke:#809aac;stroke-width:0.75259005999999984px;stroke-linecap:butt;stroke-linejoin:miter;stroke-opacity:1"
       d="m 262.81039,803.35405 -4.9563,31.03125 41.77009,7.6875 0,-32.09375 -36.81379,-6.625 z"
       id="path8541" />
    <path
       inkscape:connector-curvature="0"
       style="fill:#eaf0f6;fill-opacity:1;stroke:#809aac;stroke-width:0.75259005999999984px;stroke-linecap:butt;stroke-linejoin:miter;stroke-opacity:1"
       d="m 248.90781,885.1978 -0.68577,4.9375 51.40214,9.28125 0,-4.28125 -50.71637,-9.9375 z"
       id="path8549" />
    <path
       inkscape:connector-curvature="0"
       style="fill:none;stroke:#809aac;stroke-width:0.75259005999999984px;stroke-linecap:butt;stroke-linejoin:miter;stroke-opacity:1"
       d="m 254.05114,851.91655 -5.3927,33.28125 50.96574,9.9375 0,-34.8125 -45.57304,-8.40625 z"
       id="path8547" />
    <path
       inkscape:connector-curvature="0"
       style="fill:none;stroke:#809aac;stroke-width:0.75259005999999984px;stroke-linecap:butt;stroke-linejoin:miter;stroke-opacity:1"
       d="m 253.36537,901.85405 -17.01975,106.99995 63.27856,13.3125 0,-110.87495 -46.25881,-9.4375 z"
       id="path8553" />
    <path
       inkscape:connector-curvature="0"
       style="fill:none;stroke:#809aac;stroke-width:0.75259005999999984px;stroke-linecap:butt;stroke-linejoin:miter;stroke-opacity:1"
       d="m 236.09624,1008.854 -1.34038,5.8438 64.86832,12.9375 0,-2.0312 -63.52794,-16.7501 z"
       id="path8555" />
    <path
       inkscape:connector-curvature="0"
       style="fill:none;stroke:#809aac;stroke-width:0.75259005999999984px;stroke-linecap:butt;stroke-linejoin:miter;stroke-opacity:1"
       d="m 237.686,1009.5415 -0.68578,3.8125 62.62396,12.7813 0,-3.5938 -61.93818,-13 z"
       id="path8557" />
    <path
       inkscape:connector-curvature="0"
       style="fill:#eaf0f6;fill-opacity:1;stroke:#809aac;stroke-width:0.75259005999999984px;stroke-linecap:butt;stroke-linejoin:miter;stroke-opacity:1"
       d="m 0.37582237,910.16655 0,5.84375 10.59837963,2.21875 -0.342889,-5.71875 -10.25549063,-2.34375 z"
       id="path8563" />
    <path
       inkscape:connector-curvature="0"
       style="fill:none;stroke:#809aac;stroke-width:0.75259005999999984px;stroke-linecap:butt;stroke-linejoin:miter;stroke-opacity:1"
       d="m 0.37582237,894.1978 0,15.8125 10.25549063,2.1875 5.392704,-14.625 -15.64819463,-3.375 z"
       id="path8561" />
    <path
       style="fill:none;stroke:#809aac;stroke-width:0.75259005999999984px;stroke-linecap:butt;stroke-linejoin:miter;stroke-opacity:1"
       d="m 16.667411,897.8955 7.294468,1.58975 -5.391557,13.98966 -7.611612,-1.27179 z"
       id="path8565"
       inkscape:connector-curvature="0" />
    <path
       style="fill:#b2c8de;fill-opacity:1;stroke:#809aac;stroke-width:0.75259005999999984px;stroke-linecap:butt;stroke-linejoin:miter;stroke-opacity:1"
       d="m 18.570322,913.15697 0.95144,6.35893 -7.928755,-1.27179 0,-6.04099 z"
       id="path8567"
       inkscape:connector-curvature="0" />
    <path
       style="fill:#eaf0f6;fill-opacity:1;stroke:#809aac;stroke-width:0.75259005999999984px;stroke-linecap:butt;stroke-linejoin:miter;stroke-opacity:1"
       d="m 19.204609,913.47491 5.074414,-13.67173 0.634306,6.041 -4.75726,12.71788 z"
       id="path8569"
       inkscape:connector-curvature="0" />
    <path
       style="fill:none;stroke:#8198ab;stroke-width:0.75259005999999984px;stroke-linecap:butt;stroke-linejoin:miter;stroke-opacity:1"
       d="m 26.81622,869.84232 33.935102,-85.77187 3.488657,0.31795 1.585757,1.58974 -32.778627,85.73329 c -2.002211,-1.74714 -3.555898,-2.03295 -6.230889,-1.86911 z"
       id="path8573"
       inkscape:connector-curvature="0"
       sodipodi:nodetypes="cccccc" />
    <path
       style="fill:none;stroke:#8198ab;stroke-width:0.75259005999999984px;stroke-linecap:butt;stroke-linejoin:miter;stroke-opacity:1"
       d="m 60.975579,783.79108 3.581554,-5.12573 c 1.182131,-0.46251 1.8036,-0.13812 2.537197,0.6359 l -1.307077,6.47134 -1.325441,-1.68554 z"
       id="path8575"
       inkscape:connector-curvature="0"
       sodipodi:nodetypes="cccccc" />
    <path
       style="fill:none;stroke:#8198ab;stroke-width:0.75259005999999984px;stroke-linecap:butt;stroke-linejoin:miter;stroke-opacity:1"
       d="m 64.800621,778.47909 2.348132,-2.52428 -0.05446,3.02848 c -0.540313,-0.6177 -0.968487,-0.67337 -2.293709,-0.5042 z"
       id="path8577"
       inkscape:connector-curvature="0"
       sodipodi:nodetypes="cccc" />
    <path
       style="fill:none;stroke:#8198ab;stroke-width:0.75259005999999984px;stroke-linecap:butt;stroke-linejoin:miter;stroke-opacity:1"
       d="m 26.81622,869.91616 -4.757251,10.49225 c 3.347771,-0.3758 4.677192,-0.30196 6.343018,1.90769 l 4.757241,-10.81021 c -1.553688,-1.09197 -3.892284,-1.8467 -6.343008,-1.58973 z"
       id="path8579"
       inkscape:connector-curvature="0"
       sodipodi:nodetypes="ccccc" />
    <path
       style="fill:none;stroke:#8198ab;stroke-width:0.75259005999999984px;stroke-linecap:butt;stroke-linejoin:miter;stroke-opacity:1"
       d="m 22.039727,880.40841 -1.194948,2.09394 c 3.771736,-0.34477 5.188737,0.20976 6.605748,2.67527 l 0.95146,-3.16019 c -1.447983,-1.66045 -4.241507,-2.08438 -6.36226,-1.60902 z"
       id="path8581"
       inkscape:connector-curvature="0"
       sodipodi:nodetypes="ccccc" />
    <path
       style="fill:none;stroke:#8198ab;stroke-width:0.75259005999999984px;stroke-linecap:butt;stroke-linejoin:miter;stroke-opacity:1"
       d="m 20.508394,883.13824 c -0.374859,1.62831 1.717127,3.25662 3.024194,3.42358 1.268603,0.47537 2.649345,-0.17339 3.917939,-1.3842 -1.488452,-2.83293 -4.547817,-3.27284 -6.942133,-2.03938 z"
       id="path8583"
       inkscape:connector-curvature="0"
       sodipodi:nodetypes="cccc" />
    <path
       style="fill:none;stroke:#809aac;stroke-width:0.75259005999999984px;stroke-linecap:butt;stroke-linejoin:miter;stroke-opacity:1"
       d="m 244.96803,1003.4588 c -4.14879,-3.2599 -5.49435,-4.49642 -10.20379,-4.49642 -2.80324,0 -8.07334,-0.22482 -8.74612,2.24822 -0.67277,2.4731 1.1213,5.5082 3.92454,7.0819 2.80324,1.5738 5.38222,1.911 5.38222,1.911"
       id="path8589"
       inkscape:connector-curvature="0"
       sodipodi:nodetypes="csssc" />
    <path
       style="fill:none;stroke:#809aac;stroke-width:0.75259005999999984px;stroke-linecap:butt;stroke-linejoin:miter;stroke-opacity:1"
       d="m 246.31359,1001.8851 c -5.38222,-4.72129 -6.61565,-5.17094 -10.98871,-5.50817 -6.70796,-0.5173 -8.63398,0.89928 -9.30676,2.0234 -0.67277,1.12411 -0.33638,5.50817 -0.33638,5.50817"
       id="path8591"
       inkscape:connector-curvature="0"
       sodipodi:nodetypes="cssc" />
    <path
       sodipodi:nodetypes="csssc"
       inkscape:connector-curvature="0"
       id="path8593"
       d="m 245.86507,993.45423 c -4.1488,-3.25992 -5.49435,-4.49645 -10.2038,-4.49645 -2.80324,0 -8.07333,-0.22482 -8.74611,2.24822 -0.67278,2.47305 1.1213,5.50816 3.92454,7.08191 2.80324,1.57376 5.38222,1.91099 5.38222,1.91099"
       style="fill:none;stroke:#809aac;stroke-width:0.75259005999999984px;stroke-linecap:butt;stroke-linejoin:miter;stroke-opacity:1" />
    <path
       sodipodi:nodetypes="cssc"
       inkscape:connector-curvature="0"
       id="path8595"
       d="m 247.21062,991.88048 c -5.38222,-4.72128 -6.61564,-5.17092 -10.9887,-5.50816 -6.70796,-0.5173 -8.63398,0.89929 -9.30676,2.0234 -0.67278,1.12411 -0.33639,5.50815 -0.33639,5.50815"
       style="fill:none;stroke:#809aac;stroke-width:0.75259005999999984px;stroke-linecap:butt;stroke-linejoin:miter;stroke-opacity:1" />
    <path
       style="fill:none;stroke:#809aac;stroke-width:0.75259005999999984px;stroke-linecap:butt;stroke-linejoin:miter;stroke-opacity:1"
       d="m 248.10766,984.01168 c -4.1488,-3.25992 -5.49435,-4.49645 -10.20379,-4.49645 -2.80325,0 -8.07334,-0.22482 -8.74612,2.24822 -0.67277,2.47305 1.1213,5.50816 3.92454,7.08191 2.80324,1.57376 5.38222,1.91099 5.38222,1.91099"
       id="path8597"
       inkscape:connector-curvature="0"
       sodipodi:nodetypes="csssc" />
    <path
       style="fill:none;stroke:#809aac;stroke-width:0.75259005999999984px;stroke-linecap:butt;stroke-linejoin:miter;stroke-opacity:1"
       d="m 249.45322,982.43792 c -5.38222,-4.72127 -6.61565,-5.17091 -10.98871,-5.50815 -6.70796,-0.51729 -8.63398,0.89929 -9.30676,2.0234 -0.67277,1.12411 -0.33638,5.50815 -0.33638,5.50815"
       id="path8599"
       inkscape:connector-curvature="0"
       sodipodi:nodetypes="cssc" />
    <path
       sodipodi:nodetypes="csssc"
       inkscape:connector-curvature="0"
       id="path8601"
       d="m 249.56535,975.01878 c -4.1488,-3.25993 -5.49436,-4.49646 -10.2038,-4.49646 -2.80324,0 -8.07333,-0.22481 -8.74611,2.24824 -0.67278,2.47304 1.1213,5.50815 3.92454,7.0819 2.80324,1.57376 5.38222,1.91099 5.38222,1.91099"
       style="fill:none;stroke:#809aac;stroke-width:0.75259005999999984px;stroke-linecap:butt;stroke-linejoin:miter;stroke-opacity:1" />
    <path
       sodipodi:nodetypes="cssc"
       inkscape:connector-curvature="0"
       id="path8603"
       d="m 250.9109,973.44502 c -5.38222,-4.72127 -6.61565,-5.17091 -10.9887,-5.50814 -6.70796,-0.5173 -8.63398,0.89927 -9.30676,2.02339 -0.67278,1.12412 -0.33639,5.50815 -0.33639,5.50815"
       style="fill:none;stroke:#809aac;stroke-width:0.75259005999999984px;stroke-linecap:butt;stroke-linejoin:miter;stroke-opacity:1" />
    <path
       style="fill:none;stroke:#809aac;stroke-width:0.75259005999999984px;stroke-linecap:butt;stroke-linejoin:miter;stroke-opacity:1"
       d="m 250.79877,965.57623 c -4.14879,-3.25993 -5.49435,-4.49646 -10.20379,-4.49646 -2.80324,0 -8.07334,-0.22481 -8.74611,2.24824 -0.67278,2.47305 1.12129,5.50814 3.92453,7.08191 2.80324,1.57375 5.38222,1.91099 5.38222,1.91099"
       id="path8605"
       inkscape:connector-curvature="0"
       sodipodi:nodetypes="csssc" />
    <path
       style="fill:none;stroke:#809aac;stroke-width:0.75259005999999984px;stroke-linecap:butt;stroke-linejoin:miter;stroke-opacity:1"
       d="m 252.14433,964.00247 c -5.38222,-4.72126 -6.61565,-5.17091 -10.98871,-5.50815 -6.70796,-0.51729 -8.63398,0.89928 -9.30675,2.02341 -0.67278,1.12411 -0.33639,5.50814 -0.33639,5.50814"
       id="path8607"
       inkscape:connector-curvature="0"
       sodipodi:nodetypes="cssc" />
    <path
       sodipodi:nodetypes="csssc"
       inkscape:connector-curvature="0"
       id="path8609"
       d="m 253.15349,956.80816 c -4.14879,-3.25994 -5.49435,-4.49646 -10.20379,-4.49646 -2.80324,0 -8.07333,-0.22482 -8.74611,2.24823 -0.67278,2.47305 1.12129,5.50815 3.92453,7.08191 2.80324,1.57375 5.38223,1.91099 5.38223,1.91099"
       style="fill:none;stroke:#809aac;stroke-width:0.75259005999999984px;stroke-linecap:butt;stroke-linejoin:miter;stroke-opacity:1" />
    <path
       sodipodi:nodetypes="cssc"
       inkscape:connector-curvature="0"
       id="path8611"
       d="m 254.49905,955.23439 c -5.38222,-4.72126 -6.61565,-5.1709 -10.9887,-5.50814 -6.70796,-0.5173 -8.63398,0.89928 -9.30676,2.0234 -0.67278,1.12411 -0.33639,5.50814 -0.33639,5.50814"
       style="fill:none;stroke:#809aac;stroke-width:0.75259005999999984px;stroke-linecap:butt;stroke-linejoin:miter;stroke-opacity:1" />
    <path
       style="fill:none;stroke:#809aac;stroke-width:0.75259005999999984px;stroke-linecap:butt;stroke-linejoin:miter;stroke-opacity:1"
       d="m 254.27479,947.2532 c -4.1488,-3.25993 -5.49435,-4.49645 -10.2038,-4.49645 -2.80324,0 -8.07333,-0.22482 -8.74611,2.24823 -0.67277,2.47304 1.1213,5.50815 3.92454,7.0819 2.80324,1.57376 5.38222,1.91099 5.38222,1.91099"
       id="path8613"
       inkscape:connector-curvature="0"
       sodipodi:nodetypes="csssc" />
    <path
       style="fill:none;stroke:#809aac;stroke-width:0.75259005999999984px;stroke-linecap:butt;stroke-linejoin:miter;stroke-opacity:1"
       d="m 255.62035,945.67944 c -5.38223,-4.72127 -6.61565,-5.17091 -10.98871,-5.50814 -6.70796,-0.5173 -8.63398,0.89928 -9.30676,2.02339 -0.67277,1.12412 -0.33639,5.50816 -0.33639,5.50816"
       id="path8615"
       inkscape:connector-curvature="0"
       sodipodi:nodetypes="cssc" />
    <path
       sodipodi:nodetypes="csssc"
       inkscape:connector-curvature="0"
       id="path8617"
       d="m 255.62034,938.48513 c -4.14879,-3.25993 -5.49435,-4.49646 -10.20379,-4.49646 -2.80324,0 -8.07333,-0.22482 -8.74611,2.24823 -0.67278,2.47305 1.1213,5.50815 3.92454,7.08191 2.80324,1.57375 5.38222,1.91099 5.38222,1.91099"
       style="fill:none;stroke:#8199ab;stroke-width:0.75259005999999984px;stroke-linecap:butt;stroke-linejoin:miter;stroke-opacity:1" />
    <path
       sodipodi:nodetypes="cssc"
       inkscape:connector-curvature="0"
       id="path8619"
       d="m 256.9659,936.91137 c -5.38222,-4.72127 -6.61565,-5.17092 -10.9887,-5.50815 -6.70796,-0.5173 -8.63398,0.89928 -9.30676,2.0234 -0.67278,1.12411 -0.33639,5.50815 -0.33639,5.50815"
       style="fill:none;stroke:#8199ab;stroke-width:0.75259005999999984px;stroke-linecap:butt;stroke-linejoin:miter;stroke-opacity:1" />
    <path
       style="fill:none;stroke:#8199ab;stroke-width:0.75259005999999984px;stroke-linecap:butt;stroke-linejoin:miter;stroke-opacity:1"
       d="m 256.85377,929.37981 c -4.14879,-3.25992 -5.49435,-4.49645 -10.20379,-4.49645 -2.80324,0 -8.07334,-0.22482 -8.74611,2.24823 -0.67278,2.47304 1.12129,5.50815 3.92453,7.0819 2.80324,1.57376 5.38222,1.911 5.38222,1.911"
       id="path8621"
       inkscape:connector-curvature="0"
       sodipodi:nodetypes="csssc" />
    <path
       style="fill:none;stroke:#8199ab;stroke-width:0.75259005999999984px;stroke-linecap:butt;stroke-linejoin:miter;stroke-opacity:1"
       d="m 258.19933,927.80606 c -5.38222,-4.72128 -6.61565,-5.17092 -10.98871,-5.50815 -6.70796,-0.5173 -8.63398,0.89928 -9.30675,2.02339 -0.67278,1.12412 -0.33639,5.50816 -0.33639,5.50816"
       id="path8623"
       inkscape:connector-curvature="0"
       sodipodi:nodetypes="cssc" />
    <path
       sodipodi:nodetypes="csssc"
       inkscape:connector-curvature="0"
       id="path8625"
       d="m 257.41442,920.72414 c -4.1488,-3.25992 -5.49436,-4.49645 -10.2038,-4.49645 -2.80324,0 -8.07333,-0.22482 -8.74611,2.24823 -0.67277,2.47304 1.1213,5.50815 3.92454,7.0819 2.80324,1.57376 5.38222,1.911 5.38222,1.911"
       style="fill:none;stroke:#8199ab;stroke-width:0.75259005999999984px;stroke-linecap:butt;stroke-linejoin:miter;stroke-opacity:1" />
    <path
       sodipodi:nodetypes="cssc"
       inkscape:connector-curvature="0"
       id="path8627"
       d="m 258.75998,919.15039 c -5.38223,-4.72128 -6.61566,-5.17092 -10.98871,-5.50815 -6.70796,-0.5173 -8.63398,0.89928 -9.30676,2.02339 -0.67277,1.12412 -0.33639,5.50816 -0.33639,5.50816"
       style="fill:none;stroke:#8199ab;stroke-width:0.75259005999999984px;stroke-linecap:butt;stroke-linejoin:miter;stroke-opacity:1" />
    <path
       style="fill:none;stroke:#8199ab;stroke-width:0.75259005999999984px;stroke-linecap:butt;stroke-linejoin:miter;stroke-opacity:1"
       d="m 259.32062,912.29329 c -4.14879,-3.25992 -5.49435,-4.49645 -10.20379,-4.49645 -2.80324,0 -8.07334,-0.22481 -8.74611,2.24824 -0.67278,2.47304 1.12129,5.50814 3.92453,7.0819 2.80324,1.57376 5.38223,1.91099 5.38223,1.91099"
       id="path8629"
       inkscape:connector-curvature="0"
       sodipodi:nodetypes="csssc" />
    <path
       style="fill:none;stroke:#8199ab;stroke-width:0.75259005999999984px;stroke-linecap:butt;stroke-linejoin:miter;stroke-opacity:1"
       d="m 260.66618,910.71954 c -5.38222,-4.72128 -6.61565,-5.17092 -10.9887,-5.50815 -6.70797,-0.51729 -8.63399,0.89928 -9.30676,2.0234 -0.67278,1.12412 -0.33639,5.50814 -0.33639,5.50814"
       id="path8631"
       inkscape:connector-curvature="0"
       sodipodi:nodetypes="cssc" />
    <path
       inkscape:tile-y0="78.604645"
       inkscape:tile-x0="43.72093"
       inkscape:tile-h="11.162793"
       inkscape:tile-w="11.162793"
       inkscape:tile-cy="84.186041"
       inkscape:tile-cx="49.302326"
       transform="matrix(0.22872339,0,0,0.22872339,1.1574152,744.45658)"
       d="m 71.162792,84.186043 c 0,12.073202 -9.787264,21.860467 -21.860466,21.860467 -12.073202,0 -21.860466,-9.787265 -21.860466,-21.860467 0,-12.073202 9.787264,-21.860466 21.860466,-21.860466 12.073202,0 21.860466,9.787264 21.860466,21.860466 z"
       sodipodi:ry="21.860466"
       sodipodi:rx="21.860466"
       sodipodi:cy="84.186043"
       sodipodi:cx="49.302326"
       id="path3221"
       style="fill:#e9f1f7;fill-opacity:1;stroke:none"
       sodipodi:type="arc" />
    <path
       sodipodi:type="arc"
       style="fill:#e9f1f7;fill-opacity:1;stroke:none"
       id="use7783"
       sodipodi:cx="49.302326"
       sodipodi:cy="84.186043"
       sodipodi:rx="21.860466"
       sodipodi:ry="21.860466"
       d="m 71.162792,84.186043 c 0,12.073202 -9.787264,21.860467 -21.860466,21.860467 -12.073202,0 -21.860466,-9.787265 -21.860466,-21.860467 0,-12.073202 9.787264,-21.860466 21.860466,-21.860466 12.073202,0 21.860466,9.787264 21.860466,21.860466 z"
       transform="matrix(0.41764232,0,0,0.41764232,126.08433,924.63168)"
       inkscape:tile-x0="43.72093"
       inkscape:tile-y0="78.604645" />
    <path
       sodipodi:type="arc"
       style="fill:#e9f1f7;fill-opacity:1;stroke:none"
       id="use7785"
       sodipodi:cx="49.302326"
       sodipodi:cy="84.186043"
       sodipodi:rx="21.860466"
       sodipodi:ry="21.860466"
       d="m 71.162792,84.186043 c 0,12.073202 -9.787264,21.860467 -21.860466,21.860467 -12.073202,0 -21.860466,-9.787265 -21.860466,-21.860467 0,-12.073202 9.787264,-21.860466 21.860466,-21.860466 12.073202,0 21.860466,9.787264 21.860466,21.860466 z"
       transform="matrix(0.19071986,0,0,0.19071986,122.18314,971.29635)"
       inkscape:tile-x0="43.72093"
       inkscape:tile-y0="78.604645" />
    <path
       sodipodi:type="arc"
       style="fill:#e9f1f7;fill-opacity:1;stroke:none"
       id="use7787"
       sodipodi:cx="49.302326"
       sodipodi:cy="84.186043"
       sodipodi:rx="21.860466"
       sodipodi:ry="21.860466"
       d="m 71.162792,84.186043 c 0,12.073202 -9.787264,21.860467 -21.860466,21.860467 -12.073202,0 -21.860466,-9.787265 -21.860466,-21.860467 0,-12.073202 9.787264,-21.860466 21.860466,-21.860466 12.073202,0 21.860466,9.787264 21.860466,21.860466 z"
       transform="matrix(0.09582947,0,0,0.09582947,94.070259,877.57797)"
       inkscape:tile-x0="43.72093"
       inkscape:tile-y0="78.604645" />
    <path
       sodipodi:type="arc"
       style="fill:#e9f1f7;fill-opacity:1;stroke:none"
       id="use7789"
       sodipodi:cx="49.302326"
       sodipodi:cy="84.186043"
       sodipodi:rx="21.860466"
       sodipodi:ry="21.860466"
       d="m 71.162792,84.186043 c 0,12.073202 -9.787264,21.860467 -21.860466,21.860467 -12.073202,0 -21.860466,-9.787265 -21.860466,-21.860467 0,-12.073202 9.787264,-21.860466 21.860466,-21.860466 12.073202,0 21.860466,9.787264 21.860466,21.860466 z"
       transform="matrix(0.09497639,0,0,0.09497639,116.57542,875.11533)"
       inkscape:tile-x0="43.72093"
       inkscape:tile-y0="78.604645" />
    <path
       sodipodi:type="arc"
       style="fill:#e9f1f7;fill-opacity:1;stroke:none"
       id="use7793"
       sodipodi:cx="49.302326"
       sodipodi:cy="84.186043"
       sodipodi:rx="21.860466"
       sodipodi:ry="21.860466"
       d="m 71.162792,84.186043 c 0,12.073202 -9.787264,21.860467 -21.860466,21.860467 -12.073202,0 -21.860466,-9.787265 -21.860466,-21.860467 0,-12.073202 9.787264,-21.860466 21.860466,-21.860466 12.073202,0 21.860466,9.787264 21.860466,21.860466 z"
       transform="matrix(0.3053052,0,0,0.3053052,7.3629855,999.01859)"
       inkscape:tile-x0="43.72093"
       inkscape:tile-y0="78.604645" />
    <path
       sodipodi:type="arc"
       style="fill:#e9f1f7;fill-opacity:1;stroke:none"
       id="use7795"
       sodipodi:cx="49.302326"
       sodipodi:cy="84.186043"
       sodipodi:rx="21.860466"
       sodipodi:ry="21.860466"
       d="m 71.162792,84.186043 c 0,12.073202 -9.787264,21.860467 -21.860466,21.860467 -12.073202,0 -21.860466,-9.787265 -21.860466,-21.860467 0,-12.073202 9.787264,-21.860466 21.860466,-21.860466 12.073202,0 21.860466,9.787264 21.860466,21.860466 z"
       transform="matrix(0.31071416,0,0,0.31071416,28.550019,1014.633)"
       inkscape:tile-x0="43.72093"
       inkscape:tile-y0="78.604645" />
    <path
       sodipodi:type="arc"
       style="fill:#e9f1f7;fill-opacity:1;stroke:none"
       id="use7799"
       sodipodi:cx="49.302326"
       sodipodi:cy="84.186043"
       sodipodi:rx="21.860466"
       sodipodi:ry="21.860466"
       d="m 71.162792,84.186043 c 0,12.073202 -9.787264,21.860467 -21.860466,21.860467 -12.073202,0 -21.860466,-9.787265 -21.860466,-21.860467 0,-12.073202 9.787264,-21.860466 21.860466,-21.860466 12.073202,0 21.860466,9.787264 21.860466,21.860466 z"
       transform="matrix(0.24851407,0,0,0.24851407,86.293939,835.07599)"
       inkscape:tile-x0="43.72093"
       inkscape:tile-y0="78.604645" />
    <path
       sodipodi:type="arc"
       style="fill:#e9f1f7;fill-opacity:1;stroke:none"
       id="use7801"
       sodipodi:cx="49.302326"
       sodipodi:cy="84.186043"
       sodipodi:rx="21.860466"
       sodipodi:ry="21.860466"
       d="m 71.162792,84.186043 c 0,12.073202 -9.787264,21.860467 -21.860466,21.860467 -12.073202,0 -21.860466,-9.787265 -21.860466,-21.860467 0,-12.073202 9.787264,-21.860466 21.860466,-21.860466 12.073202,0 21.860466,9.787264 21.860466,21.860466 z"
       transform="matrix(0.35907827,0,0,0.35907827,138.41171,822.54788)"
       inkscape:tile-x0="43.72093"
       inkscape:tile-y0="78.604645" />
    <path
       sodipodi:type="arc"
       style="fill:#e9f1f7;fill-opacity:1;stroke:none"
       id="use7803"
       sodipodi:cx="49.302326"
       sodipodi:cy="84.186043"
       sodipodi:rx="21.860466"
       sodipodi:ry="21.860466"
       d="m 71.162792,84.186043 c 0,12.073202 -9.787264,21.860467 -21.860466,21.860467 -12.073202,0 -21.860466,-9.787265 -21.860466,-21.860467 0,-12.073202 9.787264,-21.860466 21.860466,-21.860466 12.073202,0 21.860466,9.787264 21.860466,21.860466 z"
       transform="matrix(0.22845167,0,0,0.22845167,23.540196,810.64895)"
       inkscape:tile-x0="43.72093"
       inkscape:tile-y0="78.604645" />
    <path
       sodipodi:type="arc"
       style="fill:#e9f1f7;fill-opacity:1;stroke:none"
       id="use7805"
       sodipodi:cx="49.302326"
       sodipodi:cy="84.186043"
       sodipodi:rx="21.860466"
       sodipodi:ry="21.860466"
       d="m 71.162792,84.186043 c 0,12.073202 -9.787264,21.860467 -21.860466,21.860467 -12.073202,0 -21.860466,-9.787265 -21.860466,-21.860467 0,-12.073202 9.787264,-21.860466 21.860466,-21.860466 12.073202,0 21.860466,9.787264 21.860466,21.860466 z"
       transform="matrix(0.29002316,0,0,0.29002316,32.905352,988.39132)"
       inkscape:tile-x0="43.72093"
       inkscape:tile-y0="78.604645" />
    <path
       sodipodi:type="arc"
       style="fill:#e9f1f7;fill-opacity:1;stroke:none"
       id="use7807"
       sodipodi:cx="49.302326"
       sodipodi:cy="84.186043"
       sodipodi:rx="21.860466"
       sodipodi:ry="21.860466"
       d="m 71.162792,84.186043 c 0,12.073202 -9.787264,21.860467 -21.860466,21.860467 -12.073202,0 -21.860466,-9.787265 -21.860466,-21.860467 0,-12.073202 9.787264,-21.860466 21.860466,-21.860466 12.073202,0 21.860466,9.787264 21.860466,21.860466 z"
       transform="matrix(0.2341896,0,0,0.2341896,66.983569,827.21301)"
       inkscape:tile-x0="43.72093"
       inkscape:tile-y0="78.604645" />
    <path
       sodipodi:type="arc"
       style="fill:#e9f1f7;fill-opacity:1;stroke:none"
       id="use7809"
       sodipodi:cx="49.302326"
       sodipodi:cy="84.186043"
       sodipodi:rx="21.860466"
       sodipodi:ry="21.860466"
       d="m 71.162792,84.186043 c 0,12.073202 -9.787264,21.860467 -21.860466,21.860467 -12.073202,0 -21.860466,-9.787265 -21.860466,-21.860467 0,-12.073202 9.787264,-21.860466 21.860466,-21.860466 12.073202,0 21.860466,9.787264 21.860466,21.860466 z"
       transform="matrix(0.19696841,0,0,0.19696841,26.731673,899.97198)"
       inkscape:tile-x0="43.72093"
       inkscape:tile-y0="78.604645" />
    <path
       sodipodi:type="arc"
       style="fill:#e9f1f7;fill-opacity:1;stroke:none"
       id="use7811"
       sodipodi:cx="49.302326"
       sodipodi:cy="84.186043"
       sodipodi:rx="21.860466"
       sodipodi:ry="21.860466"
       d="m 71.162792,84.186043 c 0,12.073202 -9.787264,21.860467 -21.860466,21.860467 -12.073202,0 -21.860466,-9.787265 -21.860466,-21.860467 0,-12.073202 9.787264,-21.860466 21.860466,-21.860466 12.073202,0 21.860466,9.787264 21.860466,21.860466 z"
       transform="matrix(0.09359581,0,0,0.09359581,231.92952,757.89888)"
       inkscape:tile-x0="43.72093"
       inkscape:tile-y0="78.604645" />
    <path
       sodipodi:type="arc"
       style="fill:#e9f1f7;fill-opacity:1;stroke:none"
       id="use7813"
       sodipodi:cx="49.302326"
       sodipodi:cy="84.186043"
       sodipodi:rx="21.860466"
       sodipodi:ry="21.860466"
       d="m 71.162792,84.186043 c 0,12.073202 -9.787264,21.860467 -21.860466,21.860467 -12.073202,0 -21.860466,-9.787265 -21.860466,-21.860467 0,-12.073202 9.787264,-21.860466 21.860466,-21.860466 12.073202,0 21.860466,9.787264 21.860466,21.860466 z"
       transform="matrix(0.13898453,0,0,0.13898453,244.70105,888.9254)"
       inkscape:tile-x0="43.72093"
       inkscape:tile-y0="78.604645" />
    <path
       sodipodi:type="arc"
       style="fill:#e9f1f7;fill-opacity:1;stroke:none"
       id="use7815"
       sodipodi:cx="49.302326"
       sodipodi:cy="84.186043"
       sodipodi:rx="21.860466"
       sodipodi:ry="21.860466"
       d="m 71.162792,84.186043 c 0,12.073202 -9.787264,21.860467 -21.860466,21.860467 -12.073202,0 -21.860466,-9.787265 -21.860466,-21.860467 0,-12.073202 9.787264,-21.860466 21.860466,-21.860466 12.073202,0 21.860466,9.787264 21.860466,21.860466 z"
       transform="matrix(0.16450427,0,0,0.16450427,105.37577,996.08326)"
       inkscape:tile-x0="43.72093"
       inkscape:tile-y0="78.604645" />
    <path
       sodipodi:type="arc"
       style="fill:#e9f1f7;fill-opacity:1;stroke:none"
       id="use7817"
       sodipodi:cx="49.302326"
       sodipodi:cy="84.186043"
       sodipodi:rx="21.860466"
       sodipodi:ry="21.860466"
       d="m 71.162792,84.186043 c 0,12.073202 -9.787264,21.860467 -21.860466,21.860467 -12.073202,0 -21.860466,-9.787265 -21.860466,-21.860467 0,-12.073202 9.787264,-21.860466 21.860466,-21.860466 12.073202,0 21.860466,9.787264 21.860466,21.860466 z"
       transform="matrix(0.34763142,0,0,0.34763142,163.14679,822.99188)"
       inkscape:tile-x0="43.72093"
       inkscape:tile-y0="78.604645" />
    <path
       sodipodi:type="arc"
       style="fill:#e9f1f7;fill-opacity:1;stroke:none"
       id="use7819"
       sodipodi:cx="49.302326"
       sodipodi:cy="84.186043"
       sodipodi:rx="21.860466"
       sodipodi:ry="21.860466"
       d="m 71.162792,84.186043 c 0,12.073202 -9.787264,21.860467 -21.860466,21.860467 -12.073202,0 -21.860466,-9.787265 -21.860466,-21.860467 0,-12.073202 9.787264,-21.860466 21.860466,-21.860466 12.073202,0 21.860466,9.787264 21.860466,21.860466 z"
       transform="matrix(0.27319458,0,0,0.27319458,36.447668,973.29957)"
       inkscape:tile-x0="43.72093"
       inkscape:tile-y0="78.604645" />
    <path
       sodipodi:type="arc"
       style="fill:#e9f1f7;fill-opacity:1;stroke:none"
       id="use7821"
       sodipodi:cx="49.302326"
       sodipodi:cy="84.186043"
       sodipodi:rx="21.860466"
       sodipodi:ry="21.860466"
       d="m 71.162792,84.186043 c 0,12.073202 -9.787264,21.860467 -21.860466,21.860467 -12.073202,0 -21.860466,-9.787265 -21.860466,-21.860467 0,-12.073202 9.787264,-21.860466 21.860466,-21.860466 12.073202,0 21.860466,9.787264 21.860466,21.860466 z"
       transform="matrix(0.09755345,0,0,0.09755345,208.77087,802.81202)"
       inkscape:tile-x0="43.72093"
       inkscape:tile-y0="78.604645" />
    <path
       sodipodi:type="arc"
       style="fill:#e9f1f7;fill-opacity:1;stroke:none"
       id="use7823"
       sodipodi:cx="49.302326"
       sodipodi:cy="84.186043"
       sodipodi:rx="21.860466"
       sodipodi:ry="21.860466"
       d="m 71.162792,84.186043 c 0,12.073202 -9.787264,21.860467 -21.860466,21.860467 -12.073202,0 -21.860466,-9.787265 -21.860466,-21.860467 0,-12.073202 9.787264,-21.860466 21.860466,-21.860466 12.073202,0 21.860466,9.787264 21.860466,21.860466 z"
       transform="matrix(0.13046594,0,0,0.13046594,224.16857,897.82263)"
       inkscape:tile-x0="43.72093"
       inkscape:tile-y0="78.604645" />
    <path
       sodipodi:type="arc"
       style="fill:#e9f1f7;fill-opacity:1;stroke:none"
       id="use7829"
       sodipodi:cx="49.302326"
       sodipodi:cy="84.186043"
       sodipodi:rx="21.860466"
       sodipodi:ry="21.860466"
       d="m 71.162792,84.186043 c 0,12.073202 -9.787264,21.860467 -21.860466,21.860467 -12.073202,0 -21.860466,-9.787265 -21.860466,-21.860467 0,-12.073202 9.787264,-21.860466 21.860466,-21.860466 12.073202,0 21.860466,9.787264 21.860466,21.860466 z"
       transform="matrix(0.11944148,0,0,0.11944148,114.86122,899.486)"
       inkscape:tile-x0="43.72093"
       inkscape:tile-y0="78.604645" />
    <path
       sodipodi:type="arc"
       style="fill:#e9f1f7;fill-opacity:1;stroke:none"
       id="use7831"
       sodipodi:cx="49.302326"
       sodipodi:cy="84.186043"
       sodipodi:rx="21.860466"
       sodipodi:ry="21.860466"
       d="m 71.162792,84.186043 c 0,12.073202 -9.787264,21.860467 -21.860466,21.860467 -12.073202,0 -21.860466,-9.787265 -21.860466,-21.860467 0,-12.073202 9.787264,-21.860466 21.860466,-21.860466 12.073202,0 21.860466,9.787264 21.860466,21.860466 z"
       transform="matrix(0.32052708,0,0,0.32052708,168.8521,778.23638)"
       inkscape:tile-x0="43.72093"
       inkscape:tile-y0="78.604645" />
    <path
       sodipodi:type="arc"
       style="fill:#e9f1f7;fill-opacity:1;stroke:none"
       id="use7833"
       sodipodi:cx="49.302326"
       sodipodi:cy="84.186043"
       sodipodi:rx="21.860466"
       sodipodi:ry="21.860466"
       d="m 71.162792,84.186043 c 0,12.073202 -9.787264,21.860467 -21.860466,21.860467 -12.073202,0 -21.860466,-9.787265 -21.860466,-21.860467 0,-12.073202 9.787264,-21.860466 21.860466,-21.860466 12.073202,0 21.860466,9.787264 21.860466,21.860466 z"
       transform="matrix(0.05441157,0,0,0.05441157,102.78848,891.96777)"
       inkscape:tile-x0="43.72093"
       inkscape:tile-y0="78.604645" />
    <path
       sodipodi:type="arc"
       style="fill:#e9f1f7;fill-opacity:1;stroke:none"
       id="use7835"
       sodipodi:cx="49.302326"
       sodipodi:cy="84.186043"
       sodipodi:rx="21.860466"
       sodipodi:ry="21.860466"
       d="m 71.162792,84.186043 c 0,12.073202 -9.787264,21.860467 -21.860466,21.860467 -12.073202,0 -21.860466,-9.787265 -21.860466,-21.860467 0,-12.073202 9.787264,-21.860466 21.860466,-21.860466 12.073202,0 21.860466,9.787264 21.860466,21.860466 z"
       transform="matrix(0.18932084,0,0,0.18932084,76.428174,764.66423)"
       inkscape:tile-x0="43.72093"
       inkscape:tile-y0="78.604645" />
    <path
       sodipodi:type="arc"
       style="fill:#e9f1f7;fill-opacity:1;stroke:none"
       id="use7837"
       sodipodi:cx="49.302326"
       sodipodi:cy="84.186043"
       sodipodi:rx="21.860466"
       sodipodi:ry="21.860466"
       d="m 71.162792,84.186043 c 0,12.073202 -9.787264,21.860467 -21.860466,21.860467 -12.073202,0 -21.860466,-9.787265 -21.860466,-21.860467 0,-12.073202 9.787264,-21.860466 21.860466,-21.860466 12.073202,0 21.860466,9.787264 21.860466,21.860466 z"
       transform="matrix(0.0486214,0,0,0.0486214,148.65846,875.2529)"
       inkscape:tile-x0="43.72093"
       inkscape:tile-y0="78.604645" />
    <path
       sodipodi:type="arc"
       style="fill:#e9f1f7;fill-opacity:1;stroke:none"
       id="use7839"
       sodipodi:cx="49.302326"
       sodipodi:cy="84.186043"
       sodipodi:rx="21.860466"
       sodipodi:ry="21.860466"
       d="m 71.162792,84.186043 c 0,12.073202 -9.787264,21.860467 -21.860466,21.860467 -12.073202,0 -21.860466,-9.787265 -21.860466,-21.860467 0,-12.073202 9.787264,-21.860466 21.860466,-21.860466 12.073202,0 21.860466,9.787264 21.860466,21.860466 z"
       transform="matrix(0.14580006,0,0,0.14580006,220.94084,975.57699)"
       inkscape:tile-x0="43.72093"
       inkscape:tile-y0="78.604645" />
    <path
       sodipodi:type="arc"
       style="fill:#e9f1f7;fill-opacity:1;stroke:none"
       id="use7841"
       sodipodi:cx="49.302326"
       sodipodi:cy="84.186043"
       sodipodi:rx="21.860466"
       sodipodi:ry="21.860466"
       d="m 71.162792,84.186043 c 0,12.073202 -9.787264,21.860467 -21.860466,21.860467 -12.073202,0 -21.860466,-9.787265 -21.860466,-21.860467 0,-12.073202 9.787264,-21.860466 21.860466,-21.860466 12.073202,0 21.860466,9.787264 21.860466,21.860466 z"
       transform="matrix(0.04226967,0,0,0.04226967,194.64663,856.91694)"
       inkscape:tile-x0="43.72093"
       inkscape:tile-y0="78.604645" />
    <path
       sodipodi:type="arc"
       style="fill:#e9f1f7;fill-opacity:1;stroke:none"
       id="use7843"
       sodipodi:cx="49.302326"
       sodipodi:cy="84.186043"
       sodipodi:rx="21.860466"
       sodipodi:ry="21.860466"
       d="m 71.162792,84.186043 c 0,12.073202 -9.787264,21.860467 -21.860466,21.860467 -12.073202,0 -21.860466,-9.787265 -21.860466,-21.860467 0,-12.073202 9.787264,-21.860466 21.860466,-21.860466 12.073202,0 21.860466,9.787264 21.860466,21.860466 z"
       transform="matrix(0.02752855,0,0,0.02752855,63.796029,847.8512)"
       inkscape:tile-x0="43.72093"
       inkscape:tile-y0="78.604645" />
    <path
       sodipodi:type="arc"
       style="fill:#e9f1f7;fill-opacity:1;stroke:none"
       id="use7845"
       sodipodi:cx="49.302326"
       sodipodi:cy="84.186043"
       sodipodi:rx="21.860466"
       sodipodi:ry="21.860466"
       d="m 71.162792,84.186043 c 0,12.073202 -9.787264,21.860467 -21.860466,21.860467 -12.073202,0 -21.860466,-9.787265 -21.860466,-21.860467 0,-12.073202 9.787264,-21.860466 21.860466,-21.860466 12.073202,0 21.860466,9.787264 21.860466,21.860466 z"
       transform="matrix(0.2403709,0,0,0.2403709,21.031268,945.52209)"
       inkscape:tile-x0="43.72093"
       inkscape:tile-y0="78.604645" />
    <path
       sodipodi:type="arc"
       style="fill:#e9f1f7;fill-opacity:1;stroke:none"
       id="use7847"
       sodipodi:cx="49.302326"
       sodipodi:cy="84.186043"
       sodipodi:rx="21.860466"
       sodipodi:ry="21.860466"
       d="m 71.162792,84.186043 c 0,12.073202 -9.787264,21.860467 -21.860466,21.860467 -12.073202,0 -21.860466,-9.787265 -21.860466,-21.860467 0,-12.073202 9.787264,-21.860466 21.860466,-21.860466 12.073202,0 21.860466,9.787264 21.860466,21.860466 z"
       transform="matrix(0.13729604,0,0,0.13729604,178.0797,984.51629)"
       inkscape:tile-x0="43.72093"
       inkscape:tile-y0="78.604645" />
    <path
       sodipodi:type="arc"
       style="fill:#e9f1f7;fill-opacity:1;stroke:none"
       id="use7849"
       sodipodi:cx="49.302326"
       sodipodi:cy="84.186043"
       sodipodi:rx="21.860466"
       sodipodi:ry="21.860466"
       d="m 71.162792,84.186043 c 0,12.073202 -9.787264,21.860467 -21.860466,21.860467 -12.073202,0 -21.860466,-9.787265 -21.860466,-21.860467 0,-12.073202 9.787264,-21.860466 21.860466,-21.860466 12.073202,0 21.860466,9.787264 21.860466,21.860466 z"
       transform="matrix(0.10307439,0,0,0.10307439,207.60874,885.72643)"
       inkscape:tile-x0="43.72093"
       inkscape:tile-y0="78.604645" />
    <path
       sodipodi:type="arc"
       style="fill:#e9f1f7;fill-opacity:1;stroke:none"
       id="use7851"
       sodipodi:cx="49.302326"
       sodipodi:cy="84.186043"
       sodipodi:rx="21.860466"
       sodipodi:ry="21.860466"
       d="m 71.162792,84.186043 c 0,12.073202 -9.787264,21.860467 -21.860466,21.860467 -12.073202,0 -21.860466,-9.787265 -21.860466,-21.860467 0,-12.073202 9.787264,-21.860466 21.860466,-21.860466 12.073202,0 21.860466,9.787264 21.860466,21.860466 z"
       transform="matrix(0.0935271,0,0,0.0935271,254.26957,858.16567)"
       inkscape:tile-x0="43.72093"
       inkscape:tile-y0="78.604645" />
    <path
       sodipodi:type="arc"
       style="fill:#e9f1f7;fill-opacity:1;stroke:none"
       id="use7853"
       sodipodi:cx="49.302326"
       sodipodi:cy="84.186043"
       sodipodi:rx="21.860466"
       sodipodi:ry="21.860466"
       d="m 71.162792,84.186043 c 0,12.073202 -9.787264,21.860467 -21.860466,21.860467 -12.073202,0 -21.860466,-9.787265 -21.860466,-21.860467 0,-12.073202 9.787264,-21.860466 21.860466,-21.860466 12.073202,0 21.860466,9.787264 21.860466,21.860466 z"
       transform="matrix(0.33058213,0,0,0.33058213,144.40998,874.23968)"
       inkscape:tile-x0="43.72093"
       inkscape:tile-y0="78.604645" />
    <path
       sodipodi:type="arc"
       style="fill:#e9f1f7;fill-opacity:1;stroke:none"
       id="use7855"
       sodipodi:cx="49.302326"
       sodipodi:cy="84.186043"
       sodipodi:rx="21.860466"
       sodipodi:ry="21.860466"
       d="m 71.162792,84.186043 c 0,12.073202 -9.787264,21.860467 -21.860466,21.860467 -12.073202,0 -21.860466,-9.787265 -21.860466,-21.860467 0,-12.073202 9.787264,-21.860466 21.860466,-21.860466 12.073202,0 21.860466,9.787264 21.860466,21.860466 z"
       transform="matrix(0.33298084,0,0,0.33298084,166.23065,881.16428)"
       inkscape:tile-x0="43.72093"
       inkscape:tile-y0="78.604645" />
    <path
       sodipodi:type="arc"
       style="fill:#e9f1f7;fill-opacity:1;stroke:none"
       id="use7857"
       sodipodi:cx="49.302326"
       sodipodi:cy="84.186043"
       sodipodi:rx="21.860466"
       sodipodi:ry="21.860466"
       d="m 71.162792,84.186043 c 0,12.073202 -9.787264,21.860467 -21.860466,21.860467 -12.073202,0 -21.860466,-9.787265 -21.860466,-21.860467 0,-12.073202 9.787264,-21.860466 21.860466,-21.860466 12.073202,0 21.860466,9.787264 21.860466,21.860466 z"
       transform="matrix(0.33704994,0,0,0.33704994,187.69972,892.91078)"
       inkscape:tile-x0="43.72093"
       inkscape:tile-y0="78.604645" />
    <path
       sodipodi:type="arc"
       style="fill:#e9f1f7;fill-opacity:1;stroke:none"
       id="use7861"
       sodipodi:cx="49.302326"
       sodipodi:cy="84.186043"
       sodipodi:rx="21.860466"
       sodipodi:ry="21.860466"
       d="m 71.162792,84.186043 c 0,12.073202 -9.787264,21.860467 -21.860466,21.860467 -12.073202,0 -21.860466,-9.787265 -21.860466,-21.860467 0,-12.073202 9.787264,-21.860466 21.860466,-21.860466 12.073202,0 21.860466,9.787264 21.860466,21.860466 z"
       transform="matrix(0.12130112,0,0,0.12130112,203.77212,971.8311)"
       inkscape:tile-x0="43.72093"
       inkscape:tile-y0="78.604645" />
    <path
       sodipodi:type="arc"
       style="fill:#e9f1f7;fill-opacity:1;stroke:none"
       id="use7863"
       sodipodi:cx="49.302326"
       sodipodi:cy="84.186043"
       sodipodi:rx="21.860466"
       sodipodi:ry="21.860466"
       d="m 71.162792,84.186043 c 0,12.073202 -9.787264,21.860467 -21.860466,21.860467 -12.073202,0 -21.860466,-9.787265 -21.860466,-21.860467 0,-12.073202 9.787264,-21.860466 21.860466,-21.860466 12.073202,0 21.860466,9.787264 21.860466,21.860466 z"
       transform="matrix(0.01869343,0,0,0.01869343,266.58604,855.83468)"
       inkscape:tile-x0="43.72093"
       inkscape:tile-y0="78.604645" />
    <path
       sodipodi:type="arc"
       style="fill:#e9f1f7;fill-opacity:1;stroke:none"
       id="use7865"
       sodipodi:cx="49.302326"
       sodipodi:cy="84.186043"
       sodipodi:rx="21.860466"
       sodipodi:ry="21.860466"
       d="m 71.162792,84.186043 c 0,12.073202 -9.787264,21.860467 -21.860466,21.860467 -12.073202,0 -21.860466,-9.787265 -21.860466,-21.860467 0,-12.073202 9.787264,-21.860466 21.860466,-21.860466 12.073202,0 21.860466,9.787264 21.860466,21.860466 z"
       transform="matrix(0.10121862,0,0,0.10121862,118.69703,947.34603)"
       inkscape:tile-x0="43.72093"
       inkscape:tile-y0="78.604645" />
    <path
       sodipodi:type="arc"
       style="fill:#e9f1f7;fill-opacity:1;stroke:none"
       id="use7867"
       sodipodi:cx="49.302326"
       sodipodi:cy="84.186043"
       sodipodi:rx="21.860466"
       sodipodi:ry="21.860466"
       d="m 71.162792,84.186043 c 0,12.073202 -9.787264,21.860467 -21.860466,21.860467 -12.073202,0 -21.860466,-9.787265 -21.860466,-21.860467 0,-12.073202 9.787264,-21.860466 21.860466,-21.860466 12.073202,0 21.860466,9.787264 21.860466,21.860466 z"
       transform="matrix(0.13043253,0,0,0.13043253,134.87326,1031.6797)"
       inkscape:tile-x0="43.72093"
       inkscape:tile-y0="78.604645" />
    <path
       sodipodi:type="arc"
       style="fill:#e9f1f7;fill-opacity:1;stroke:none"
       id="use7869"
       sodipodi:cx="49.302326"
       sodipodi:cy="84.186043"
       sodipodi:rx="21.860466"
       sodipodi:ry="21.860466"
       d="m 71.162792,84.186043 c 0,12.073202 -9.787264,21.860467 -21.860466,21.860467 -12.073202,0 -21.860466,-9.787265 -21.860466,-21.860467 0,-12.073202 9.787264,-21.860466 21.860466,-21.860466 12.073202,0 21.860466,9.787264 21.860466,21.860466 z"
       transform="matrix(0.32808255,0,0,0.32808255,189.5873,900.51238)"
       inkscape:tile-x0="43.72093"
       inkscape:tile-y0="78.604645" />
    <path
       sodipodi:type="arc"
       style="fill:#e9f1f7;fill-opacity:1;stroke:none"
       id="use7871"
       sodipodi:cx="49.302326"
       sodipodi:cy="84.186043"
       sodipodi:rx="21.860466"
       sodipodi:ry="21.860466"
       d="m 71.162792,84.186043 c 0,12.073202 -9.787264,21.860467 -21.860466,21.860467 -12.073202,0 -21.860466,-9.787265 -21.860466,-21.860467 0,-12.073202 9.787264,-21.860466 21.860466,-21.860466 12.073202,0 21.860466,9.787264 21.860466,21.860466 z"
       transform="matrix(0.19866324,0,0,0.19866324,74.461656,892.09866)"
       inkscape:tile-x0="43.72093"
       inkscape:tile-y0="78.604645" />
    <path
       sodipodi:type="arc"
       style="fill:#e9f1f7;fill-opacity:1;stroke:none"
       id="use7873"
       sodipodi:cx="49.302326"
       sodipodi:cy="84.186043"
       sodipodi:rx="21.860466"
       sodipodi:ry="21.860466"
       d="m 71.162792,84.186043 c 0,12.073202 -9.787264,21.860467 -21.860466,21.860467 -12.073202,0 -21.860466,-9.787265 -21.860466,-21.860467 0,-12.073202 9.787264,-21.860466 21.860466,-21.860466 12.073202,0 21.860466,9.787264 21.860466,21.860466 z"
       transform="matrix(0.14686166,0,0,0.14686166,33.698562,901.2858)"
       inkscape:tile-x0="43.72093"
       inkscape:tile-y0="78.604645" />
    <path
       sodipodi:type="arc"
       style="fill:#e9f1f7;fill-opacity:1;stroke:none"
       id="use7875"
       sodipodi:cx="49.302326"
       sodipodi:cy="84.186043"
       sodipodi:rx="21.860466"
       sodipodi:ry="21.860466"
       d="m 71.162792,84.186043 c 0,12.073202 -9.787264,21.860467 -21.860466,21.860467 -12.073202,0 -21.860466,-9.787265 -21.860466,-21.860467 0,-12.073202 9.787264,-21.860466 21.860466,-21.860466 12.073202,0 21.860466,9.787264 21.860466,21.860466 z"
       transform="matrix(0.0146302,0,0,0.0146302,200.46457,877.59346)"
       inkscape:tile-x0="43.72093"
       inkscape:tile-y0="78.604645" />
    <path
       sodipodi:type="arc"
       style="fill:#e9f1f7;fill-opacity:1;stroke:none"
       id="use7877"
       sodipodi:cx="49.302326"
       sodipodi:cy="84.186043"
       sodipodi:rx="21.860466"
       sodipodi:ry="21.860466"
       d="m 71.162792,84.186043 c 0,12.073202 -9.787264,21.860467 -21.860466,21.860467 -12.073202,0 -21.860466,-9.787265 -21.860466,-21.860467 0,-12.073202 9.787264,-21.860466 21.860466,-21.860466 12.073202,0 21.860466,9.787264 21.860466,21.860466 z"
       transform="matrix(0.40951457,0,0,0.40951457,165.98491,985.28781)"
       inkscape:tile-x0="43.72093"
       inkscape:tile-y0="78.604645" />
    <path
       sodipodi:type="arc"
       style="fill:#e9f1f7;fill-opacity:1;stroke:none"
       id="use7879"
       sodipodi:cx="49.302326"
       sodipodi:cy="84.186043"
       sodipodi:rx="21.860466"
       sodipodi:ry="21.860466"
       d="m 71.162792,84.186043 c 0,12.073202 -9.787264,21.860467 -21.860466,21.860467 -12.073202,0 -21.860466,-9.787265 -21.860466,-21.860467 0,-12.073202 9.787264,-21.860466 21.860466,-21.860466 12.073202,0 21.860466,9.787264 21.860466,21.860466 z"
       transform="matrix(0.15136697,0,0,0.15136697,39.766067,789.05384)"
       inkscape:tile-x0="43.72093"
       inkscape:tile-y0="78.604645" />
    <path
       sodipodi:type="arc"
       style="fill:#e9f1f7;fill-opacity:1;stroke:none"
       id="use7881"
       sodipodi:cx="49.302326"
       sodipodi:cy="84.186043"
       sodipodi:rx="21.860466"
       sodipodi:ry="21.860466"
       d="m 71.162792,84.186043 c 0,12.073202 -9.787264,21.860467 -21.860466,21.860467 -12.073202,0 -21.860466,-9.787265 -21.860466,-21.860467 0,-12.073202 9.787264,-21.860466 21.860466,-21.860466 12.073202,0 21.860466,9.787264 21.860466,21.860466 z"
       transform="matrix(0.28936247,0,0,0.28936247,197.73765,822.22498)"
       inkscape:tile-x0="43.72093"
       inkscape:tile-y0="78.604645" />
    <path
       sodipodi:type="arc"
       style="fill:#e9f1f7;fill-opacity:1;stroke:none"
       id="use7883"
       sodipodi:cx="49.302326"
       sodipodi:cy="84.186043"
       sodipodi:rx="21.860466"
       sodipodi:ry="21.860466"
       d="m 71.162792,84.186043 c 0,12.073202 -9.787264,21.860467 -21.860466,21.860467 -12.073202,0 -21.860466,-9.787265 -21.860466,-21.860467 0,-12.073202 9.787264,-21.860466 21.860466,-21.860466 12.073202,0 21.860466,9.787264 21.860466,21.860466 z"
       transform="matrix(0.09584041,0,0,0.09584041,209.13145,965.30877)"
       inkscape:tile-x0="43.72093"
       inkscape:tile-y0="78.604645" />
    <path
       sodipodi:type="arc"
       style="fill:#e9f1f7;fill-opacity:1;stroke:none"
       id="use7885"
       sodipodi:cx="49.302326"
       sodipodi:cy="84.186043"
       sodipodi:rx="21.860466"
       sodipodi:ry="21.860466"
       d="m 71.162792,84.186043 c 0,12.073202 -9.787264,21.860467 -21.860466,21.860467 -12.073202,0 -21.860466,-9.787265 -21.860466,-21.860467 0,-12.073202 9.787264,-21.860466 21.860466,-21.860466 12.073202,0 21.860466,9.787264 21.860466,21.860466 z"
       transform="matrix(0.00312529,0,0,0.00312529,180.5607,877.86988)"
       inkscape:tile-x0="43.72093"
       inkscape:tile-y0="78.604645" />
    <path
       sodipodi:type="arc"
       style="fill:#e9f1f7;fill-opacity:1;stroke:none"
       id="use7887"
       sodipodi:cx="49.302326"
       sodipodi:cy="84.186043"
       sodipodi:rx="21.860466"
       sodipodi:ry="21.860466"
       d="m 71.162792,84.186043 c 0,12.073202 -9.787264,21.860467 -21.860466,21.860467 -12.073202,0 -21.860466,-9.787265 -21.860466,-21.860467 0,-12.073202 9.787264,-21.860466 21.860466,-21.860466 12.073202,0 21.860466,9.787264 21.860466,21.860466 z"
       transform="matrix(0.01453811,0,0,0.01453811,200.48396,910.81599)"
       inkscape:tile-x0="43.72093"
       inkscape:tile-y0="78.604645" />
  </g>
</svg>
