<?xml version="1.0" encoding="UTF-8" standalone="no"?>
<!-- Created with Inkscape (http://www.inkscape.org/) -->

<svg
   xmlns:dc="http://purl.org/dc/elements/1.1/"
   xmlns:cc="http://creativecommons.org/ns#"
   xmlns:rdf="http://www.w3.org/1999/02/22-rdf-syntax-ns#"
   xmlns:svg="http://www.w3.org/2000/svg"
   xmlns="http://www.w3.org/2000/svg"
   xmlns:sodipodi="http://sodipodi.sourceforge.net/DTD/sodipodi-0.dtd"
   xmlns:inkscape="http://www.inkscape.org/namespaces/inkscape"
   width="300"
   height="300"
   id="svg3925"
   version="1.1"
   inkscape:version="0.48.5 r10040"
   sodipodi:docname="design_illustration.svg">
  <defs
     id="defs3927" />
  <sodipodi:namedview
     id="base"
     pagecolor="#ffffff"
     bordercolor="#666666"
     borderopacity="1.0"
     inkscape:pageopacity="0.0"
     inkscape:pageshadow="2"
     inkscape:zoom="1.8733333"
     inkscape:cx="150"
     inkscape:cy="150"
     inkscape:document-units="px"
     inkscape:current-layer="layer1"
     showgrid="false"
     inkscape:window-width="1043"
     inkscape:window-height="843"
     inkscape:window-x="771"
     inkscape:window-y="33"
     inkscape:window-maximized="0" />
  <metadata
     id="metadata3930">
    <rdf:RDF>
      <cc:Work
         rdf:about="">
        <dc:format>image/svg+xml</dc:format>
        <dc:type
           rdf:resource="http://purl.org/dc/dcmitype/StillImage" />
        <dc:title />
      </cc:Work>
    </rdf:RDF>
  </metadata>
  <g
     inkscape:label="Layer 1"
     inkscape:groupmode="layer"
     id="layer1"
     transform="translate(0,-752.36218)">
    <g
       transform="scale(1.000151,0.99984902)"
       style="font-size:10.49347878px;fill:#d3bdbd;stroke:none"
       id="text3970" />
    <g
       style="font-size:10.49189472px;fill:#d3bdbd;stroke:none"
       id="text3982" />
    <path
       id="path8699"
       transform="translate(0,752.36218)"
       style="fill:none;stroke:#c3a5a5;stroke-width:1;stroke-linecap:round;stroke-linejoin:round;stroke-miterlimit:10;stroke-opacity:1;stroke-dasharray:none"
       d="m 142.80074,3.32135 -36.72163,10.31703 m 37.50853,-8.30592 0.34973,0.69946 0.43716,0.61203 0.43716,0.61203 0.5246,0.52459 0.52459,0.5246 0.5246,0.52459 0.61203,0.43716 0.61202,0.43716 0.61203,0.34973 0.69945,0.34973 0.69946,0.2623 0.69946,0.26229 0.69946,0.17487 0.69946,0.17486 0.7869,0.0875 0.69946,0 0.78689,0 0.69946,-0.0875 0.7869,-0.0875 0.69945,-0.17486 0.69946,-0.17487 0.69946,-0.26229 0.69946,-0.34973 0.69946,-0.34973 0.61203,-0.34973 0.61202,-0.43716 0.5246,-0.52459 0.61203,-0.5246 0.43716,-0.52459 0.5246,-0.61203 0.43716,-0.61203 0.34973,-0.61203 0.34972,-0.69946 0.2623,-0.61203 0.2623,-0.78689 0.17486,-0.69946 0.17487,-0.69946 0.0874,-0.78689 0.0874,-0.69946 0,-0.6924632 m -22.12032,-0.0035284 0,0.3462316 0,0.69946 0.0874,0.7869 0.17487,0.69945 0.17486,0.78689 0.17487,0.69946 0.2623,0.69946 0.34973,0.61203 m 66.71096,10.66676 2.44811,15.73785 -4.98365,0 2.53554,-15.73785 m 0.37133,-12.2187 3.51438,7.53593 -0.80944,0 -1.18341,-2.47953 -3.24798,0 -1.17829,2.47953 -0.84017,0 3.56048,-7.53593 0.18443,0 m -0.0922,1.59838 -1.29612,2.73055 2.57687,0 -1.28075,-2.73055 m -55.5117,-5.4203475 c 0.19057,0.12225154 0.35688,0.27003585 0.49893,0.4433575 0.32796,0.3996 0.49194,0.847 0.49195,1.34223 -10e-6,0.42691 -0.11275,0.83504 -0.33822,1.22439 -0.22548,0.38593 -0.53296,0.68478 -0.92242,0.89653 -0.38947,0.21175 -0.82505,0.31762 -1.30676,0.31762 -0.6491,0 -1.1906,-0.18613 -1.62447,-0.55841 -0.43389,-0.37568 -0.71744,-0.92555 -0.85068,-1.6496 l 0.73793,0 c 0.12983,0.48839 0.31602,0.84188 0.55859,1.06046 0.31088,0.27664 0.70717,0.41496 1.18888,0.41496 0.54662,0 0.98562,-0.16393 1.31701,-0.49181 0.33138,-0.32787 0.49708,-0.71209 0.49708,-1.15267 0,-0.29372 -0.0837,-0.56865 -0.2511,-0.8248 -0.16399,-0.25615 -0.38606,-0.44912 -0.66619,-0.5789 -0.27673,-0.12978 -0.70719,-0.21004 -1.29138,-0.24078 l 0,-0.1571841 m 57.19342,47.4708941 0,-31.47568" />
    <path
       id="path5854"
       style="fill:none;stroke:#809aac;stroke-width:1.13043761;stroke-linecap:round;stroke-linejoin:round;stroke-miterlimit:10;stroke-opacity:1;stroke-dasharray:none"
       d="m 272.20075,1011.511 c 0,-6.8198 0,-13.63952 0,-20.45928 m 0,-8.04373 c 0,-7.7232 0,-15.44641 0,-23.16961 m -0.34973,-7.78148 -0.61203,-2.27325 m 0,-15.73784 c 0,5.24595 0,10.49189 0,15.73784 m 28.76082,-15.73784 c -9.58692,0 -19.17384,0 -28.76076,0 m 3.7596,7.86892 c 4.34977,8.49 2.91913,-7.93123 -3e-5,0 m -6.29505,10.92906 -0.61203,-3.06011 m 0,0 c 1.04919,0 2.09838,0 3.14757,0 m -2.36068,54.82012 c 0,-4.86706 0,-9.73413 0,-14.60119 m 0,-8.04378 c 0,-1.45721 0,-2.91441 0,-4.37162 m 0,-13.7269 c 0,-1.07833 0,-2.15667 0,-3.235 m -0.78689,-26.57947 c 0,5.24595 0,10.49189 0,15.73784 m 0,-15.73784 c 1.04919,0 2.09838,0 3.14757,0 m 4.80878,5.77055 c 1.53667,0.80166 1.58829,3.41489 0,4.19669 m 23.94266,6.49604 c -2.35606,-0.59156 -4.71213,-1.18313 -7.06819,-1.77469 m -3.93446,6.90716 c 3.66767,0.91873 7.33533,1.83745 11.003,2.75618 m -7.06854,-21.20442 c 0,3.84703 0,7.69405 0,11.54108 m -7.86893,0 c 0,-3.84703 0,-7.69405 0,-11.54108 m -40.48122,21.68324 c 13.49374,-3.38072 26.98748,-6.76144 40.48122,-10.14216 m 3.93447,6.90716 c -14.80523,3.70131 -29.61046,7.40262 -44.41569,11.10393 M 291.436,948.3847 c 0,-3.73045 0,-7.4609 0,-11.19135 m -4.89621,0 c 0,3.73045 0,7.4609 0,11.19135 m 0,-11.19135 c 1.63205,0 3.2641,0 4.89615,0 m -0.0874,11.10391 -2.36067,0.2623 m 2.4481,-0.17487 -0.0874,-0.0875 m -4.72135,0 1.14912,0.31678 1.21163,-0.0545 m -2.44811,-0.17486 0.0874,-0.0874 m 4.72135,1.48635 -1.11337,0.81328 -1.24734,0.41071 m -2.36068,-1.22405 1.07219,0.83352 1.28856,0.39047 m -2.36068,-1.22406 0,-0.85178 0,-0.63457 m 4.72135,0 0,0.85178 0,0.63457 m 2.53554,40.3938 c 1.34096,-0.14905 2.43594,1.06215 2.88534,2.18573 m 0.0874,0.26235 -0.0874,-0.2631 m -15.65042,0.26236 c 5.24594,0 10.49188,0 15.73782,0 m -15.73785,-0.26236 0,0.2631 m 2.88527,-2.44811 -1.77809,0.63673 -1.10724,1.54898 m 7.86893,-2.18574 c -1.66122,0 -3.32244,0 -4.98366,0 m -4.37162,1.66122 0.80324,0.28345 0.68311,0.24107 m -1.48635,-0.52452 c 0.79276,-1.41664 2.10879,-3.30165 4.02189,-3.14779 m 0,0 0.85179,0 0.10997,0 m 4.37163,1.39892 c -1.45721,-0.46631 -2.91442,-0.93261 -4.37163,-1.39892 m 4.37163,1.48636 0,-0.0874 m 5.24595,-1.39892 -0.85179,0 -0.10997,0 m 4.98364,3.1476 c -0.77623,-1.43649 -2.11652,-3.28667 -4.02179,-3.14782 m 4.02189,3.14762 -0.80323,0.28346 -0.68311,0.24107 m -7.78149,-2.1858 c 1.63207,0 3.26414,0 4.89621,0 m -4.89621,-0.0874 c 1.42806,-0.46631 2.85612,-0.93261 4.28418,-1.39892 m -50.53596,-8.65582 c 12.29883,3.96361 24.59767,7.92721 36.8965,11.89082 m -34.27353,-16.08757 -1.33476,2.08902 -1.28825,2.10767 m 42.14244,8.65581 c -13.17316,-4.28419 -26.34631,-8.56837 -39.51947,-12.85256 m 34.27353,16.08753 0,-0.0877 m 18.6231,0 0,0.0877 m 1.74934,-0.56387 c -0.58312,0.18792 -1.16625,0.37585 -1.74937,0.56377 m -5.24594,-3.23493 c 2.33293,-0.75705 4.66587,-1.51409 6.9988,-2.27114 m -0.003,-34.45412 c -2.88553,-0.72739 -5.77107,-1.45479 -8.6566,-2.18218 m -2.36067,4.37169 c 3.66706,0.91857 7.33411,1.83715 11.00117,2.75572 m -11.00117,-2.75572 c 0,-1.04918 0,-2.09836 0,-3.14754 m -44.41569,14.25149 c 0,-1.63205 0,-3.2641 0,-4.89615 m 0,0 c 14.01834,-3.52645 28.03667,-7.05289 42.05501,-10.57934 m 2.36068,4.37163 c -14.80523,3.70131 -29.61046,7.40261 -44.41569,11.10392 m 53.77096,52.72172 c 0.0131,4.1628 -3.65334,7.9692 -7.86898,7.8696 m -2.9727,0 c -4.17666,0.1038 -8.04706,-3.6496 -7.86892,-7.8696 m 10.84162,6.3826 c 3.38713,0.022 6.43499,-2.978 6.38254,-6.3832 m -15.73784,0 c -0.15028,3.4247 2.99859,6.4635 6.38257,6.3832 m -6.38257,-6.3826 c 5.24597,0 10.49194,0 15.73791,0 m 0,0 c 0,-8.4518 0,-16.9036 0,-25.35537 m -15.73784,0 c 0,8.45177 0,16.90357 0,25.35537 m 17.22418,-24.5685 c 0,8.1895 0,16.379 0,24.5685 m -18.71054,0 c 0,-8.1895 0,-16.379 0,-24.5685 m 11.80338,-56.21904 0.85178,0 0.63457,0 m 7.07589,55.68403 c -0.55169,0.17834 -1.10339,0.35667 -1.65508,0.53501 m -56.39393,-12.15308 c 12.56113,4.05103 25.12226,8.10205 37.68339,12.15308 m -35.06041,-34.53579 c -11.33032,1.25104 -13.41081,18.54441 -2.62298,22.38271 m 43.1042,-44.06596 0.85178,0 0.63458,0 m -41.96758,23.16961 c -9.8621,1.34837 -11.29575,16.5183 -1.83612,19.6723 m 47.73812,45.81453 c -0.9909,0 -1.9818,0 -2.9727,0 m 0,-1.4863 c 0.9909,0 1.9818,0 2.9727,0 m -44.32826,-49.74904 c -3.98855,-0.1092 -5.32883,-6.27767 -1.57377,-7.86893 m 44.41569,21.68325 c -14.28064,-4.60477 -28.56128,-9.20955 -42.84192,-13.81432 m 42.84192,13.81432 c 3.66787,-1.18512 7.33573,-2.37024 11.0036,-3.55536 m -6.98172,3.81766 0.2623,0 m -8.65581,0 0.26229,0 m -39.51947,-12.85257 c -5.35375,-0.71285 -5.98554,-9.08371 -0.78688,-10.57933 m 19.1477,4.89622 -0.0989,1.30816 -0.95037,0.87765 m 0,0 c -2.03846,0.94414 -3.41728,-2.49165 -1.31149,-3.235 m 0,0 0.69946,-0.17486 0.69946,0.17486 m -1.31149,2.7104 c 1.08075,0.81598 2.60359,-0.45156 2.27325,-1.66121 m 0,0 -0.87413,-1.04916 m -2.01095,2.01094 0.612,0.69937 m 1.39892,-2.7104 c -1.1946,-0.54952 -2.57612,0.81078 -2.01088,2.01094 m -0.0875,-1.66121 -0.17486,0.2623 m 1.83608,2.7104 0.2623,-0.0874 0.0875,0 m -0.0875,-3.32243 -0.0874,0 -0.5246,-0.0874 m 10.92906,69.59625 -0.0989,1.3082 -0.95036,0.8776 m 0,0 c -2.04029,1.0629 -3.5098,-2.5744 -1.31149,-3.235 m 0,0 0.69421,-0.1561 0.70468,0.1561 m -1.31149,2.7104 c 1.11772,0.8492 2.50561,-0.4801 2.27322,-1.6612 m 0,0 -0.96169,-1.0514 m -1.92352,2.0109 0.6121,0.7028 m 1.31148,-2.7103 c -1.1201,-0.4943 -2.69589,0.8423 -1.92351,2.0109 m -0.0875,-1.6612 -0.17487,0.2622 m 1.83609,2.7105 0.26229,-0.088 0.0874,0 m -21.94554,-30.7762 -0.0316,1.3129 -0.9302,0.873 m 0,0 c -2.04144,1.0581 -3.51251,-2.5708 -1.31149,-3.2351 m 0,0 0.69427,-0.156 0.70472,0.156 m -1.31149,2.7104 c 1.02814,0.9073 2.65194,-0.4876 2.18582,-1.6618 m 0,0 -0.29038,-0.5946 -0.58401,-0.3701 m -1.92352,1.9235 0.61207,0.7028 m 1.31149,-2.623 c -1.0637,-0.5669 -2.69848,0.7955 -1.92352,1.9235 m -0.0874,-1.6612 -0.17486,0.2623 m 1.74865,2.7104 0.34973,-0.088 0.0874,0 m -0.17487,-3.235 -0.0874,-0.088 -0.52459,-0.088 m 26.57949,-76.24221 0.19234,0.78269 -0.0174,0.79108 m -9.1804,-6.64486 c 0,2.33153 0,4.66306 0,6.99459 m -6.55743,30.68877 c 3.03099,-0.40802 6.06198,-0.81604 9.09297,-1.22406 m 0,13.63947 c 0,-4.54649 0,-9.09298 0,-13.63947 m -9.09297,12.41541 c -2.16509,-0.0995 -3.86548,-2.18288 -3.847,-4.28416 m 0,0 c 0,-0.84518 0,-1.69035 0,-2.53553 m 8.39351,1.22404 c -4.2818,7.36311 -4.76463,-7.39469 0,0 z m -8.39351,-1.22404 c -0.10613,-2.187 1.75326,-4.07631 3.847,-4.37163 m 0,11.19136 c 3.03099,0.40802 6.06198,0.81603 9.09297,1.22405 m 0,27.2789 c -12.47369,-1.6321 -24.9474,-3.2641 -37.42109,-4.89623 m 37.42109,11.62853 c 0,-2.2441 0,-4.4882 0,-6.7323 m 10.2296,6.7323 c -3.40987,0 -6.81973,0 -10.2296,0 m 10.2296,40.8461 c 0,-13.6154 0,-27.2307 0,-40.8461 m -30.60126,29.203 c 3.88795,3.4722 7.37553,7.391 10.38366,11.6478 M 230.846,1003.9019 c 0.23916,13.9811 6.81789,27.6274 17.3116,36.809 M 230.75861,939.02701 c 11.7451,-1.54464 23.49019,-3.08928 35.23529,-4.63392 m 2.53554,-6.9946 c -0.84518,0 -1.69036,0 -2.53554,0 m 2.53554,9.18041 c 0,-3.06014 0,-6.12027 0,-9.18041 m -37.4211,14.07605 c 12.4737,-1.63207 24.9474,-3.26414 37.4211,-4.89621 m -55.78191,42.40474 c 0,-5.50824 0,-11.01649 0,-16.52473 m -2.44811,16.52473 c 0,-5.50824 0,-11.01649 0,-16.52473 m 62.95137,76.59076 c -3.58687,6.6755 -4.63362,-6.8415 0,0 z m -43.97849,-36.8964 c -10.73174,-1.9265 -19.27195,-12.23732 -18.97285,-23.16963 m 20.80893,20.89632 c -10.21755,-1.0694 -18.47551,-10.69395 -18.36088,-20.89632 m 37.68339,31.56313 c -3.76997,6.5463 -4.50934,-6.961 0,0 z m -21.15866,-8.3935 1.0697,0.6056 0.50408,1.1442 m -20.54662,-41.44293 c -0.38872,-11.50008 9.11793,-22.10584 20.45919,-23.4319 m -18.01108,23.4319 c -0.1842,-10.27192 8.19212,-19.74669 18.36078,-20.98379 m 37.77085,63.38732 0.2623,-0.088 0.17486,-0.088 m 3.84707,-70.99512 0,0.34974 m 2.79783,0 c 0.9497,-2.47561 -3.37374,-3.23481 -2.79783,-0.34976 m -4.63393,71.08264 0.34973,0.088 m 31.11324,-77.4652 c -10.48765,-2e-5 -20.97529,0 -31.46294,-10e-6 m 0.78689,36.37191 -0.78686,0.0874 m 0,13.6395 0.78686,0.0874 m 9.44271,33.9238 0.85179,0 0.0225,0 m 18.71054,0 0.85179,0 0.0225,0 m -67.41052,-64.69975 -0.34987,-2.67218 -0.34979,-2.66118 m 0.69946,53.15889 -0.34822,2.63202 -0.35134,2.61419 m -12.93997,-37.42105 c -0.23785,-7.66884 6.05633,-14.76915 13.63943,-15.65041 m -13.63946,15.65041 c -1.80693,0 -3.61385,0 -5.42078,0 m 5.42081,16.52473 c 0,-5.50824 0,-11.01649 0,-16.52473 m 0,16.52473 c -1.80693,0 -3.61385,0 -5.42078,0 m 19.06027,15.65036 c -7.55705,-0.9472 -13.88359,-7.96139 -13.63952,-15.65036 m 56.04412,-47.21352 0.96847,0.90559 0.16811,1.36758 m -43.54136,12.76515 c 12.09482,-1.60293 24.18965,-3.20586 36.28447,-4.80879 m 0.78689,57.44313 c -12.35712,-1.60293 -24.71424,-3.20586 -37.07136,-4.80879 M 61.750858,805.1703 c 0,-2.15667 0,-4.31333 0,-6.47 m 0,83.58542 c 0,-2.76869 0,-5.53739 0,-8.30608 m 0,-20.63406 c 0,-11.77424 0,-23.54847 0,-35.32271 m -21.33352,37.42109 c 12.70685,11.01649 25.413701,22.03298 38.120551,33.04947 m 8.655813,-13.02744 C 74.370275,864.33293 61.546849,853.19986 48.723422,842.0668 m 29.639602,46.25177 c 3.005731,3.34257 5.630917,7.63544 5.158518,12.32801 m -0.08743,14.25149 c 14.447025,1.63444 19.605458,-17.48287 12.758811,-27.77546 -2.115841,-4.52128 -5.273649,-8.53211 -9.086644,-11.74402 m -3.497299,23.78163 c -2.826983,-0.55374 -5.653965,-1.10748 -8.480948,-1.66122 M 27.914505,818.63493 c 0,-4.92536 0,-9.85072 0,-14.77608 m -15.737842,0 c 0,4.92536 0,9.85072 0,14.77608 m 0,-1.3989 C 8.1159022,816.06787 4.0551415,814.8997 -0.00561926,813.73154 m 96.46717026,-45.37025 0,0.17486 m 2.098379,3.235 0.34973,0.17487 m 2.62298,-0.2623 0.17486,-0.0874 m 0.87433,-0.5246 0.2623,-0.0875 m 0.87432,-0.52459 0.26229,-0.17487 m 0.87433,-0.5246 0.17486,-0.0875 m -7.431757,-3.84702 -0.174865,0.0874 m 1.311487,-0.78689 -0.174865,0.17486 m 7.43176,3.84704 0.17486,-0.0874 m -6.295134,-4.5465 -0.174864,0.0874 m 7.344328,3.93447 0.2623,-0.17487 m -0.69946,-11.54109 c -1.66668,0.96924 -2.05032,3.2583 -1.57379,4.98366 m 3.23501,5.77054 c 1.0807,0.51834 2.02712,1.35543 3.23499,1.57375 m 0.2623,-0.0874 0.83883,-0.14803 0.64752,-0.11426 m -1.74865,0.34973 0.2623,-0.0874 m -10.75419,-5.15853 -0.2623,0.0874 m 7.43176,3.84704 0.17487,-0.0874 m 5.07108,0.96176 0.76185,-0.38094 0.11247,-0.0562 m -6.90716,-11.97825 -0.7304,0.43824 -0.14393,0.0864 m -4.45905,6.38256 -0.17486,0.17487 m 12.6777,-3.235 c -1.2616,-2.43896 -4.18038,-5.21841 -7.16946,-3.75966 m 6.7323,11.89082 c 2.95983,-1.78382 1.77278,-5.76165 0.43714,-8.13122 m -5.24594,7.08203 0.17486,-0.0874 m 6.12027,-4.63393 -0.98011,-2.46512 -1.64287,-2.08136 m -9.79242,4.63392 -0.17487,0.0874 m 7.43176,3.93446 0.17486,-0.17486 m -6.29514,-4.45906 -0.2623,0.0875 m 1.39892,-0.78689 -0.26229,0.17487 m 1.31148,-0.7869 -0.17486,0.0875 m -6.907182,10.92897 -0.553703,0.24876 -0.58292,-0.33616 m -1.748648,-3.93445 0.488435,-1.32317 1.260213,-0.60032 m 0,0 c 2.254915,0.22019 5.881295,4.96866 2.448105,6.12027 m -2.622969,-6.12027 c 0.473551,-0.1131 0.752819,-0.71158 1.311487,-0.61202 m 0,0 c 2.343522,0.5079 4.881262,3.60534 3.147502,5.9454 m -3.322436,-6.03284 c 0.473549,-0.1131 0.752816,-0.71157 1.311486,-0.61203 m 0,0 c 2.27222,0.64912 4.92969,3.6506 3.14795,6.03284 m -3.32244,-6.03284 c 0.45911,-0.0816 0.68598,-0.71961 1.22405,-0.612 m 0,0 c 2.41008,0.48326 4.90382,3.53232 3.23496,5.9454 m -3.40986,-5.9454 c 0.47355,-0.1131 0.75282,-0.7116 1.31149,-0.61203 m 0,0 c 2.45811,0.45548 4.7028,3.54403 3.23502,5.94541 m -3.40986,-6.03284 c 0.47355,-0.11309 0.75282,-0.71158 1.31148,-0.61203 m 0,0 c 2.31518,0.59432 4.905,3.66495 3.14795,6.03285 m -3.32243,-6.03285 c 0.45911,-0.0816 0.68598,-0.71963 1.22405,-0.612 m 0,0 c 2.41008,0.48325 4.90382,3.53232 3.23496,5.9454 m -3.32244,-5.9454 c 0.45911,-0.0816 0.68599,-0.71962 1.22406,-0.612 m 0,0 c 2.43543,0.43383 4.9168,3.55091 3.235,5.94541 m -3.40987,-5.94541 c 0.48267,-0.13057 0.71575,-0.82382 1.31149,-0.69946 m 0,0 c 2.37357,0.60182 4.75196,3.59838 3.23491,6.03284 m -3.40987,-6.03284 c 0.47355,-0.1131 0.75282,-0.71157 1.31149,-0.61203 m 0,0 0.82178,0.22412 0.13998,0.0382 m -1.92352,0.2623 c 0.64157,-0.0829 1.22688,-0.8188 1.92352,-0.2623 M 98.210693,771.5964 c -6.145806,-5.15288 4.115367,-5.48051 1.224058,0.0874 m -2.972703,-3.32243 c 0.405937,-0.55633 0.112224,-1.74048 1.224054,-1.66122 m 1.224055,5.24595 c 4.216503,1.35686 1.280673,-5.60541 -1.224055,-5.24595 m 0.786892,-1.04919 -0.174865,0.0875 m 0.174865,-0.0875 c 2.260866,0.58357 4.911086,3.61168 3.147476,5.94541 m -2.185817,0.0874 -0.753532,0.0874 -0.470517,-0.1748 m 1.311487,-6.55744 -0.08743,0.0875 m 0.08743,-0.0875 c 2.456579,0.43334 4.867739,3.53831 3.234649,5.94541 m -2.09838,-6.64487 -0.0875,0.0874 m 0.0875,-0.0874 c 2.3294,0.62108 4.9015,3.59878 3.23499,6.03284 m -2.09837,-6.64487 -0.17487,0.0874 m 0.17487,-0.0874 c 2.26085,0.58358 4.91107,3.61169 3.14746,5.94541 m -7.344322,-3.84702 0.835241,-0.16705 0.03908,-0.008 m 0.174865,-0.43716 0.835241,-0.16705 0.03908,-0.008 m 3.409865,-1.92351 -0.17486,0.0874 m 0.17486,-0.0874 c 2.34353,0.50791 4.88123,3.60534 3.1475,5.94541 m -6.295136,-4.45906 0.815866,-0.24476 0.0585,-0.0175 m 3.32243,-1.92351 -0.0875,0.0874 m 0.0875,-0.0874 c 2.36826,0.58078 4.94053,3.59396 3.23501,6.03284 m 6.2077,0.2623 -0.17486,0.0874 m -12.32798,-4.89622 0.83525,-0.16705 0.0391,-0.008 m 3.32243,-1.9235 -0.17487,0.0874 m 0.17487,-0.0874 c 2.40226,0.51891 4.73612,3.5334 3.23494,5.9454 m 0,-7.86892 c 0.12561,0.50626 0.73227,0.0514 0.96199,0.3496 m -1.74865,-0.17486 0.78736,-0.1749 m -0.78689,0.17487 -0.34973,0.34973 m 3.58473,5.85797 c 2.37269,-1.70555 0.17787,-4.82999 -1.48642,-6.03283 m -7.25689,3.06013 0.83524,-0.16705 0.0391,-0.008 m 10.05473,-5.15851 c 0.83306,1.465 2.6046,2.66771 2.62298,4.54645 m -9.35528,-1.31148 -0.17486,0.0874 m 0.17486,-0.0874 c 2.34352,0.50791 4.88126,3.60533 3.14752,5.94541 m -6.29514,-4.45906 0.81587,-0.24476 0.0584,-0.0175 m 3.32244,-1.92351 -0.0875,0.0874 m 0.0875,-0.0874 c 2.32591,0.5791 5.0247,3.62704 3.23537,6.03284 m -6.29514,-4.54649 0.83525,-0.16705 0.0391,-0.008 m 0.2623,-0.43716 0.83525,-0.16705 0.0391,-0.008 m 2.09838,-1.31149 0,0.0541 0,0.0333 m -1.83609,0.69946 0.7869,-0.17486 m -0.787,-3.67195 c 5.65776,-1.28659 10.75098,7.63004 6.90712,11.89082 m -2.4481,-0.17486 c -0.77924,-0.36269 -1.68931,-0.47626 -2.36068,-1.04919 m -3.4973,-6.03284 c 0.64155,-11.08064 14.26972,5.47831 5.85804,7.08206 m -3.58473,-12.24055 c 5.67675,-1.09093 10.70036,7.62808 6.90721,11.97822 m -8.2187,-2.27312 c 7.94068,-5.1405 12.09584,-0.46361 0,0 z M 1.4225325,911.05129 c 1.6465373,1.45435 3.021139,3.50399 3.0601365,5.77055 m 0,0 c 0,1.34063 0,2.68126 0,4.02189 m 0,0 0,0.34973 -0.087433,0.26229 M 91.565314,777.71676 c 0,-1.51549 0,-3.03099 0,-4.54648 m 0,25.88001 c 0,-3.29329 0,-6.58658 0,-9.87987 m -0.612028,88.04448 c 4.459055,-2.59383 8.918109,-5.18766 13.377164,-7.78149 M 13.050979,755.85839 c -2.73994,-1.16579 -5.4798792,-2.33158 -8.2198188,-3.49737 m -4.82758269,63.1683 C 17.742657,821.86673 42.611014,821.05684 54.232936,804.27411 59.176013,780.98806 26.013859,775.52296 9.1152873,779.4131 c -3.0969439,0.6043 -6.147639,1.45015 -9.10766889,2.54411 M 0.00462866,819.79476 C 19.814649,825.4676 45.143619,824.0165 59.19763,807.23565 c 8.559056,-14.03612 -6.49902,-26.06918 -18.744718,-29.4837 -13.0277,-4.30677 -27.35888,-3.79418 -40.45420165,-0.0568 m 56.50620065,67.7815 c 0,1.10748 0,2.21496 0,3.32244 m 0,20.54662 c 0,2.94356 0,5.88712 0,8.83068 M 40.417338,854.74455 c -0.958245,-6.55159 14.911049,-22.38103 16.08757,-9.26784 M 40.417335,866.4605 c 0,-3.90532 0,-7.81063 0,-11.71595 M 16.02368,840.93023 c -12.9570046,-10.75077 16.194798,-17.6434 10.488103,-2.35911 -2.259353,3.40302 -6.993517,4.65216 -10.488103,2.35907 m 45.290004,-29.28987 c 0.685433,15.51821 -0.625968,-1.39575 0.43716,-6.47 m -57.4431243,9.79243 c -0.1880861,-2.4995 -1.8139911,-4.96556 -4.29826909,-5.68717 m 51.51179539,31.39232 0.276142,1.02566 -0.01384,1.07272 m 0,0 c 0,0.67031 0,1.34063 0,2.01094 m 0,20.54663 c 0,3.14757 0,6.29513 0,9.4427 M 24.24232,832.62411 c -0.933967,3.78214 -7.39028,3.80516 -8.306081,-3e-5 m -0.174865,-41.35555 c 5.593922,11.15686 13.417525,-8.60978 0.940459,-2.15422 l -0.940457,2.15422 -2e-6,0 z m 8.568383,41.96758 c -5.357447,-11.20525 -13.465909,8.44871 -0.884871,2.109 l 0.613757,-0.9364 0.271114,-1.1726 z m 27.453792,9.53014 c 1.573784,0.90347 3.147569,1.80693 4.721353,2.7104 M 24.329757,790.48164 c -0.974143,3.85503 -7.390984,3.86598 -8.480948,0.0874 m 71.344884,84.89691 c -6.425728,-2.47625 -12.087966,7.97803 -8.743245,12.94001 m -0.262297,14.16406 c 1.026575,-1.96392 3.129623,-3.48734 5.420812,-3.32244 m -57.96772,-98.62385 c 9.494434,12.84743 -25.28351435,6.80017 -8.452524,-0.93779 2.815281,-0.69118 5.848183,-0.30676 8.452524,0.93779 z m -2.098376,1.22406 c 3.979598,10.74895 -17.7005058,-0.29733 -2.417973,-0.70044 l 2.417971,0.70044 2e-6,0 z m 16.613076,99.49831 c 1.258769,-7.5486 6.160757,-14.22283 12.502841,-18.36082 m 5.857975,-3.32243 c -1.952658,1.10748 -3.905317,2.21495 -5.857975,3.32243 M 5.6201224,918.39546 C 5.5035258,914.94759 3.6757063,911.67679 0.98620178,909.56479 M 40.155041,901.346 C 26.765575,891.57412 13.376108,881.80223 -0.01335844,872.03035 M 2.3842197,846.35099 c 16.7578873,12.2114 33.5157753,24.42279 50.2736623,36.63419 M 0.00398505,847.47374 c 0.79341155,-0.37425 1.58682305,-0.7485 2.38023465,-1.12275 m 0,0 c 2.1689823,-0.89724 4.3241957,-1.84006 6.3825693,-2.9727 m 49.749068,36.28447 C 41.932834,867.56794 25.349812,855.47311 8.766789,843.37829 m 4e-6,-11.36619 c -2.8249759,1.50129 -5.753221,2.81239 -8.77039663,3.87825 M 8.766793,832.01213 c 0,3.78874 0,7.57749 0,11.36623 m -8.77650646,-10.98067 2.63101096,-1.16382 2.5607648,-1.32012 m 0,-2e-5 c 1.1949102,0.69946 2.3898205,1.39892 3.5847307,2.09838 M 0.00914434,919.6536 c 1.08313556,0.45492 2.16627106,0.90983 3.24940666,1.36475 m -1.6612167,-9.79243 c 0,0.61203 0,1.22405 0,1.83608 m 0.087433,0.0874 c -0.5590054,0.32722 -1.11801074,0.65445 -1.67701611,0.98167 m 1.67701611,-0.89424 c 0.6994597,0.29144 1.3989193,0.58289 2.098379,0.87433 m -2.1858114,-1.04919 0.087433,0.17486 M 0.01492145,764.40919 c 5.54026585,2.36654 11.08053155,4.73307 16.62079755,7.09961 m 57.880277,18.36082 c 0,5.0128 0,10.02559 0,15.03839 m 3.584731,-12.94002 c -1.19491,-0.69946 -2.389821,-1.39891 -3.584731,-2.09837 m 3.584731,13.4646 c 0,-3.78874 0,-7.57749 0,-11.36623 M -0.01399686,760.2687 c 4.35500426,1.85222 8.71000856,3.70443 13.06501286,5.55665 m 0,-11.36621 c 0,3.78874 0,7.57747 0,11.36621 m 3.584694,-9.35493 c -1.19491,-0.67031 -2.389821,-1.34063 -3.584731,-2.01094 m 3.584731,17.04932 c 0,-5.01279 0,-10.02559 0,-15.03838 m 61.465017,46.8638 2.695879,-1.77582 2.550069,-1.98378 m 0,0 c 1.51779,-0.7086 3.415313,-3.41993 5.508244,-2.18581 m 17.224191,68.02246 c 0.031,1.45215 -0.37576,3.23295 -1.74872,4.02189 m 1.74865,-4.02189 c 0,-1.34063 0,-2.68127 0,-4.0219 m -5.42081,-10.31703 c 3.11003,2.48471 5.36103,6.26422 5.42088,10.31703 M 84.570729,839.35639 c 5.362524,3.90532 10.725047,7.81063 16.087571,11.71595 M 84.570729,839.35639 c 0,-9.03469 0,-18.06937 0,-27.10406 m 6.732299,-26.9292 c -0.02914,-0.61203 -0.05829,-1.22405 -0.08743,-1.83608 m 0.34973,-5.77054 c -0.05873,4.19412 -1.00859,8.41142 -0.17486,12.59024 m 0,0.0875 0.06441,-2.53324 -0.151839,-2.53784 m -78.25205,-30.86365 c 1.340631,-0.69946 2.681262,-1.39893 4.021893,-2.09839 m 56.727943,1.2e-4 c 13.012712,3.89064 24.256395,21.0783 12.906246,32.62215 -2.429769,2.81441 -5.437205,5.0699 -8.606332,6.98466 m -3.584731,-2.09837 c 12.548834,-5.01353 16.659658,-23.7068 3.573217,-30.94946 -3.995304,-3.05161 -8.655515,-5.12528 -13.445979,-6.57442 m -38.134761,0 c -3.447361,0.96176 -6.706378,2.47927 -9.872763,4.12468 m 54.470421,135.52029 c 3.636005,1.71657 7.105671,3.8822 9.9673,6.7323 M 33.247889,773.95696 c 0,0.64117 0,1.28235 0,1.92352 m -10.229597,-7.51919 c 4.13067,-1.85889 10.304137,0.54013 10.229597,5.59567 m -16.612167,-2.44811 c 2.043795,-1.20821 4.173202,-2.2759 6.38257,-3.14756 m 51.497716,81.13732 c 4.077274,-2.51881 7.852373,-5.81192 10.054733,-10.14217 m -10.054733,10.14217 c 0,4.98365 0,9.9673 0,14.95095 M 41.55396,759.96772 c 5.283808,10.53362 12.55707,-8.18232 0.84138,-2.02216 l -0.841375,2.02216 -5e-6,0 z m 45.814612,98.8861 c -4.28419,-3.11842 -8.568381,-6.23684 -12.852571,-9.35526 m 12.852571,9.35526 c 3.120375,2.44826 5.258318,6.23095 5.42081,10.2296 m 0,0 c 0,1.34063 0,2.68127 0,4.0219 m 0,0 c 0.141805,1.99495 -1.093952,4.52765 -3.409861,4.45905 M 80.81114,864.27464 c 7.904859,-6.46329 4.617083,13.75495 0,0 z m 19.84717,-13.2023 c -4.429912,2.59383 -8.859824,5.18765 -13.289736,7.78148 m 5.420813,10.2296 c 4.429911,-2.56468 8.859823,-5.12937 13.289733,-7.69405 m 0,4.0219 c -4.42991,2.56468 -8.859822,5.12937 -13.289733,7.69405 m -6.557434,-6.81974 -1.661211,-2.88526 M 49.597759,759.44313 c -0.860711,3.66912 -7.181207,3.66014 -8.043786,0 m -41.56467766,53.42899 c 1.00231149,0.58028 2.00462296,1.16057 3.00693446,1.74085 m 2.6229555,103.78239 -0.7565406,-0.66535 -0.3800819,-0.90842 m -1.2240548,4.19675 0.607796,0.20414 0.6162584,-0.0293 m -1.224054,-0.17487 0.7395543,-0.4226 0.4845001,-0.27686 M 13.050979,759.96772 c -4.3522754,-1.84301 -8.7045508,-3.68603 -13.0568262,-5.52904 m 21.5377752,14.53459 c 3.905316,1.66121 7.810633,3.32243 11.715949,4.98364 m 28.502981,230.38459 c 0,-4.77966 0,-9.55933 0,-14.33899 M 45.05133,987.37986 c 8.456242,3.66481 18.744933,4.02601 26.841765,-0.78693 m 0.08743,0 c 1.923514,-1.10748 3.847028,-2.21495 5.770542,-3.32243 M -0.00175238,968.17935 C 15.015941,974.57951 30.033635,980.97966 45.051328,987.37982 m -11.278787,44.50308 1.792365,-1.0491 1.792366,-1.0492 M 147.08493,943.2264 c 1.92351,-1.10748 3.84703,-2.21495 5.77054,-3.32243 m 0,0 c 9.89707,-5.4664 14.42748,-17.22421 14.42635,-28.06582 m -60.59069,77.90232 c 1.19491,-0.67032 2.38983,-1.34063 3.58474,-2.01095 m -37.508523,35.75968 1.748649,-1.0492 1.748649,-1.0492 m -19.759734,-5.2459 c 2.90714,-3.2316 5.33176,-7.3086 5.245947,-11.8034 m -5.245947,-2.7979 c 0,4.8671 0,9.7342 0,14.6013 m -4.371632,-2.5358 2.185812,1.2679 2.185811,1.2678 m 2.973614,-78.16447 c 6.832155,3.50523 15.374507,3.49401 22.207844,0 m 5.857974,-3.32244 c -1.952658,1.10748 -3.905316,2.21496 -5.857974,3.32244 M 5.6201224,918.39546 c 0,1.34063 0,2.68126 0,4.02189 m -4.63466922,3.41012 c 2.30498572,1.56866 5.01656942,-1.00959 4.63392062,-3.4098 m 53.8583932,42.57961 c 0,-9.00554 0,-18.01109 0,-27.01663 M 40.155194,979.3362 c 10.16311,5.58367 20.571549,-3.56251 19.322573,-14.33892 M -0.00348024,962.26711 C 13.382745,967.95681 26.768969,973.6465 40.155194,979.3362 m 41.530264,-41.356 c 0,9.00554 0,18.01109 0,27.01663 m -22.207844,0 c 6.797809,3.62321 15.408878,3.6131 22.207844,0 m 5.857974,-3.32243 c -1.952658,1.10748 -3.905316,2.21495 -5.857974,3.32243 m 5.857974,-3.32243 c 0,-9.00554 0,-18.01109 0,-27.01663 M 5.0071973,970.33031 c 0,1.66122 0,3.32243 0,4.98365 m 0,0 -2.5024165,0.98679 -2.51826857,0.94201 m 77.76449177,6.02751 c 7.407967,-4.35267 9.686866,-13.58887 9.792435,-21.59582 m -84.2848877,-40.6561 -1.7466526,2.11338 -0.5265915,2.69541 m 37.6833908,63.21363 c -0.69946,-1.74865 -1.39892,-3.49729 -2.09838,-5.24594 m -2.273244,11.45366 c 1.457208,-2.06924 2.914416,-4.13848 4.371624,-6.20772 m -17.399128,-5.946 0.08743,0.34973 m 0,0 0.743575,3.14982 1.617099,2.79558 m 0,0 0.08743,0.34973 m 0,0 0.262297,0.17487 m 0,0 c 1.265272,1.16629 2.752471,2.62995 4.63392,2.62294 m 0,0 0.262298,0.1749 m 0,0 0.08743,-0.1749 m 0,0 c 1.504394,-0.26022 2.350207,-1.91878 2.360672,-3.3224 m 0,0 0.08743,-0.17487 m 0,0 -0.08743,-0.34973 m 0,0 -0.756564,-3.10696 -1.604109,-2.75101 m 0,0 -0.08743,-0.43716 m 0,0 -0.262298,-0.0875 m 0,0 -2.023992,-1.87448 -2.609928,-0.83585 m 0,0 -0.262297,-0.0874 m 0,0 -0.08743,0.17486 m 0,0 c -1.531133,0.14611 -2.320948,1.89848 -2.360674,3.23498 m 0,0 -0.08743,0.17486 m -3.584731,-2.01095 c 1.457208,3.73047 2.914415,7.46095 4.371623,11.19142 m 13.027436,-1.13668 c -1.224054,-3.20586 -2.448109,-6.41171 -3.672163,-9.61757 m -0.69946,15.8253 c 1.457208,-2.06924 2.914415,-4.13849 4.371623,-6.20773 m -13.027436,1.13668 c 2.885271,1.69035 5.770542,3.3807 8.655813,5.07105 m 4.371623,-6.20773 c 1.19491,-0.69946 2.389821,-1.39892 3.584731,-2.09838 m -7.956354,8.30611 c 1.19491,-0.69945 2.389821,-1.39891 3.584731,-2.09836 m -9.530138,-14.16411 c 0.874325,2.21496 1.748649,4.42991 2.622974,6.64487 m -1.748649,-7.78149 -0.519342,0.67514 -0.354983,0.46148 m 2.622974,6.64487 c 1.311487,0.75775 2.622973,1.5155 3.93446,2.27325 m -4.196757,-7.60663 c 0.339994,2.2293 1.548493,4.94176 4.109326,5.24595 m -3.759596,-6.55744 -0.219473,0.82303 -0.130254,0.48846 m 3.497298,9.26786 c -0.524595,0.29144 -1.049189,0.58289 -1.573784,0.87433 m -7.781489,-9.44273 c 1.165766,-0.67032 2.331532,-1.34063 3.497298,-2.01095 m -3.409865,1.83609 c 0.612027,-0.34973 1.224054,-0.69946 1.836081,-1.04919 m 1.573784,-2.18582 c -0.524595,0.72861 -1.049189,1.45721 -1.573784,2.18582 m 0.69946,-2.36068 -0.174865,0.17486 m -0.524595,2.18582 c 0.300074,-0.76533 0.142164,-1.75612 0.786892,-2.36068 m -0.174864,10.2296 c 1.19491,-0.67032 2.38982,-1.34063 3.58473,-2.01095 m 1.311487,4.80881 c 0.582883,-0.34974 1.165766,-0.69949 1.748649,-1.04923 m -4.546487,-2.62296 c 1.515496,0.87432 3.030991,1.74864 4.546487,2.62296 m -4.546487,-2.62296 c -0.612027,0.34973 -1.224055,0.69946 -1.836082,1.04919 m 6.382569,1.57377 -2.558466,-0.80148 -1.988021,-1.82182 m -2.185812,0.5246 c 0.582883,-0.34973 1.165766,-0.69947 1.748649,-1.0492 m -2.273244,-5.85797 c 0.757748,1.95266 1.515496,3.90531 2.273244,5.85797 m -2.273244,-5.85797 c -0.612027,0.32059 -1.224054,0.64117 -1.836081,0.96176 m 4.109325,4.89621 c -1.123388,-1.72452 -2.38819,-3.68648 -2.273244,-5.85797 M 2.0344977,1023.3143 c 1.4280479,-2.0693 2.8561426,-4.1385 4.2841905,-6.2078 m 0,0 c -1.4280524,-3.7596 -2.8561381,-7.5191 -4.2841905,-11.2787 m 0,0 -2.02776036,-1.1558 M 54.756269,990.08997 c -0.66806,17.01883 -7.625221,36.15293 -24.306222,43.45393 m 0,0 c -8.737315,3.8761 -16.095727,10.6242 -20.9845184,18.8116 M 58.166067,990.26426 c -1.194354,15.12584 -6.953193,31.56264 -20.808925,39.51944 M 20.570111,976.9745 c -0.961757,1.36977 -1.923515,2.73955 -2.885272,4.10932 m 10.142216,53.68308 c -6.636486,4.4825 -12.17948,10.5683 -16.019221,17.5966 m -8.9864619,-33.247 1.7486491,-1.0055 1.7486491,-1.0055 m -3.4972982,2.011 c -0.9362832,-2.3968 -1.87253247,-4.7937 -2.80881565,-7.1905 m -0.00599698,-4.9122 c 0.67597348,-0.3957 1.35194693,-0.7914 2.02792043,-1.1871 m -2.02448633,17.2829 1.40568923,-1.9961 1.4056893,-1.9961 m -2.81652752,5.3353 2.02963532,-1.1386 m 52.2846291,-8.3934 -2.972704,0.2624 M 85.70736,921.0183 c 13.872617,5.91627 27.74523,11.83253 41.61785,17.7488 m 25.96745,-19.14772 c 1.79195,12.8152 -10.98878,26.13949 -23.89177,19.87266 l -2.07568,-0.72494 m 29.55216,-17.13677 c 1.60075,13.40964 -10.47877,28.30721 -24.73996,22.94011 l -2.18924,-0.64486 m -2.18581,1.66122 c -0.11316,-1.16774 1.15436,-2.14429 2.18585,-1.66122 m -26.57946,47.5632 c 17.42724,-7.73014 24.17442,-28.1671 24.39365,-45.90198 m -48.612447,70.5581 c 4.953768,-10.6277 13.313732,-19.97904 24.218797,-24.65612 m -54.820157,28.06592 c 8.79013,7.062 25.54499,9.3479 30.60136,-3.4105 m 20.896317,-75.80332 c 7.85022,-6.37172 4.58138,13.71704 0,0 z m 56.8311,-18.71055 c 1.92352,-1.10748 3.84703,-2.21496 5.77055,-3.32244 M 127.3252,938.7671 c 1.95266,-1.10748 3.90532,-2.21496 5.85798,-3.32244 m 6.55744,-13.63941 c 0.38981,5.26419 -2.09791,10.73328 -6.55743,13.63946 m -22.90731,52.28456 c 15.03214,-8.6658 20.42343,-27.0735 21.07122,-43.3665 m -25.88001,-2.01095 -1.03307,-1.33697 -0.6281,-1.54826 m -21.071227,74.66731 -1.792366,1.0056 -1.792365,1.0055 m 3.584731,-2.0111 c 3.977139,-8.5525 10.104091,-16.20163 18.011087,-21.42084 m -24.481152,28.67774 c 2.801404,-1.7248 5.056577,-4.292 6.470002,-7.257 m -1.049257,-49.13705 c 0.127317,8.0883 -2.429404,17.18339 -9.705003,21.68325 m -31.825414,-7.34432 c 0.259518,3.21619 1.842483,6.60278 4.896217,8.04378 M 5.6191853,922.41726 4.8626438,921.7519 4.4825628,920.84347 M 153.29261,921.456 c -3.96705,2.88327 -9.29904,2.06996 -13.55203,0.3497 m 27.54122,-9.9673 c -0.0952,2.88391 -2.36644,5.03754 -4.63392,6.47 m -9.79243,21.59582 c 7.40993,-4.35742 9.70208,-13.58025 9.79243,-21.59582 m -29.46473,17.13676 c 4.41723,1.75637 9.4092,2.82695 14.07662,1.39892 M 84.833045,914.89829 c 16.116715,6.84887 32.233435,13.69775 48.350155,20.54662 m -2.71041,8.65582 c -0.90347,0.49545 -1.80694,0.9909 -2.71041,1.48635 M 299.99129,795.90246 c -3.66782,0 -7.33565,0 -11.00347,0 m 0,7.86892 c 3.66782,0 7.33565,0 11.00347,0 m -11.00347,-7.86892 c -5.77054,0 -11.54109,0 -17.31163,0 m 0,7.86892 c 5.77054,0 11.54109,0 17.31163,0 m 0,13.7269 c 3.96951,0.0105 7.925,-1.37735 11.01355,-3.87194 m 0.0138,-27.60504 c -12.73294,-11.4907 -34.51775,3.9399 -27.70495,19.81582 2.43264,6.87812 9.35711,11.80605 16.67753,11.66116 m 0,-21.59582 c 15.11159,10.17951 -14.95492,9.12728 -6e-5,0 m 0,1.48635 c 9.22819,6.32842 -9.33021,5.70801 0,0 z m 0,4.80879 0,0.0874 m 0,-0.0874 c 2.93109,-0.0842 3.06815,-4.68207 0,-4.72129 m 0,-0.0874 0,0.0874 m 0,4.72135 c -3.00785,0.0459 -3.15694,-4.80378 0,-4.72129 m 0,4.80879 c 0,-1.60293 0,-3.20586 0,-4.80879 m 8.48094,6.29514 c -3.20238,7.17303 -13.89317,7.0022 -17.04933,0 m 0,-7.86892 c 3.05657,-7.20362 14.04305,-7.10087 17.04933,0 m -31.47568,3.93445 c 0.84518,0 1.69035,0 2.53553,0 m 0,0 c -0.46829,15.67984 18.46243,26.11558 31.46843,17.14159 m -0.009,2.95993 c -14.66913,8.62238 -34.45858,-3.13604 -33.99529,-20.10152 m 3.32243,11.97825 c -12.50284,0 -25.00569,0 -37.50853,0 m 0,0 c -1.22957,-2.40661 -0.8328,-5.26032 -1.04929,-7.86892 m 0,0 c 11.86167,0 23.72335,0 35.58502,0 m -35.58505,-4.10933 c 0,1.36978 0,2.73955 0,4.10933 m 35.23528,-4.10933 c -11.74509,0 -23.49019,0 -35.23528,0 m 1.04919,11.97825 c -4.54648,0 -9.09295,0 -13.63943,0 m 0,0 c -4.13476,-0.0248 -8.00068,-3.63762 -7.86885,-7.86892 m -3e-5,-4.10933 c 0,1.36978 0,2.73955 0,4.10933 m 88.13194,-0.17487 c -3.23463,8.17288 -15.73775,8.24782 -18.88537,0 m 20.45922,-21.15865 c -12.97139,-8.90124 -31.99281,1.39513 -31.47575,17.22419 m -2.53554,0 c -0.49923,-16.96777 19.27148,-28.77987 33.99401,-20.18972 m -31.45844,20.18972 c -0.84518,0 -1.69035,0 -2.53553,0 m 0.3497,-4.10935 c -11.86167,0 -23.72335,0 -35.58502,0 m 1.04919,-7.86892 c -1.29598,2.43471 -0.67974,5.2685 -1.04929,7.86889 m 1.04919,-7.86892 c 12.50284,0 25.00568,0 37.50852,0 m -38.55771,11.97824 c 0,-1.36977 0,-2.73955 0,-4.10932 m 0,4.10932 c 11.74509,0 23.49019,0 35.23528,0 m -47.82556,-11.97824 c 4.54651,0 9.09301,0 13.63952,0 m -13.63943,0 c -4.18179,-0.1066 -8.04586,3.64528 -7.86898,7.86889 m 0,4.10929 c 0,-1.36977 0,-2.73955 0,-4.10932 m 69.24657,0.17486 c 3.11286,-8.29963 15.63913,-8.35514 18.88538,0 m -5.77054,7.86892 c -1.99149,1.95326 -5.42792,1.89993 -7.43176,0 m 0,-7.86892 c 1.94139,-1.96131 5.5007,-2.002 7.43176,0 m -82.36101,8.04391 c 6.81972,0 13.63944,0 20.45916,0 m -58.2298,8.30606 0,0.17486 m 2.09838,3.32243 0.43716,0.17487 m 2.53555,-0.2623 0.26229,-0.0874 m 0.87432,-0.5246 0.17487,-0.17486 m 0.96175,-0.5246 0.17487,-0.0874 m 0.96176,-0.52458 0.17486,-0.0874 m -7.43176,-3.93447 -0.17486,0.17487 m 1.31149,-0.7869 -0.2623,0.0874 m 7.43176,3.93447 0.2623,-0.17487 m -6.38257,-4.45906 -0.17487,0.0874 m 7.43176,3.84704 0.17487,-0.0874 m -0.69946,-11.54109 c -1.72441,0.95 -1.86285,3.28311 -1.48636,4.98365 m 3.23501,5.68311 2.05877,1.2092 1.17622,0.36455 m 0.2623,0 1.48635,-0.34973 m -1.74865,0.34973 0.2623,0 m -10.84162,-5.24595 -0.17486,0.17487 m 7.43175,3.84703 0.17487,-0.17487 m 5.07108,1.04919 0.70874,-0.47249 0.0781,-0.0521 m -6.90716,-11.89082 -0.7446,0.41367 -0.0423,0.0235 m -4.45906,6.47 -0.17486,0.0874 m 12.6777,-3.14756 c -1.23436,-2.36428 -4.29858,-5.19561 -7.16946,-3.847 m 6.64487,11.97825 c 2.97522,-1.58197 1.83178,-5.85094 0.52462,-8.13119 m -5.33337,7.08203 0.26229,-0.17486 m 6.12027,-4.54649 c -0.54331,-1.66127 -1.30912,-3.34546 -2.62297,-4.54649 m -9.79244,4.63392 -0.2623,0.0874 m 7.43176,3.84704 0.2623,-0.0874 m -6.38257,-4.54649 -0.17487,0.17487 m 1.31149,-0.7869 -0.17486,0.0875 m 1.31149,-0.69947 -0.2623,0.0875 m -6.81977,10.92851 -0.56563,0.16562 -0.57099,-0.25302 m -1.74865,-4.02189 c 0.038,-0.92746 0.7457,-1.8803 1.74865,-1.83608 m 0,0 c 2.2045,-0.0743 5.79459,5.43281 2.4481,6.03288 m -2.71041,-6.03284 0.80926,-0.59902 0.50223,-0.10044 m 0,0 c 2.37152,0.37701 4.9657,3.85648 3.23502,6.03284 m -3.32243,-6.03284 0.77499,-0.52221 0.44906,-0.0898 m 0,0 c 2.30353,0.43634 4.94827,3.70106 3.235,5.94541 m -3.40986,-5.94541 0.85255,-0.56178 0.45894,-0.13768 m 0,0 c 2.22947,0.48212 4.99594,3.98869 3.14735,6.03285 m -3.32243,-6.03285 0.80927,-0.51158 0.50221,-0.10045 m 0,0 c 2.26322,0.40766 4.97482,4.01846 3.14737,6.03285 m -3.32244,-6.03285 0.77499,-0.52221 0.44907,-0.0898 m 0,0 c 2.39623,0.39816 4.92096,3.69438 3.23531,5.94541 m -3.40987,-5.94541 0.85255,-0.56178 0.45894,-0.13768 m 0,0 c 2.33663,0.43793 4.80576,3.86717 3.23501,6.03284 m -3.40987,-5.9454 0.80926,-0.59902 0.50222,-0.10045 m 0,0 c 2.20704,0.37076 4.99987,4.02845 3.14736,5.94541 m -3.40987,-5.85797 0.94794,-0.61868 0.36355,-0.0808 m 0,0 c 2.32217,0.31087 5.05805,3.90526 3.23488,5.9454 m -3.40986,-5.9454 0.85256,-0.56178 0.45893,-0.13768 m 0,0 0.80808,0.26936 0.24111,0.0804 m -2.01095,0.26229 0.83464,-0.40359 1.17631,0.14133 m -11.10392,11.27878 c -6.05215,-5.58874 3.90689,-5.2679 1.22408,0.17492 m -2.9727,-3.40986 c -0.28728,-0.91047 0.5461,-1.39166 1.22409,-1.66118 m 1.22405,5.33337 c 4.1513,1.27422 1.28978,-5.73469 -1.22409,-5.3334 m 0.69946,-0.96176 -0.0874,0.0874 m 0.0874,-0.0874 c 2.42384,0.33689 4.90736,3.7171 3.23532,5.9454 m -2.18582,0.0874 -0.79637,0.0389 -0.42762,-0.21379 m 1.31149,-6.55743 -0.17486,0.0874 m 0.17486,-0.0874 c 2.33664,0.43793 4.80578,3.86716 3.23489,6.03283 m -2.09837,-6.64486 -0.17487,0.0874 m 0.17487,-0.0874 c 2.25446,0.36518 4.99303,3.99353 3.14755,5.9454 m -2.09837,-6.55743 -0.0542,0 -0.0332,0 m 0.0874,0 c 2.42384,0.3369 4.90735,3.71712 3.23529,5.94541 m -7.43175,-3.84703 0.87432,-0.17486 m 0.2623,-0.5246 0.87432,-0.17486 m 3.32243,-1.92352 -0.0874,0.0875 m 0.0874,-0.0875 c 2.33517,0.46334 4.98842,3.82087 3.23504,6.03285 m -6.29514,-4.5465 0.87433,-0.17486 m 3.32243,-1.92351 -0.17487,0.0874 m 0.17487,-0.0874 c 2.30301,0.41622 4.85167,3.84034 3.23499,5.94541 m 6.20771,0.34973 -0.17487,0.0874 m -12.4154,-4.89623 0.87432,-0.17486 m 3.40986,-1.92351 -0.17486,0 m 0.17486,0 c 2.29959,0.33248 4.94573,3.94739 3.14747,5.94541 m 0.0874,-7.86893 0.79651,0.22337 0.16538,0.12633 m -1.74866,-0.17487 0.78696,-0.1748 m -0.78689,0.17487 -0.34973,0.26229 m 3.49729,5.94541 c 2.33727,-1.47544 0.30755,-4.91812 -1.39898,-6.03284 m -7.34432,2.9727 0.83525,-0.16706 0.0391,-0.008 m 10.14217,-5.07108 1.83609,2.53555 0.78686,2.01095 m -9.44271,-1.39892 -0.0874,0.0875 m 0.0874,-0.0875 c 2.37153,0.37699 4.9657,3.85648 3.23502,6.03283 m -6.29514,-4.54648 0.87433,-0.17487 m 3.32243,-1.92351 -0.17486,0.0874 m 0.17486,-0.0874 c 2.30352,0.43635 4.94828,3.70105 3.235,5.9454 m -6.29514,-4.45905 0.87433,-0.17486 m 0.17486,-0.5246 0.87433,-0.17486 m 2.18581,-1.22406 -0.0542,0 -0.0332,0 m -1.83608,0.78689 0.87432,-0.17486 m -0.78706,-3.75957 c 5.4239,-1.39702 10.84334,8.00486 6.90719,11.97831 m -2.53554,-0.17486 -1.82425,-0.71908 -0.53642,-0.33011 m -3.40987,-6.03284 c 0.56883,-11.14969 14.15627,5.46281 5.77044,7.08206 m -3.58473,-12.24055 c 5.34885,-1.60795 10.97764,8.0345 6.90717,11.89082 m 1.39896,76.24116 0,0.17486 m 2.09838,3.235 0.34973,0.17487 m 2.62297,-0.2623 0.2623,-0.0874 m 0.87433,-0.52459 0.17486,-0.0875 m 0.96176,-0.52459 0.17486,-0.17487 m 0.87433,-0.52459 0.2623,-0.0874 m -7.43176,-3.84703 -0.2623,0.0875 m 1.39891,-0.69947 -0.26229,0.0875 m 7.43175,3.84702 0.17487,-0.0874 m -6.29514,-4.54649 -0.17486,0.17487 m 7.43176,3.84702 0.17486,-0.17485 m -0.69946,-11.54109 c -1.72454,0.94974 -1.86273,3.28325 -1.48634,4.98364 m 3.23499,5.77055 2.10184,1.24292 1.13317,0.33083 m 0.17486,0 1.48635,-0.3497 m -1.66121,0.34973 0.17486,0 m -10.75419,-5.24594 -0.17487,0.0874 m 7.34433,3.84703 0.2623,-0.0874 m 4.98364,0.96175 0.76187,-0.38093 0.11246,-0.0562 m -6.90716,-11.97825 -0.70873,0.47249 -0.0782,0.0521 m -4.45905,6.38257 -0.2623,0.17486 m 12.76514,-3.23499 c -1.23523,-2.22176 -4.45632,-5.3276 -7.16946,-3.7596 m 6.64486,11.89082 c 2.98757,-1.60541 1.69791,-5.79186 0.52456,-8.13122 m -5.33338,7.08203 0.2623,-0.0874 m 6.12027,-4.63392 c -0.51085,-1.69375 -1.39517,-3.34104 -2.71041,-4.54649 m -9.79243,4.63392 -0.17486,0.0874 m 7.43176,3.93446 0.17486,-0.17486 m -6.29513,-4.45906 -0.17487,0.0874 m 1.31148,-0.78689 -0.17486,0.17486 m 1.31148,-0.78688 -0.2623,0.0874 m -6.81965,10.92869 c -0.29484,0.53588 -0.82244,0.13082 -1.13662,-0.0874 m -1.74864,-3.93446 c -0.23286,-1.04684 0.74858,-1.81922 1.66121,-1.92353 m 0,0 c 2.18664,-0.019 5.9143,5.28776 2.53544,6.12023 m -2.7104,-6.03284 0.80834,-0.59883 0.50314,-0.10063 m 0,0 c 2.42411,0.33702 4.9071,3.71677 3.23467,5.94541 m -3.40987,-6.03284 0.80834,-0.5114 0.50315,-0.10063 m 0,0 c 2.30623,0.49588 4.81991,3.84316 3.2349,6.03284 m -3.40987,-6.03284 0.80835,-0.5114 0.50314,-0.10063 m 0,0 c 2.25451,0.36492 4.9928,3.99355 3.14761,5.94541 m -3.32244,-5.94541 0.77394,-0.522 0.45011,-0.09 m 0,0 c 2.42411,0.33698 4.90709,3.71679 3.23466,5.9454 m -3.32243,-6.03284 0.77394,-0.522 0.45012,-0.09 m 0,0 c 2.26617,0.46344 4.96812,3.8689 3.23497,6.03284 m -3.40986,-6.03284 0.80835,-0.51139 0.50314,-0.10063 m 0,0 c 2.25449,0.3649 4.99282,3.99358 3.1476,5.94541 m -3.32243,-5.94541 0.80834,-0.5114 0.50314,-0.10063 m 0,0 c 2.29952,0.33238 4.94557,3.94743 3.1475,5.94541 m -3.32244,-6.03284 0.77394,-0.522 0.45012,-0.09 m 0,0 c 2.3717,0.37673 4.96527,3.85652 3.235,6.03284 m -3.40986,-6.03284 0.80834,-0.5114 0.50314,-0.10063 m 0,0 1.04919,0.2623 m -2.01094,0.26229 1.18965,-0.42655 0.82129,0.16426 m -11.19135,11.36621 c -5.63658,-5.69334 3.61959,-5.36317 1.31148,0.0874 m -3.06014,-3.32242 c -0.20933,-0.80284 0.54018,-1.66594 1.31146,-1.66122 m 1.22405,5.24594 c 4.10553,1.40004 1.30577,-5.59036 -1.22408,-5.24594 m 0.69945,-1.04919 -0.17486,0.0874 m 0.17486,-0.0874 c 2.32465,0.39806 4.75813,3.77201 3.23504,5.9454 m -2.18581,0.0874 -0.84095,0.0874 -0.47051,-0.1748 m 1.39892,-6.55743 -0.17487,0.0874 m 0.17487,-0.0874 c 2.29951,0.33236 4.94554,3.94745 3.1476,5.9454 m -2.01094,-6.64486 -0.17487,0.0874 m 0.17487,-0.0874 c 2.231,0.47512 4.99463,3.99264 3.14795,6.03284 m -2.09838,-6.64487 -0.0874,0.0874 m 0.0874,-0.0874 c 2.33982,0.39498 4.92943,3.73719 3.23498,5.94541 m -7.43176,-3.84703 0.87432,-0.17486 m 0.2623,-0.43717 0.87432,-0.17486 m 3.32244,-1.92352 -0.17486,0.0874 m 0.17486,-0.0874 c 2.40903,0.33441 4.75375,3.75279 3.23503,5.94541 m -6.29514,-4.45905 0.87433,-0.2623 m 3.32244,-1.92352 -0.17487,0.0874 m 0.17487,-0.0874 c 2.23099,0.47511 4.99463,3.99267 3.14793,6.03284 m 6.2077,0.2623 -0.0875,0.0874 m -12.4154,-4.89622 0.87432,-0.17486 m 3.32244,-1.92352 -0.0874,0.0874 m 0.0874,-0.0874 c 2.33981,0.39499 4.92944,3.73721 3.23497,5.94542 m 0.0875,-7.86892 0.69943,0.2622 0.26237,0.0874 m -1.83609,-0.17487 c 0.27775,-0.18339 0.57659,-0.17455 0.87444,-0.1748 m -0.87433,0.17487 -0.2623,0.34973 m 3.49731,5.85797 c 2.31351,-1.39371 0.24124,-4.99348 -1.39889,-6.03284 m -7.34433,3.06013 0.87433,-0.17486 m 10.05472,-5.15852 c 1.29251,1.26314 2.02564,2.91588 2.71048,4.54656 m -9.44271,-1.31149 -0.0875,0.0874 m 0.0875,-0.0874 c 2.42411,0.33701 4.90711,3.71677 3.23467,5.94541 m -6.29514,-4.45906 0.87433,-0.2623 m 3.32243,-1.9235 -0.17487,0.0874 m 0.17487,-0.0874 c 2.29138,0.53158 4.83208,3.82724 3.2349,6.03284 m -6.38257,-4.5465 0.87433,-0.17486 m 0.26229,-0.43717 0.87432,-0.17486 m 2.18582,-1.31148 -0.0875,0.0874 m -1.83609,0.69946 0.87433,-0.17486 m -0.78682,-3.67195 c 5.28397,-1.59949 10.98978,8.16961 6.81975,11.89081 m -2.4481,-0.17487 -1.82277,-0.71816 -0.53791,-0.33102 m -3.40986,-6.03285 c 0.40304,-11.24449 14.2397,5.60791 5.7705,7.08203 m -3.58473,-12.24054 c 5.39477,-1.47699 10.90066,8.1084 6.90716,11.97822 m -42.8416,30.16454 0.2623,-0.0874 m 0.87432,-0.52458 0.17487,-0.17487 m 0.96175,-0.52459 0.17487,-0.0874 m 0.87433,-0.5246 0.26229,-0.0874 m -0.69946,-11.54109 c -1.711,0.92719 -1.88616,3.29123 -1.57374,4.98366 m 3.32243,5.68311 1.51357,1.00761 1.634,0.56614 m 0.2623,0 0.98877,-0.16879 0.49758,-0.18094 m -1.74865,0.34973 0.2623,0 m -3.58474,-1.22406 0.2623,-0.17486 m 4.98365,1.04919 0.7304,-0.43824 0.14393,-0.0864 m -6.90716,-11.89082 -0.76186,0.38094 -0.11247,0.0562 m 8.13122,3.40987 c -1.30232,-2.37587 -4.28944,-5.36966 -7.25689,-3.84706 m 6.7323,11.97826 c 2.92165,-1.65859 1.74195,-5.77861 0.52459,-8.13119 m -5.33339,6.99459 0.17487,-0.0874 m 6.12027,-4.54648 c -0.38761,-1.74032 -1.3363,-3.33196 -2.62297,-4.54649 m -2.53554,8.56838 0.17486,-0.0874 m -6.29513,-4.54649 -0.0874,0.0874 m 1.22405,-0.69946 -0.26229,0.0874 m 1.31148,-0.69946 -0.17486,0.0874 m -2.36057,6.81928 c 0.32498,0.89946 0.62976,2.07593 -0.26222,2.79783 m 0.43717,-5.07108 c 0.93782,1.18175 1.88925,3.10412 0.6995,4.45906 m -0.43717,-5.85798 c 1.32075,1.01777 2.8714,3.59737 1.57372,5.15852 m -1.74865,-6.47 c 2.11244,0.57418 4.46527,3.87947 2.79787,5.85798 m -2.9727,-6.38257 0.96182,-0.2623 m 0,0 c 2.24398,0.53423 4.89948,3.89175 3.14758,6.03284 m -3.32243,-6.03284 0.59189,-0.48559 0.63217,-0.12644 m 0,0 c 2.27248,0.27995 4.92186,3.83181 3.23503,5.94541 m -3.40986,-5.85797 0.67932,-0.57303 0.63217,-0.12644 m 0,0 c 2.40299,0.29558 4.69735,3.78725 3.23502,5.94541 m -3.40986,-5.94541 0.75255,-0.53178 0.55893,-0.16768 m 0,0 0.80808,0.26936 0.24111,0.0804 m -2.01094,0.2623 0.59478,-0.38035 1.41616,0.11809 m -5.33338,6.99459 c 0.70987,0.93114 0.51566,2.22833 -0.17487,3.06013 m 0.17487,-5.33337 c 0.93685,1.20584 2.15929,3.27729 0.96177,4.72135 m -0.61203,-6.03284 c 1.41495,1.06208 3.18809,3.78513 1.66125,5.42082 M 167.02,910.52629 c 2.31991,0.2805 4.90262,3.78678 3.23498,5.94541 m 6.2077,0.34973 -0.17487,0.0874 m -8.13122,-7.08203 -0.0875,0.0875 m 0.0875,-0.0875 c 2.33582,0.52562 4.98533,3.7608 3.235,6.03284 m 0,-7.86893 0.61188,0.17476 0.43727,0.17494 m -1.83607,-0.17487 0.52467,-0.1749 0.2623,0 m -0.78689,0.17487 -0.34973,0.26229 m 3.58473,5.94541 c 2.40033,-1.27122 0.18964,-5.01847 -1.39889,-6.03284 m 3.58474,-2.27325 c 1.28679,1.22325 2.09503,2.88597 2.62296,4.54645 m -9.35526,-1.39892 -0.17487,0.0874 m 0.17487,-0.0874 c 2.2376,0.43044 4.88962,3.94787 3.14751,6.03283 m -2.01094,-6.64486 -0.17486,0.0875 m 0.17486,-0.0875 c 2.22856,0.41251 4.89815,3.85469 3.1476,5.9454 m -6.29514,-4.45905 0.87433,-0.2623 m 0.2623,-0.43716 0.87432,-0.17486 m 0.2623,-0.43717 0.87432,-0.17486 m -0.87491,-3.7594 c 5.44205,-1.45303 10.82126,8.01341 6.90722,11.97822 m -2.44811,-0.17487 c -0.96743,0.036 -1.63026,-0.5788 -2.36068,-1.04919 m -3.40986,-6.03284 c 0.27406,-11.35504 14.16576,5.41978 5.77038,7.08203 m -3.58473,-12.24055 c 5.29727,-1.71708 10.80906,8.06685 6.90716,11.89082 m -10.05448,-31.47532 c -0.44734,-19.16603 -10.6802,-37.89816 -25.88008,-49.39933 m 25.88001,76.41596 c 0,-9.00554 0,-18.01109 0,-27.01663 m -13.98916,7.69381 c 0,9.03468 0,18.06937 0,27.10405 m -25.96745,-76.15366 c 15.06776,11.41417 25.3212,30.07386 25.96745,49.04961 m -25.44287,-52.89664 c 16.8039,12.98533 28.29533,33.63058 29.02758,54.99502 m 0,0 c 0,9.00554 0,18.01108 0,27.01662 m 5.77055,-30.33906 c -0.75335,-21.33576 -12.18341,-42.07396 -29.02758,-54.99501 m 23.25703,58.31745 c 1.92352,-1.10748 3.84703,-2.21496 5.77055,-3.32244 m -34.79813,-51.67258 c 1.92352,-1.10748 3.84703,-2.21495 5.77055,-3.32243 m 29.02758,82.01163 c 0,-9.00554 0,-18.01108 0,-27.01662 m 4.63388,-6.46947 c -0.17508,2.91064 -2.30093,5.00202 -4.63392,6.47 m -21.15866,-55.7819 c -2.47736,-1.62591 -5.5401,-0.56039 -7.86891,0.78689 m 97.13728,-36.45975 -2.09837,0 -2.01095,0 -2.01095,0 -1.92351,0 -1.83608,0 -1.66122,0 -1.66122,0 -1.39892,0 -1.39891,0 -1.13663,0 -1.04919,0 -0.78689,0 -0.69946,0 -0.43716,0 -0.2623,0 -0.0874,0 m 20.45914,-4.10938 -2.09837,0 -2.01095,0 -2.01095,0 -1.9235,0 -1.83609,0 -1.66122,0 -1.66122,0 -1.39892,0 -1.39891,0 -1.13662,0 -1.04919,0 -0.7869,0 -0.69946,0 -0.43716,0 -0.2623,0 -0.0874,0 m -6e-5,4.10926 0.0875,0 0.26229,0 0.43717,0 0.69946,0 0.78689,0 1.04919,0 1.13662,0 1.39892,0 1.39892,0 1.66122,0 1.66121,0 1.83609,0 1.92351,0 2.01094,0 2.01095,0 2.09838,0 m -89.3558,35.58527 -52.372038,-38.20799 m -29.551256,140.76613 -0.262298,-3.84703 -0.699459,-4.02189 -1.04919,-4.10933 -1.573784,-4.10932 -1.923514,-4.02189 -2.273244,-3.93447 -2.622973,-3.67215 -2.79784,-3.40987 -3.060135,-2.97271 -3.060136,-2.53554 m 12.502841,-18.36082 3.934461,3.14758 3.847027,3.58472 3.672163,4.0219 3.409867,4.45905 3.147568,4.63393 2.797839,4.89621 2.448109,5.07108 2.010946,5.15852 1.661217,5.15851 1.224054,5.15852 0.69946,4.89621 0.174865,4.80879 m 5.857974,-3.32244 -0.262297,-4.80878 -0.69946,-4.98364 -1.224054,-5.07109 -1.573784,-5.15852 -2.098379,-5.15851 -2.448109,-5.07109 -2.797839,-4.89621 -3.147568,-4.72135 -3.409866,-4.37163 -3.672163,-4.02189 -3.759595,-3.58473 -3.934461,-3.14757 m 15.999237,-74.75487 52.809204,38.55771 m -49.224473,-40.1315 49.749063,36.28447 m 5.77055,-3.32243 -50.273665,-36.72164 M 139.74058,921.8057 98.385023,904.23177" />
  </g>
</svg>
