<?xml version="1.0" encoding="UTF-8" standalone="no"?>
<!-- Created with Inkscape (http://www.inkscape.org/) -->

<svg
   xmlns:dc="http://purl.org/dc/elements/1.1/"
   xmlns:cc="http://creativecommons.org/ns#"
   xmlns:rdf="http://www.w3.org/1999/02/22-rdf-syntax-ns#"
   xmlns:svg="http://www.w3.org/2000/svg"
   xmlns="http://www.w3.org/2000/svg"
   xmlns:xlink="http://www.w3.org/1999/xlink"
   xmlns:sodipodi="http://sodipodi.sourceforge.net/DTD/sodipodi-0.dtd"
   xmlns:inkscape="http://www.inkscape.org/namespaces/inkscape"
   width="1920"
   height="1080"
   id="svg2"
   version="1.1"
   inkscape:version="0.48.5 r10040"
   sodipodi:docname="front_page_mockup.svg">
  <defs
     id="defs4" />
  <sodipodi:namedview
     id="base"
     pagecolor="#ffffff"
     bordercolor="#666666"
     borderopacity="1.0"
     inkscape:pageopacity="0.0"
     inkscape:pageshadow="2"
     inkscape:zoom="0.75416667"
     inkscape:cx="960"
     inkscape:cy="540"
     inkscape:document-units="px"
     inkscape:current-layer="layer1"
     showgrid="false"
     inkscape:window-width="1920"
     inkscape:window-height="1017"
     inkscape:window-x="1912"
     inkscape:window-y="-8"
     inkscape:window-maximized="1" />
  <metadata
     id="metadata7">
    <rdf:RDF>
      <cc:Work
         rdf:about="">
        <dc:format>image/svg+xml</dc:format>
        <dc:type
           rdf:resource="http://purl.org/dc/dcmitype/StillImage" />
        <dc:title />
      </cc:Work>
    </rdf:RDF>
  </metadata>
  <g
     inkscape:label="Layer 1"
     inkscape:groupmode="layer"
     id="layer1"
     transform="translate(0,27.637817)">
    <path
       sodipodi:nodetypes="sssss"
       id="path3818"
       style="font-size:400px;font-style:normal;font-variant:normal;font-weight:normal;font-stretch:normal;text-align:start;line-height:125%;letter-spacing:0px;word-spacing:0px;writing-mode:lr-tb;text-anchor:start;fill:none;stroke:#f2f2f2;stroke-width:0.80364048;font-family:Weibei TC;-inkscape-font-specification:Weibei TC"
       d="m 956.69914,301.21769 c -50.29967,1.82142 -89.66081,44.14037 -87.8394,94.43994 1.82147,50.29956 44.14069,89.67046 94.44031,87.84906 50.29955,-1.82142 89.66055,-44.15003 87.83905,-94.44961 -1.8213,-50.29959 -44.1404,-89.66078 -94.43996,-87.83939 z"
       inkscape:connector-curvature="0" />
    <path
       inkscape:connector-curvature="0"
       d="m 957.90142,469.93856 c -42.81176,-1.15814 -76.63201,-36.85894 -75.47387,-79.67074 1.15813,-42.81181 36.85919,-76.64018 79.67102,-75.48205 42.81183,1.15814 76.63173,36.86718 75.47363,79.67898 -1.1582,42.81179 -36.8589,76.63195 -79.67078,75.47381 z"
       style="font-size:400px;font-style:normal;font-variant:normal;font-weight:normal;font-stretch:normal;text-align:start;line-height:125%;letter-spacing:0px;word-spacing:0px;writing-mode:lr-tb;text-anchor:start;fill:none;stroke:#f2f2f2;stroke-width:0.6838097;font-family:Weibei TC;-inkscape-font-specification:Weibei TC"
       id="path3806"
       sodipodi:nodetypes="sssss" />
    <path
       transform="translate(0,-27.637817)"
       style="opacity:0.90000000000000002;fill:none;stroke:#cccccc;stroke-width:0.50000000000000000;stroke-linecap:butt;stroke-miterlimit:4;stroke-opacity:1;stroke-dashoffset:0;stroke-dasharray:none"
       d="M 1.95e-4,0 1920.0002,0 1919.9998,80 -1.95e-4,80 z"
       id="rect2985"
       inkscape:connector-curvature="0"
       sodipodi:nodetypes="ccccc" />
    <path
       sodipodi:nodetypes="ccccc"
       inkscape:connector-curvature="0"
       id="path3756"
       d="m 1.95e-4,1012.3622 1920.000005,0 -4e-4,40 -1919.999995,0 z"
       style="opacity:0.9;fill:none;stroke:#cccccc;stroke-width:0.5;stroke-linecap:butt;stroke-miterlimit:4;stroke-opacity:1;stroke-dasharray:none;stroke-dashoffset:0" />
    <path
       sodipodi:nodetypes="ccccc"
       inkscape:connector-curvature="0"
       id="path3765"
       d="m 320.00019,52.362183 1280.00001,0 -4e-4,960.000017 -1279.99999,0 z"
       style="opacity:0.9;fill:none;stroke:#cccccc;stroke-width:0.5;stroke-linecap:butt;stroke-miterlimit:4;stroke-opacity:1;stroke-dasharray:none;stroke-dashoffset:0" />
    <path
       style="opacity:0.9;fill:none;stroke:#cccccc;stroke-width:0.5;stroke-linecap:butt;stroke-miterlimit:4;stroke-opacity:1;stroke-dasharray:none;stroke-dashoffset:0"
       d="m 320.00019,692.36218 1280.00001,0 -4e-4,320.00002 -1279.99999,0 z"
       id="path3767"
       inkscape:connector-curvature="0"
       sodipodi:nodetypes="ccccc" />
    <path
       style="opacity:0.9;fill:none;stroke:#cccccc;stroke-width:0.5;stroke-linecap:butt;stroke-miterlimit:4;stroke-opacity:1;stroke-dasharray:none;stroke-dashoffset:0"
       d="m 320.00019,52.362183 1280.00001,0 -4e-4,639.999997 -1279.99999,0 z"
       id="path3769"
       inkscape:connector-curvature="0"
       sodipodi:nodetypes="ccccc" />
    <path
       transform="translate(0,-27.637817)"
       style="opacity:0.9;fill:#142735;stroke:none"
       d="m 0,520 800,0 0,-200 -800,0 z"
       id="rect3771"
       inkscape:connector-curvature="0"
       sodipodi:nodetypes="ccccc" />
    <path
       sodipodi:nodetypes="ccccc"
       inkscape:connector-curvature="0"
       id="path3774"
       d="m 1120,492.36218 800,0 0,-200 -800,0 z"
       style="opacity:0.9;fill:#142735;stroke:none" />
    <g
       id="g3871"
       transform="matrix(0.46113623,0,0,0.46113623,517.87409,211.42859)">
      <path
         inkscape:connector-curvature="0"
         id="path3841"
         d="m 1004.3977,477.46474 0,-5.20514 c 3.9039,-2.34236 7.5475,-6.76674 10.1501,-11.97194 2.0821,-4.94491 2.863,-11.97193 2.863,-20.82073 l 0,-52.05186 -113.98036,0 0,52.05186 c 0,8.8488 1.04101,15.87582 3.12307,20.82073 2.6026,5.2052 5.98597,9.62958 10.1501,11.97194 l 0,5.20514 -38.85448,0 0,-5.20514 c 3.90389,-2.34236 7.5475,-6.76674 10.15009,-11.97194 2.08208,-4.94491 3.12313,-11.97193 3.12313,-20.82073 l 0,-94.21381 c 0,-8.8488 -1.04105,-15.87582 -3.12313,-20.82072 -2.60259,-5.20521 -6.2462,-9.62963 -10.15009,-12.23223 l 0,-4.9449 38.85448,0 0,4.9449 c -4.16413,2.6026 -7.5475,7.02702 -10.1501,12.23223 -2.08206,4.9449 -3.12307,11.97192 -3.12307,20.82072 l 0,36.89591 113.98036,0 0,-36.89591 c 0,-8.8488 -0.7809,-15.87582 -2.863,-20.82072 -2.6026,-5.20521 -6.2462,-9.62963 -10.1501,-12.23223 l 0,-4.9449 39.8497,0 0,4.9449 c -4.164,2.6026 -7.5475,7.02702 -10.15,12.23223 -2.0823,4.9449 -3.1233,11.97192 -3.1233,20.82072 l 0,94.21381 c 0,8.8488 1.041,15.87582 3.1233,20.82073 2.6025,5.2052 5.986,9.62958 10.15,11.97194 l 0,5.20514 -39.8497,0"
         style="font-size:400px;font-style:normal;font-variant:normal;font-weight:normal;font-stretch:normal;text-align:start;line-height:125%;letter-spacing:0px;word-spacing:0px;writing-mode:lr-tb;text-anchor:start;fill:#142735;fill-opacity:1;stroke:none;font-family:Weibei TC;-inkscape-font-specification:Weibei TC" />
      <path
         inkscape:connector-curvature="0"
         id="path3839"
         d="m 957.47948,339.49536 -16.14024,40.63049 7.09052,0 9.73393,-27.28914 8.78538,27.28914 11.59982,0 -13.99446,-40.63049 -7.07495,0 z"
         style="font-size:400px;font-style:normal;font-variant:normal;font-weight:normal;font-stretch:normal;text-align:start;line-height:125%;letter-spacing:0px;word-spacing:0px;writing-mode:lr-tb;text-anchor:start;fill:#142735;fill-opacity:1;stroke:none;font-family:Weibei TC;-inkscape-font-specification:Weibei TC" />
      <path
         inkscape:connector-curvature="0"
         id="path3837"
         d="m 937.54518,389.70428 -3.98064,10.01376 c -2.08859,4.8734 -3.82382,8.46949 -5.10019,10.55805 -1.27637,1.97255 -3.0176,3.58823 -4.75811,4.40044 l 0,2.33245 17.99063,0 0,-2.33245 c -3.48099,-0.1161 -4.06939,-3.93815 -1.6327,-10.90006 l 5.02246,-14.07219 -7.54145,0 z"
         style="font-size:400px;font-style:normal;font-variant:normal;font-weight:normal;font-stretch:normal;text-align:start;line-height:125%;letter-spacing:0px;word-spacing:0px;writing-mode:lr-tb;text-anchor:start;fill:#142735;fill-opacity:1;stroke:none;font-family:Weibei TC;-inkscape-font-specification:Weibei TC" />
      <path
         inkscape:connector-curvature="0"
         id="path3835"
         d="m 970.05894,389.70428 5.16239,15.22283 c 2.08856,5.91762 1.28732,9.40136 -2.42569,9.74942 l 0,2.33245 22.39108,0 0,-2.33245 c -2.55275,-1.27636 -4.3047,-2.90155 -5.34899,-4.75811 -1.3924,-2.20463 -2.78082,-4.98385 -3.8251,-8.11673 l -4.16725,-12.09741 -11.78644,0 z"
         style="font-size:400px;font-style:normal;font-variant:normal;font-weight:normal;font-stretch:normal;text-align:start;line-height:125%;letter-spacing:0px;word-spacing:0px;writing-mode:lr-tb;text-anchor:start;fill:#142735;fill-opacity:1;stroke:none;font-family:Weibei TC;-inkscape-font-specification:Weibei TC" />
    </g>
    <path
       transform="translate(0,-27.637817)"
       style="opacity:0.90000000000000002;fill:#e6e6e6;stroke:none"
       d="m 330,730 300,0 0,300 -300,0 z"
       id="rect3793"
       inkscape:connector-curvature="0"
       sodipodi:nodetypes="ccccc" />
    <path
       sodipodi:nodetypes="ccccc"
       inkscape:connector-curvature="0"
       id="path3796"
       d="m 650.00002,702.36216 300,0 0,300.00004 -300,0 z"
       style="opacity:0.90000000000000002;fill:#e6e6e6;stroke:none" />
    <path
       sodipodi:nodetypes="ccccc"
       inkscape:connector-curvature="0"
       id="path3798"
       d="m 969.99999,702.36216 300.00001,0 0,300.00004 -300.00001,0 z"
       style="opacity:0.90000000000000002;fill:#e6e6e6;stroke:none" />
    <path
       sodipodi:nodetypes="ccccc"
       inkscape:connector-curvature="0"
       id="path3800"
       d="m 1290,702.36216 300,0 0,300.00004 -300,0 z"
       style="opacity:0.90000000000000002;fill:#e6e6e6;stroke:none" />
    <text
       xml:space="preserve"
       style="font-size:28px;font-style:normal;font-variant:normal;font-weight:normal;font-stretch:normal;text-align:center;line-height:75%;letter-spacing:4px;word-spacing:0px;writing-mode:lr;text-anchor:middle;fill:#142735;fill-opacity:1;stroke:none;font-family:Baron Neue;-inkscape-font-specification:Baron Neue"
       id="text3808"
       sodipodi:linespacing="75%"><textPath
         xlink:href="#path3806"
         startOffset="50%"
         id="textPath3815">ALEX HAGEN</textPath></text>
    <text
       sodipodi:linespacing="75%"
       id="text3820"
       style="font-size:14px;font-style:normal;font-variant:normal;font-weight:normal;font-stretch:normal;text-align:center;line-height:75%;letter-spacing:4px;word-spacing:0px;writing-mode:lr;text-anchor:middle;fill:#142735;fill-opacity:1;stroke:none;font-family:Baron Neue;-inkscape-font-specification:Baron Neue"
       xml:space="preserve"><textPath
         xlink:href="#path3818"
         startOffset="50%"
         id="textPath3829"
         style="-inkscape-font-specification:Baron Neue;font-family:Baron Neue;font-weight:normal;font-style:normal;font-stretch:normal;font-variant:normal;font-size:14px;text-anchor:middle;text-align:center;writing-mode:lr;line-height:75%">graduate researcher</textPath></text>
    <path
       inkscape:connector-curvature="0"
       id="path3020"
       style="font-size:14.26739979px;font-style:normal;font-variant:normal;font-weight:normal;font-stretch:normal;text-align:end;line-height:75%;letter-spacing:0px;word-spacing:0px;writing-mode:lr-tb;text-anchor:end;fill:#142735;fill-opacity:1;stroke:none;font-family:Athene;-inkscape-font-specification:Athene"
       d="m 864.15669,386.2762 0,0.13358 0.59505,0 0,10.09164 -0.59505,0 0,0.13359 6.02342,0 0,-0.65578 -0.12144,0 0,0.52219 -3.67963,0 0,-4.89402 3.04814,0 0,0.4129 0.12144,0 0,-0.98366 -0.12144,0 0,0.42504 -3.04814,0 0,-5.0519 3.67963,0 0,0.4979 0.12144,0 0,-0.63148 z" />
    <path
       inkscape:connector-curvature="0"
       id="path3022"
       style="font-size:14.26739979px;font-style:normal;font-variant:normal;font-weight:normal;font-stretch:normal;text-align:end;line-height:75%;letter-spacing:0px;word-spacing:0px;writing-mode:lr-tb;text-anchor:end;fill:#142735;fill-opacity:1;stroke:none;font-family:Athene;-inkscape-font-specification:Athene"
       d="m 877.49885,391.17022 -2.67168,-1.1294 c -0.016,-0.002 -0.12032,-0.054 -0.31305,-0.15786 -0.19273,-0.1039 -0.40232,-0.25097 -0.62878,-0.44124 -0.22647,-0.19025 -0.39828,-0.41558 -0.51545,-0.67601 -0.11765,-0.34003 -0.0918,-0.73774 0.0774,-1.19315 0.16926,-0.45539 0.49563,-0.78631 0.97912,-0.99277 0.40074,-0.12142 0.80149,-0.18215 1.20225,-0.18216 0.67171,0.006 1.2865,0.146 1.84437,0.42049 0.55786,0.27451 0.99959,0.64844 1.32521,1.1218 l 0,0.57076 0.13359,0 0,-1.45727 -0.13359,0 0,0.61934 c -0.37192,-0.45716 -0.83339,-0.80579 -1.38442,-1.0459 -0.55104,-0.24009 -1.14609,-0.36102 -1.78516,-0.3628 -0.58419,0.003 -1.15916,0.12414 -1.7249,0.36432 -0.56574,0.24019 -1.04176,0.58292 -1.42804,1.02819 -0.38628,0.44528 -0.60233,0.97692 -0.64812,1.59491 0.0296,0.64768 0.27702,1.16785 0.7423,1.5605 0.46526,0.39267 0.97075,0.70638 1.51648,0.94116 0.40966,0.19064 0.91131,0.40038 1.50495,0.62923 0.59362,0.22887 1.12856,0.49889 1.6048,0.81006 0.47624,0.31117 0.7431,0.68554 0.80061,1.12309 0.0443,0.75419 -0.15965,1.30421 -0.61176,1.65006 -0.45211,0.34585 -1.01731,0.51638 -1.6956,0.51157 -0.64161,-0.0387 -1.24678,-0.15863 -1.81553,-0.35977 -0.56874,-0.20113 -1.07677,-0.50625 -1.52406,-0.91535 0.25248,0.0395 0.4731,-0.0213 0.66184,-0.18216 0.18874,-0.16091 0.28791,-0.36735 0.29753,-0.61935 -0.006,-0.2411 -0.0853,-0.43591 -0.23833,-0.58443 -0.15307,-0.1485 -0.34484,-0.2249 -0.57532,-0.22921 -0.22998,0.004 -0.41973,0.0807 -0.56924,0.22922 -0.14953,0.14851 -0.22695,0.34332 -0.23226,0.58442 -0.002,0.20848 0.0627,0.38659 0.1943,0.53434 0.4931,0.54952 1.06741,0.95938 1.72293,1.22958 0.65552,0.2702 1.34824,0.41897 2.07814,0.44629 0.54648,-0.002 1.09295,-0.10727 1.63943,-0.31574 0.67955,-0.26843 1.21186,-0.63933 1.59694,-1.11269 0.38506,-0.47337 0.58948,-1.00517 0.61328,-1.59542 0.0159,-0.58645 -0.19508,-1.08638 -0.63301,-1.49978 -0.43795,-0.41339 -0.90701,-0.71902 -1.40718,-0.91687 z" />
    <path
       inkscape:connector-curvature="0"
       id="path3024"
       style="font-size:14.26739979px;font-style:normal;font-variant:normal;font-weight:normal;font-stretch:normal;text-align:end;line-height:75%;letter-spacing:0px;word-spacing:0px;writing-mode:lr-tb;text-anchor:end;fill:#142735;fill-opacity:1;stroke:none;font-family:Athene;-inkscape-font-specification:Athene"
       d="m 881.23894,386.31263 0,0.74078 0.10929,0 0,-0.61935 3.43675,0 0,10.05523 -0.6072,0 0,0.13358 2.91456,0 0,-0.13358 -0.61934,0 0,-10.05523 3.40031,0 0,0.61935 0.10929,0 0,-0.74078 z" />
    <path
       inkscape:connector-curvature="0"
       id="path3026"
       style="font-size:14.26739979px;font-style:normal;font-variant:normal;font-weight:normal;font-stretch:normal;text-align:end;line-height:75%;letter-spacing:0px;word-spacing:0px;writing-mode:lr-tb;text-anchor:end;fill:#142735;fill-opacity:1;stroke:none;font-family:Athene;-inkscape-font-specification:Athene"
       d="m 894.34657,386.30048 -2.87941,0 0,0.096 0.43627,0 0,7.22472 -0.43627,0 0,0.096 2.88814,0 c 1.01251,-0.0927 1.84726,-0.48099 2.50422,-1.16486 0.65695,-0.68386 1.00305,-1.52587 1.03833,-2.52603 -0.0678,-1.03869 -0.42737,-1.90179 -1.07869,-2.58929 -0.65133,-0.68749 -1.47552,-1.06632 -2.47259,-1.1365 z m -0.12216,7.3207 -1.16049,0 0,-7.22472 1.20412,0 c 0.68824,0.0718 1.20131,0.29075 1.53925,0.65668 0.33791,0.36594 0.55949,0.81427 0.66475,1.34502 0.10524,0.53075 0.15296,1.07927 0.14316,1.64556 0.008,0.56398 -0.0494,1.12004 -0.17192,1.66819 -0.12243,0.54814 -0.35684,1.00273 -0.70321,1.36376 -0.34639,0.36103 -0.85161,0.54286 -1.51566,0.54551 z" />
    <text
       xml:space="preserve"
       style="font-size:13.3798914px;font-style:normal;font-variant:normal;font-weight:normal;font-stretch:normal;text-align:end;line-height:75%;letter-spacing:0px;word-spacing:0px;writing-mode:lr-tb;text-anchor:end;fill:#142735;fill-opacity:1;stroke:none;font-family:Athene;-inkscape-font-specification:Athene"
       x="1053.9614"
       y="396.83081"
       id="text3881"
       sodipodi:linespacing="75%"><tspan
         sodipodi:role="line"
         id="tspan3883"
         x="1053.9614"
         y="396.83081">1988</tspan></text>
    <rect
       style="fill:#142735;stroke:none"
       id="rect3032"
       width="6.5892591"
       height="1.3902922"
       x="891.42633"
       y="395.30466" />
    <text
       xml:space="preserve"
       style="font-size:14px;font-style:normal;font-variant:normal;font-weight:300;font-stretch:normal;text-align:start;line-height:120%;letter-spacing:0px;word-spacing:0px;writing-mode:lr;text-anchor:start;fill:#142735;fill-opacity:1;stroke:none;font-family:Ikaros Sans Light;-inkscape-font-specification:'Ikaros Sans Light, Light'"
       x="1119.3468"
       y="510.1398"
       id="text3806"
       sodipodi:linespacing="120%"><tspan
         sodipodi:role="line"
         x="1119.3468"
         y="510.1398"
         id="tspan3828">github: alexhagen</tspan><tspan
         sodipodi:role="line"
         x="1119.3468"
         y="526.07281"
         id="tspan3830">linkedin: alexander hagen</tspan></text>
    <text
       xml:space="preserve"
       style="font-size:14px;font-style:normal;font-variant:normal;font-weight:300;font-stretch:normal;text-align:end;line-height:120%;letter-spacing:0px;word-spacing:0px;writing-mode:lr;text-anchor:end;fill:#000000;fill-opacity:1;stroke:none;font-family:Ikaros Sans Light;-inkscape-font-specification:'Ikaros Sans Light, Light'"
       x="800.41669"
       y="511.88284"
       id="text3836"
       sodipodi:linespacing="120%"><tspan
         sodipodi:role="line"
         id="tspan3838"
         x="800.41669"
         y="511.88284">email: ahagen@purdue.edu</tspan><tspan
         sodipodi:role="line"
         x="800.41669"
         y="525.38281"
         id="tspan3840">phone: (765)418-4155</tspan></text>
  </g>
</svg>
