<?xml version="1.0" encoding="UTF-8" standalone="no"?>
<svg
   xmlns:dc="http://purl.org/dc/elements/1.1/"
   xmlns:cc="http://creativecommons.org/ns#"
   xmlns:rdf="http://www.w3.org/1999/02/22-rdf-syntax-ns#"
   xmlns:svg="http://www.w3.org/2000/svg"
   xmlns="http://www.w3.org/2000/svg"
   version="1.1"
   id="svg4167"
   viewBox="0 0 50.000002 49.900141"
   height="14.082929mm"
   width="14.111112mm">
  <defs
     id="defs4169" />
  <metadata
     id="metadata4172">
    <rdf:RDF>
      <cc:Work
         rdf:about="">
        <dc:format>image/svg+xml</dc:format>
        <dc:type
           rdf:resource="http://purl.org/dc/dcmitype/StillImage" />
        <dc:title></dc:title>
      </cc:Work>
    </rdf:RDF>
  </metadata>
  <g
     transform="translate(-99.906917,-696.02217)"
     id="layer1">
    <g
       transform="matrix(0.31357086,0,0,0.31357086,68.579019,512.02281)"
       id="g4801">
      <rect
         style="opacity:1;fill:#14273f;fill-opacity:0.94117647;stroke:none;stroke-width:1;stroke-miterlimit:4;stroke-dasharray:4, 4;stroke-dashoffset:0;stroke-opacity:1"
         id="rect4796"
         width="159"
         height="159"
         x="100.20345"
         y="586.78717"
         ry="11.671087" />
      <path
         id="path4794"
         d="m 139.37502,683.06657 c -15.6918,-4.13718 -20.47747,-11.15833 -20.56316,-30.16862 -0.0814,-18.06234 3.34926,-24.83997 15.22181,-30.07203 10.53104,-4.64088 31.49089,-3.76513 38.86053,1.62367 1.84968,1.35253 1.93813,1.94987 0.56646,3.82573 -1.50139,2.05327 -1.92208,2.07497 -5.51164,0.28426 -6.76444,-3.37454 -17.31668,-4.72014 -24.81244,-3.16403 -12.94514,2.6874 -16.88656,8.66897 -16.88656,25.6274 0,12.32471 1.69586,17.42432 7.38687,22.21299 7.39846,6.22539 21.06689,7.43075 32.08035,2.82903 4.19887,-1.75439 4.28278,-1.93565 4.28278,-9.251 0,-11.23733 -0.15862,-11.41602 -10.13374,-11.41602 -6.82556,0 -8.61626,-0.38968 -8.61626,-1.875 0,-1.54801 2.29652,-1.875 13.16873,-1.875 l 13.16873,0 -0.35623,12.80839 -0.35623,12.80839 -7.20813,2.85733 c -7.78445,3.08578 -23.83752,4.64622 -30.29187,2.94451 z"
         style="fill:#f9f9f9;fill-opacity:1" />
      <path
         id="path4792"
         d="m 137.50002,745.69391 c -9.90605,0 -16.67744,0.22839 -21.86623,0.22839 -14.97883,0 -14.20917,-5.84489 -15.31341,-11.2315 -0.846223,-4.128 -0.13137,-7.68077 -0.13137,-15.3125 l 0,-10.23035 79.81101,0 78.9622,0 0.2122,11.99464 c 0.0743,4.20094 0.37064,9.78368 0.0139,13.16137 -0.62442,5.91258 -4.14045,11.25937 -11.36084,11.25937 -4.85033,0 -26.16002,0.21927 -43.71519,0.21927 -22.54345,0 -52.51351,-0.0887 -66.6123,-0.0887 z m 65.4253,-62.66342 c -6.16318,-1.59264 -12.02962,-5.50364 -15.10855,-10.07248 -2.56081,-3.79997 -2.81675,-5.64517 -2.81675,-20.30699 0,-18.46646 0.97831,-21.47959 8.81793,-27.15858 6.65977,-4.82431 15.67657,-6.8381 26.83812,-5.99396 8.9231,0.67485 16.84395,3.49336 16.84395,5.99364 0,0.70399 -0.86308,6.13201 -6.11,5.82493 -5.24691,-0.30708 -22.0916,-5.07548 -29.99439,1.37321 -3.69118,3.10593 -5.19203,6.35866 -5.19203,19.92111 0,13.12497 1.18703,14.1846 4.53396,17.93046 5.10305,5.71131 18.20472,4.33872 31.21132,0.45742 1.95853,-0.58445 2.92976,0.013 4.0625,2.49913 0.81875,1.79696 1.48864,3.74216 1.48864,4.32266 0,3.85598 -25.14883,7.64522 -34.5747,5.20945 z"
         style="fill:#fc8d82;fill-opacity:1" />
    </g>
  </g>
</svg>
