<?xml version="1.0" encoding="UTF-8" standalone="no"?>
<!-- Created with Inkscape (http://www.inkscape.org/) -->

<svg
   xmlns:dc="http://purl.org/dc/elements/1.1/"
   xmlns:cc="http://creativecommons.org/ns#"
   xmlns:rdf="http://www.w3.org/1999/02/22-rdf-syntax-ns#"
   xmlns:svg="http://www.w3.org/2000/svg"
   xmlns="http://www.w3.org/2000/svg"
   xmlns:sodipodi="http://sodipodi.sourceforge.net/DTD/sodipodi-0.dtd"
   xmlns:inkscape="http://www.inkscape.org/namespaces/inkscape"
   width="744.09448819"
   height="1052.3622047"
   id="svg3844"
   version="1.1"
   inkscape:version="0.48.5 r10040"
   sodipodi:docname="New document 3">
  <defs
     id="defs3846" />
  <sodipodi:namedview
     id="base"
     pagecolor="#ffffff"
     bordercolor="#666666"
     borderopacity="1.0"
     inkscape:pageopacity="0.0"
     inkscape:pageshadow="2"
     inkscape:zoom="0.22845396"
     inkscape:cx="372.04724"
     inkscape:cy="526.18109"
     inkscape:document-units="px"
     inkscape:current-layer="layer1"
     showgrid="false"
     inkscape:window-width="1086"
     inkscape:window-height="886"
     inkscape:window-x="645"
     inkscape:window-y="151"
     inkscape:window-maximized="0" />
  <metadata
     id="metadata3849">
    <rdf:RDF>
      <cc:Work
         rdf:about="">
        <dc:format>image/svg+xml</dc:format>
        <dc:type
           rdf:resource="http://purl.org/dc/dcmitype/StillImage" />
        <dc:title></dc:title>
      </cc:Work>
    </rdf:RDF>
  </metadata>
  <g
     inkscape:label="Layer 1"
     inkscape:groupmode="layer"
     id="layer1">
    <path
       sodipodi:type="arc"
       style="fill:none;stroke:#000000;stroke-width:20;stroke-miterlimit:4;stroke-opacity:1;stroke-dasharray:none;stroke-dashoffset:0"
       id="path3852"
       sodipodi:cx="129.99768"
       sodipodi:cy="222.85316"
       sodipodi:rx="284.75684"
       sodipodi:ry="284.75684"
       d="m 414.75452,222.85316 a 284.75684,284.75684 0 1 1 -569.51368,0 284.75684,284.75684 0 1 1 569.51368,0 z"
       transform="translate(242.04956,303.32793)" />
    <path
       style="font-size:400px;font-style:normal;font-variant:normal;font-weight:normal;font-stretch:normal;text-align:start;line-height:125%;letter-spacing:0px;word-spacing:0px;writing-mode:lr-tb;text-anchor:start;fill:#000000;fill-opacity:1;stroke:none;font-family:Weibei TC;-inkscape-font-specification:Weibei TC"
       d="M 367.875 419.9375 L 335.4375 501.59375 L 349.6875 501.59375 L 369.25 446.75 L 386.90625 501.59375 L 410.21875 501.59375 L 382.09375 419.9375 L 367.875 419.9375 z M 327.8125 520.84375 L 319.8125 540.96875 C 315.61502 550.76288 312.12763 557.99002 309.5625 562.1875 C 306.99738 566.15179 303.49791 569.3989 300 571.03125 L 300 575.71875 L 336.15625 575.71875 L 336.15625 571.03125 C 329.16044 570.79806 327.97793 563.11661 332.875 549.125 L 342.96875 520.84375 L 327.8125 520.84375 z M 393.15625 520.84375 L 403.53125 551.4375 C 407.72873 563.33037 406.11844 570.33167 398.65625 571.03125 L 398.65625 575.71875 L 443.65625 575.71875 L 443.65625 571.03125 C 438.52599 568.46613 435.00499 565.19985 432.90625 561.46875 C 430.10793 557.03807 427.31749 551.45247 425.21875 545.15625 L 416.84375 520.84375 L 393.15625 520.84375 z "
       id="path3859" />
    <path
       inkscape:connector-curvature="0"
       id="path3863"
       style="font-size:400px;font-style:normal;font-variant:normal;font-weight:normal;font-stretch:normal;text-align:start;line-height:125%;letter-spacing:0px;word-spacing:0px;writing-mode:lr-tb;text-anchor:start;fill:#000000;fill-opacity:1;stroke:none;font-family:Weibei TC;-inkscape-font-specification:Weibei TC"
       d="m 462.16786,697.21847 0,-10.461 c 7.84575,-4.70744 15.16846,-13.59931 20.39895,-24.06031 4.1844,-9.93794 5.75355,-24.06031 5.75355,-41.844 l 0,-104.61002 -229.06928,0 0,104.61002 c 0,17.78369 2.0922,31.90606 6.2766,41.844 5.2305,10.461 12.03017,19.35287 20.39896,24.06031 l 0,10.461 -78.08697,0 0,-10.461 c 7.84575,-4.70744 15.16846,-13.59931 20.39895,-24.06031 4.1844,-9.93794 6.2766,-24.06031 6.2766,-41.844 l 0,-189.34414 c 0,-17.78367 -2.0922,-31.90605 -6.2766,-41.844 -5.23049,-10.46099 -12.5532,-19.35286 -20.39895,-24.58336 l 0,-9.93795 78.08697,0 0,9.93795 c -8.36879,5.2305 -15.16846,14.12237 -20.39896,24.58336 -4.1844,9.93795 -6.2766,24.06033 -6.2766,41.844 l 0,74.15076 229.06928,0 0,-74.15076 c 0,-17.78367 -1.56915,-31.90605 -5.75355,-41.844 -5.23049,-10.46099 -12.5532,-19.35286 -20.39895,-24.58336 l 0,-9.93795 80.08695,0 0,9.93795 c -8.36878,5.2305 -15.16844,14.12237 -20.39894,24.58336 -4.1844,9.93795 -6.2766,24.06033 -6.2766,41.844 l 0,189.34414 c 0,17.78369 2.0922,31.90606 6.2766,41.844 5.2305,10.461 12.03016,19.35287 20.39894,24.06031 l 0,10.461 -80.08695,0"
       sodipodi:nodetypes="cccsccsccccccssccccccsccsccccccsscccc" />
  </g>
</svg>
