<?xml version="1.0" encoding="UTF-8" standalone="no"?>
<!-- Created with Inkscape (http://www.inkscape.org/) -->

<svg
   xmlns:dc="http://purl.org/dc/elements/1.1/"
   xmlns:cc="http://creativecommons.org/ns#"
   xmlns:rdf="http://www.w3.org/1999/02/22-rdf-syntax-ns#"
   xmlns:svg="http://www.w3.org/2000/svg"
   xmlns="http://www.w3.org/2000/svg"
   xmlns:sodipodi="http://sodipodi.sourceforge.net/DTD/sodipodi-0.dtd"
   xmlns:inkscape="http://www.inkscape.org/namespaces/inkscape"
   width="300"
   height="300"
   id="svg9187"
   version="1.1"
   inkscape:version="0.48.5 r10040"
   sodipodi:docname="publication_illustration.svg">
  <defs
     id="defs9189">
    <marker
       inkscape:stockid="Arrow1Send"
       orient="auto"
       refY="0.0"
       refX="0.0"
       id="Arrow1Send"
       style="overflow:visible;">
      <path
         id="path9835"
         d="M 0.0,0.0 L 5.0,-5.0 L -12.5,0.0 L 5.0,5.0 L 0.0,0.0 z "
         style="fill-rule:evenodd;stroke:#000000;stroke-width:1.0pt;"
         transform="scale(0.2) rotate(180) translate(6,0)" />
    </marker>
  </defs>
  <sodipodi:namedview
     id="base"
     pagecolor="#ffffff"
     bordercolor="#666666"
     borderopacity="1.0"
     inkscape:pageopacity="0.0"
     inkscape:pageshadow="2"
     inkscape:zoom="1.1566667"
     inkscape:cx="50.360231"
     inkscape:cy="150"
     inkscape:document-units="px"
     inkscape:current-layer="layer1"
     showgrid="false"
     inkscape:window-width="1198"
     inkscape:window-height="900"
     inkscape:window-x="40"
     inkscape:window-y="41"
     inkscape:window-maximized="0" />
  <metadata
     id="metadata9192">
    <rdf:RDF>
      <cc:Work
         rdf:about="">
        <dc:format>image/svg+xml</dc:format>
        <dc:type
           rdf:resource="http://purl.org/dc/dcmitype/StillImage" />
        <dc:title></dc:title>
      </cc:Work>
    </rdf:RDF>
  </metadata>
  <g
     inkscape:label="Layer 1"
     inkscape:groupmode="layer"
     id="layer1"
     transform="translate(0,-752.36218)">
    <g
       id="g10451"
       transform="matrix(1.0455687,0,0,1.0455687,-4.5090211,-48.137964)">
      <path
         id="path9720"
         transform="translate(0,752.36218)"
         d="m 150,33.0625 c 13.02551,0 23.49001,7.074862 33.8125,13.84375 7.45743,4.890148 15.44129,2.854929 22.625,0.625 C 189.70519,38.295649 170.46381,33.0625 150,33.0625 z m 56.4375,14.46875 c 9.60854,5.303549 18.37829,11.938454 26.09375,19.625 -0.18578,-7.84786 -1.81381,-15.714911 -9.375,-21.0625 -4.09171,-2.893831 -10.05079,-0.632334 -16.71875,1.4375 z m 26.09375,19.625 c 0.21345,9.016642 -1.4729,18.030491 1.65625,23.15625 4.76784,7.810035 12.12908,5.703734 18.4375,3.5625 -5.40299,-9.858318 -12.19211,-18.846718 -20.09375,-26.71875 z M 252.625,93.875 c 2.62223,4.784531 4.90089,9.77594 6.84375,14.9375 4.54358,-4.28269 8.70827,-9.11377 4.1875,-15.46875 -1.97536,-2.776827 -6.19839,-1.109141 -11.03125,0.53125 z m 6.84375,14.9375 c -4.93867,4.6551 -10.33108,8.6539 -5.59375,13.1875 7.82462,7.48813 12.48036,14.86834 13.03125,25.78125 -0.25403,-13.69881 -2.86068,-26.80957 -7.4375,-38.96875 z M 266.9375,150 c 0,16.61805 -48.92963,-0.58888 -47.6875,23.65625 0.70128,13.68824 9.17335,34.00344 17.9375,54.25 18.49803,-20.6859 29.75,-47.97202 29.75,-77.90625 z m -29.75,77.90625 C 215.77224,251.85441 184.655,266.9375 150,266.9375 c 24.54476,0 84.50208,41.73282 103.3125,28.8125 10.76313,-7.39288 -3.00584,-37.53645 -16.125,-67.84375 z"
         style="fill:#f3eded;fill-opacity:1;stroke:none"
         inkscape:connector-curvature="0" />
      <path
         id="path9204"
         transform="translate(0,752.36218)"
         d="M 257.75,15.21875 C 224.41526,15.98915 172.37758,33.0625 150,33.0625 c 13.02551,0 23.49001,7.074862 33.8125,13.84375 14.37946,9.429214 30.84385,-6.82399 39.34375,-0.8125 16.24847,11.491594 5.17856,34.631659 11.03125,44.21875 8.42047,13.79327 24.91492,-3.370221 29.46875,3.03125 9.43465,13.26257 -18.87692,19.95174 -9.78125,28.65625 8.34626,7.98734 13.0625,15.83811 13.0625,28 0,-34.75246 40.19052,-107.454386 16.125,-128.875 -5.16537,-4.597673 -14.20092,-6.16305 -25.3125,-5.90625 z M 266.9375,150 c 0,16.61805 -48.92963,-0.58888 -47.6875,23.65625 0.56529,11.0339 6.18844,26.38892 12.9375,42.53125 -0.48174,-3.98719 -0.46878,-7.47834 0.5,-10.03125 4.757,-12.53559 35.32203,-6.24691 42.875,-14.59375 7.11374,-7.86145 -8.625,-30.37655 -8.625,-41.5625 z"
         style="fill:#e7f2f9;fill-opacity:1;stroke:none"
         inkscape:connector-curvature="0" />
      <path
         sodipodi:nodetypes="sssssss"
         inkscape:connector-curvature="0"
         id="path9195"
         d="m 171.61017,59.745762 c 0,64.589228 -52.35992,116.949148 -116.949152,116.949148 -64.5892317,0 -3.692666,-50.63081 -3.692666,-115.220041 0,-17.13269 20.787314,-50.817642 15.696423,-65.6591996 C 55.837495,-35.749278 17.356309,-44.775919 31.990044,-53.288128 c 4.425267,-2.574106 11.652146,-3.91526 22.670974,-3.91526 64.589232,0 116.949152,52.3599178 116.949152,116.94915 z"
         style="fill:none;stroke:#809aac;stroke-width:1;stroke-linecap:butt;stroke-linejoin:miter;stroke-miterlimit:4;stroke-opacity:1;stroke-dashoffset:0"
         transform="translate(95.338982,842.61642)" />
      <path
         sodipodi:nodetypes="ssssssss"
         inkscape:connector-curvature="0"
         transform="translate(95.338982,842.61642)"
         style="fill:none;stroke:#809aac;stroke-width:1;stroke-linecap:butt;stroke-linejoin:miter;stroke-miterlimit:4;stroke-opacity:1;stroke-dashoffset:0"
         d="m 171.61017,59.745762 c 0,16.618046 -48.93699,-0.585262 -47.69486,23.659869 1.75104,34.178309 52.00875,109.755569 34.0554,122.087199 -18.81042,12.92032 -78.764932,-28.79792 -103.309692,-28.79792 -64.5892317,0 -14.931859,-57.54724 -14.931859,-122.136467 0,-56.6599189 -41.0027933,-97.72534 -4.496274,-109.289231 5.108932,-1.618318 11.498819,-2.4726 19.428133,-2.4726 64.589232,0 116.949152,52.3599178 116.949152,116.94915 z"
         id="path9198" />
      <path
         sodipodi:nodetypes="sssssssssss"
         inkscape:connector-curvature="0"
         transform="translate(95.338982,842.61642)"
         style="fill:none;stroke:#809aac;stroke-width:1;stroke-linecap:butt;stroke-linejoin:miter;stroke-miterlimit:4;stroke-opacity:1;stroke-dashoffset:0"
         d="m 171.61017,59.745762 c 0,11.185948 15.73029,33.699699 8.61655,41.561148 -7.55297,8.34684 -38.10658,2.04712 -42.86358,14.58271 -4.61752,12.16806 12.2162,45.74506 3.07784,51.95181 -11.45081,7.77737 -41.305206,-14.32325 -53.913223,-9.20404 -13.574231,5.51153 -16.314075,18.05752 -31.866739,18.05752 -64.5892317,0 19.650274,-59.27635 19.650274,-123.865575 0,-54.4487414 -59.864762,-95.291572 -39.968292,-106.774095 3.705503,-2.138496 10.177527,-3.258628 20.318018,-3.258628 29.836768,0 112.395282,-30.325238 133.056762,-11.934545 24.06552,21.420614 -16.10761,94.131231 -16.10761,128.883695 z"
         id="path9200" />
      <path
         id="path9202"
         d="m 171.61017,59.745762 c 0,16.618046 -48.93699,-0.585262 -47.69486,23.659869 1.75104,34.178309 52.00875,109.755569 34.0554,122.087199 -18.81042,12.92032 -78.764932,-28.79792 -103.309692,-28.79792 -64.5892317,0 30.889467,-46.30805 30.889467,-110.897275 0,-22.062219 -84.66900005,-50.478562 -74.050151,-68.0877207 20.468834,-33.9433173 0.633671,-54.9133023 43.160684,-54.9133023 13.025506,0 23.474598,7.07131 33.797086,13.840198 14.379456,9.429214 30.869046,-6.796608 39.368946,-0.785118 16.24847,11.491594 5.1696,34.6096835 11.02229,44.19677486 8.42047,13.79327314 24.90331,-3.36647766 29.45714,3.03499354 9.43465,13.2625676 -18.87436,19.9572506 -9.77869,28.6617616 8.34626,7.987338 13.08238,15.838651 13.08238,28.00054 z"
         style="fill:none;stroke:#809aac;stroke-width:1;stroke-linecap:butt;stroke-linejoin:miter;stroke-miterlimit:4;stroke-opacity:1;stroke-dashoffset:0"
         transform="translate(95.338982,842.61642)"
         inkscape:connector-curvature="0"
         sodipodi:nodetypes="sssssssssssss" />
      <path
         transform="translate(64.841499,775.27284)"
         d="m 68.299711,127.08934 c 0,12.89195 -10.45099,23.34294 -23.342939,23.34294 -12.89195,0 -23.34294,-10.45099 -23.34294,-23.34294 0,-12.89195 10.45099,-23.34294 23.34294,-23.34294 12.891949,0 23.342939,10.45099 23.342939,23.34294 z"
         sodipodi:ry="23.342939"
         sodipodi:rx="23.342939"
         sodipodi:cy="127.08934"
         sodipodi:cx="44.956772"
         id="path9812"
         style="fill:#f3eded;fill-opacity:1;stroke:none"
         sodipodi:type="arc" />
      <g
         style="fill:#e7f2f9"
         id="g10442">
        <path
           id="path9814"
           transform="translate(0,752.36218)"
           d="m 66.8125,145.4375 2.5,2.5 -65,0 0,5 65,0 -2.5,2.5 8.75,-2.5 2.25,0 0,-0.65625 6.5,-1.84375 -6.5,-1.84375 0,-0.65625 -2.25,0 -8.75,-2.5 z"
           style="font-size:medium;font-style:normal;font-variant:normal;font-weight:normal;font-stretch:normal;text-indent:0;text-align:start;text-decoration:none;line-height:normal;letter-spacing:normal;word-spacing:normal;text-transform:none;direction:ltr;block-progression:tb;writing-mode:lr-tb;text-anchor:start;baseline-shift:baseline;color:#000000;fill:#e7f2f9;fill-opacity:1;stroke:none;stroke-width:5;marker:none;visibility:visible;display:inline;overflow:visible;enable-background:accumulate;font-family:Sans;-inkscape-font-specification:Sans"
           inkscape:connector-curvature="0" />
      </g>
    </g>
  </g>
</svg>
