<?xml version="1.0" encoding="UTF-8" standalone="no"?>
<!-- Created with Inkscape (http://www.inkscape.org/) -->

<svg
   xmlns:dc="http://purl.org/dc/elements/1.1/"
   xmlns:cc="http://creativecommons.org/ns#"
   xmlns:rdf="http://www.w3.org/1999/02/22-rdf-syntax-ns#"
   xmlns:svg="http://www.w3.org/2000/svg"
   xmlns="http://www.w3.org/2000/svg"
   xmlns:sodipodi="http://sodipodi.sourceforge.net/DTD/sodipodi-0.dtd"
   xmlns:inkscape="http://www.inkscape.org/namespaces/inkscape"
   width="50"
   height="50"
   id="svg3422"
   version="1.1"
   inkscape:version="0.48.5 r10040"
   sodipodi:docname="python.svg"
   inkscape:export-filename="/Users/ahagen/code/alexhagen.github.io/assets/img/python.png"
   inkscape:export-xdpi="90"
   inkscape:export-ydpi="90">
  <defs
     id="defs3424" />
  <sodipodi:namedview
     id="base"
     pagecolor="#ffffff"
     bordercolor="#666666"
     borderopacity="1.0"
     inkscape:pageopacity="0.0"
     inkscape:pageshadow="2"
     inkscape:zoom="3.6981685"
     inkscape:cx="24.729596"
     inkscape:cy="25"
     inkscape:document-units="px"
     inkscape:current-layer="layer1"
     showgrid="false"
     inkscape:window-width="1014"
     inkscape:window-height="729"
     inkscape:window-x="20"
     inkscape:window-y="20"
     inkscape:window-maximized="0" />
  <metadata
     id="metadata3427">
    <rdf:RDF>
      <cc:Work
         rdf:about="">
        <dc:format>image/svg+xml</dc:format>
        <dc:type
           rdf:resource="http://purl.org/dc/dcmitype/StillImage" />
        <dc:title></dc:title>
      </cc:Work>
    </rdf:RDF>
  </metadata>
  <g
     inkscape:label="Layer 1"
     inkscape:groupmode="layer"
     id="layer1"
     transform="translate(0,-1002.3622)">
    <g
       id="g4287"
       transform="matrix(0.29955501,0,0,0.29955501,13.767051,717.50216)">
      <path
         style="fill:#142735;fill-opacity:1"
         d="m -3.920751,1057.0591 c -6.235464,-3.4509 -10.261295,-18.3709 -8.035236,-29.7791 1.500315,-7.6889 4.623297,-13.5236 8.239258,-15.3935 2.048469,-1.0593 7.387478,-1.4019 21.844093,-1.4019 14.860295,0 19.040638,-0.2792 18.71943,-1.25 -0.283084,-0.8557 -3.858751,-1.4078 -11.333333,-1.75 l -10.91977,-0.5 -0.292957,-6.6302 c -0.276468,-6.2569 -0.118624,-6.80441 2.804311,-9.72735 8.177538,-8.17754 32.28265,-8.27511 40.963683,-0.16581 l 3.163525,2.95518 -0.319281,16.11338 -0.319281,16.1134 -3.556037,3.2564 -3.556037,3.2564 -16.288666,0.6412 c -22.464511,0.8844 -25.049221,2.5897 -26.050516,17.1874 l -0.548744,8 -6,0.233 c -3.66979,0.1425 -6.97653,-0.3074 -8.514442,-1.1585 z m 31.443013,-57.14597 c 2.002245,-2.00224 1.982631,-3.31672 -0.08356,-5.59983 -2.960968,-3.27183 -7.345011,-1.67743 -7.345011,2.67126 0,4.21114 4.408157,5.94894 7.428571,2.92857 z"
         id="path3510"
         inkscape:connector-curvature="0" />
      <path
         sodipodi:nodetypes="cccssscscsssssssscccscsc"
         style="fill:#919789;fill-opacity:1"
         d="m 24.742707,1082.745 c -2.668041,-0.889 -6.155541,-2.9208 -7.75,-4.5153 l -2.899016,-2.899 0,-16.2867 c 0,-16.2599 0.0043,-16.291 2.633866,-18.9206 3.630735,-3.6307 9.174743,-4.8828 20.346986,-4.5952 15.70694,0.4042 16.596485,0.2664 20.522565,-3.1808 4.998621,-4.3888 5.8979,-6.3811 6.48324,-14.3628 l 0.513343,-7 5.705712,-0.2986 c 8.027978,-0.4201 11.301868,1.5099 14.621858,8.6197 2.28445,4.8922 2.6518,6.9949 2.6518,15.1789 0,8.184 -0.36735,10.2866 -2.6518,15.1788 -3.96713,8.4957 -4.99194,8.8212 -27.77791,8.8212 -16.266364,0 -19.04966,0.2191 -19.04966,1.5 0,1.2421 1.88498,1.5 10.964816,1.5 12.910312,0 13.692874,0.5825 12.493769,9.3011 -0.871503,6.3366 -4.411495,10.0135 -11.73433,12.1881 -6.556474,1.9471 -18.881926,1.8346 -25.075239,-0.2288 z m 28.754824,-7.5665 c 3.749767,-2.7419 -0.236343,-9.5424 -4.15384,-7.0867 -2.463435,1.5442 -2.828114,5.4969 -0.65384,7.0867 0.982355,0.7184 2.064083,1.3061 2.40384,1.3061 0.339757,0 1.421485,-0.5877 2.40384,-1.3061 z"
         id="path3512"
         inkscape:connector-curvature="0" />
    </g>
  </g>
</svg>
