<?xml version="1.0" encoding="UTF-8" standalone="no"?>
<!-- Created with Inkscape (http://www.inkscape.org/) -->

<svg
   xmlns:dc="http://purl.org/dc/elements/1.1/"
   xmlns:cc="http://creativecommons.org/ns#"
   xmlns:rdf="http://www.w3.org/1999/02/22-rdf-syntax-ns#"
   xmlns:svg="http://www.w3.org/2000/svg"
   xmlns="http://www.w3.org/2000/svg"
   xmlns:sodipodi="http://sodipodi.sourceforge.net/DTD/sodipodi-0.dtd"
   xmlns:inkscape="http://www.inkscape.org/namespaces/inkscape"
   width="300"
   height="300"
   viewBox="0 0 300.00001 300.00001"
   id="svg10265"
   version="1.1"
   inkscape:version="0.91 r13725"
   sodipodi:docname="simulation_illustration.svg">
  <defs
     id="defs10267" />
  <sodipodi:namedview
     id="base"
     pagecolor="#ffffff"
     bordercolor="#666666"
     borderopacity="1.0"
     inkscape:pageopacity="0.0"
     inkscape:pageshadow="2"
     inkscape:zoom="2.6866667"
     inkscape:cx="150"
     inkscape:cy="150"
     inkscape:document-units="px"
     inkscape:current-layer="layer1"
     showgrid="false"
     units="px"
     inkscape:window-width="1920"
     inkscape:window-height="1019"
     inkscape:window-x="1920"
     inkscape:window-y="29"
     inkscape:window-maximized="1" />
  <metadata
     id="metadata10270">
    <rdf:RDF>
      <cc:Work
         rdf:about="">
        <dc:format>image/svg+xml</dc:format>
        <dc:type
           rdf:resource="http://purl.org/dc/dcmitype/StillImage" />
        <dc:title></dc:title>
      </cc:Work>
    </rdf:RDF>
  </metadata>
  <g
     inkscape:label="Layer 1"
     inkscape:groupmode="layer"
     id="layer1"
     transform="translate(0,-752.36208)">
    <path
       id="path8813"
       d="m 0,1042.8215 0,9.5405 34.0768,0 L 0,1042.8215 Z"
       style="fill:#afcce1;fill-opacity:1;stroke:none"
       inkscape:connector-curvature="0" />
    <path
       id="line468"
       d="m 294.3166,759.47756 3.9978,27.05807 0,-23.48436 -3.9978,-3.57371 z"
       style="font-size:0.04539275px;fill:#e9f1f7;fill-opacity:1;stroke:none"
       inkscape:connector-curvature="0" />
    <path
       id="line550"
       d="m 298.3144,913.65752 -33.2835,15.92214 33.2835,3.28656 0,-19.20866 z"
       style="font-size:0.04539275px;fill:#ccdeec;fill-opacity:1;stroke:none"
       inkscape:connector-curvature="0" />
    <path
       id="line8288"
       d="m 265.0309,929.57966 33.2835,55.00957 0,-51.72303 -33.2835,-3.28656 z"
       style="font-size:0.04539275px;fill:#e9f1f7;fill-opacity:1;stroke:none"
       inkscape:connector-curvature="0" />
    <path
       id="line8280"
       d="m 265.0309,929.57966 -64.6951,122.78234 21.1314,0 76.8472,-30.3126 0,-37.46015 -33.2835,-55.00957 z"
       style="font-size:0.04539275px;fill:#ffffff;fill-opacity:1;stroke:none"
       inkscape:connector-curvature="0" />
    <path
       id="line8270"
       d="m 298.3144,1022.0493 -76.8472,30.3127 76.8472,0 0,-30.3127 z"
       style="font-size:0.04539275px;fill:#e9f1f7;fill-opacity:1;stroke:none"
       inkscape:connector-curvature="0" />
    <path
       id="line8258"
       d="m 298.3144,804.24464 -33.2835,125.33502 33.2835,-15.92213 0,-109.41289 z"
       style="font-size:0.04539275px;fill:#e9f1f7;fill-opacity:1;stroke:none"
       inkscape:connector-curvature="0" />
    <path
       sodipodi:nodetypes="cccc"
       inkscape:connector-curvature="0"
       d="m 199.2097,891.80785 65.8348,37.77007 34.9554,-131.64922 z"
       style="font-size:0.04539275px;fill:#ffffff;fill-opacity:1;stroke:none"
       id="line8248" />
    <path
       sodipodi:nodetypes="cccc"
       inkscape:connector-curvature="0"
       d="M 294.3323,759.46902 300,797.92864 199.2098,891.80777 Z"
       style="font-size:0.04539275px;fill:#ffffff;fill-opacity:1;stroke:none"
       id="line8238" />
    <path
       id="line8228"
       d="m 199.2253,891.80047 -4.1564,160.56153 5.2669,0 64.6951,-122.78234 -65.8056,-37.77919 z"
       style="font-size:0.04539275px;fill:#f8fafc;fill-opacity:1;stroke:none"
       inkscape:connector-curvature="0" />
    <path
       id="line8218"
       d="m 97.4392,752.36205 101.7861,139.43842 95.123,-132.32291 -71.1677,-7.11544 -125.7414,0 z"
       style="font-size:0.04539275px;fill:#f8fafc;fill-opacity:1;stroke:none"
       inkscape:connector-curvature="0" />
    <path
       id="line8208"
       d="M 0.1587,752.36205 0,752.71306 l 0,37.20484 64.3143,-37.55585 -64.1556,0 z"
       style="font-size:0.04539275px;fill:#ccdeec;fill-opacity:1;stroke:none"
       inkscape:connector-curvature="0" />
    <path
       id="path8199"
       d="M 0,840.39652 0,930.63263 57.3975,927.31409 0,840.39641 Z"
       style="font-size:0.04539275px;fill:#bed5e6;fill-opacity:1;stroke:none"
       inkscape:connector-curvature="0" />
    <path
       id="line8189"
       d="m 199.2253,891.80047 -78.1481,14.48629 68.7564,146.07534 5.2352,0 4.1565,-160.56162 z"
       style="font-size:0.04539275px;fill:#e9f1f7;fill-opacity:1;stroke:none"
       inkscape:connector-curvature="0" />
    <path
       id="line8179"
       d="M 57.3975,927.31419 0,930.63274 l 0,40.97 57.3975,-44.28844 z"
       style="font-size:0.04539275px;fill:#afcbe1;fill-opacity:1;stroke:none"
       inkscape:connector-curvature="0" />
    <path
       id="line8169"
       d="M 57.3975,927.31419 0,971.60264 l 0,71.41036 33.7912,9.3491 69.264,0 -45.6577,-125.0479 z"
       style="font-size:0.04539275px;fill:#bed5e6;fill-opacity:1;stroke:none"
       inkscape:connector-curvature="0" />
    <path
       id="path8160"
       d="m 121.0772,906.28675 -63.6797,21.02743 45.6577,125.04782 9.0745,0 8.9475,-146.07526 z"
       style="font-size:0.04539275px;fill:#ccdeec;fill-opacity:1;stroke:none"
       inkscape:connector-curvature="0" />
    <path
       id="path8143"
       d="M 64.3143,752.36205 0,789.9179 l 0,30.98279 121.0772,85.38608 -30.8087,-153.92472 -25.9542,0 z"
       style="font-size:0.04539275px;fill:#dbe8f1;fill-opacity:1;stroke:none"
       inkscape:connector-curvature="0" />
    <path
       id="line8133"
       d="m 90.2685,752.36205 30.8087,153.9247 78.1481,-14.48629 -101.786,-139.43841 -7.1707,0 z"
       style="font-size:0.04539275px;fill:#e9f1f7;fill-opacity:1;stroke:none"
       inkscape:connector-curvature="0" />
    <path
       id="line8119"
       d="m 121.0772,906.28675 -8.9475,146.07525 77.7039,0 -68.7564,-146.07525 z"
       style="font-size:0.04539275px;fill:#dbe8f1;fill-opacity:1;stroke:none"
       inkscape:connector-curvature="0" />
    <path
       id="path8113"
       d="m 0,820.90067 0,19.49584 57.3975,86.91768 63.6797,-21.02743 L 0,820.90067 Z"
       style="font-size:0.04539275px;fill:#ccdeec;fill-opacity:1;stroke:none"
       inkscape:connector-curvature="0" />
    <ellipse
       ry="3.508786"
       rx="3.4890721"
       transform="scale(1,-1)"
       cx="294.33231"
       cy="-759.46899"
       id="circle44"
       style="font-size:0.04539275px;fill:#bdc9d3;fill-opacity:1;stroke:none" />
    <path
       inkscape:connector-curvature="0"
       id="circle24"
       d="m 61.3665,927.32141 c 0,-2.20721 -1.7786,-3.99617 -3.9737,-3.99617 -2.1948,0 -3.9737,1.78896 -3.9737,3.99617 0,2.20721 1.7785,3.99617 3.9737,3.99617 2.1948,0 3.9737,-1.78896 3.9737,-3.99617 z"
       style="font-size:0.04539275px;fill:#bdc9d3;fill-opacity:1;stroke:none" />
    <path
       inkscape:connector-curvature="0"
       id="circle42"
       d="m 202.2139,891.80779 c 0,-1.66876 -1.3455,-3.0212 -3.0056,-3.0212 -1.6601,0 -3.0057,1.35244 -3.0057,3.0212 0,1.66876 1.3456,3.02121 3.0057,3.02121 1.6601,0 3.0056,-1.35245 3.0056,-3.02121 z"
       style="font-size:0.04539275px;fill:#bdc9d3;fill-opacity:1;stroke:none" />
    <path
       inkscape:connector-curvature="0"
       id="circle76"
       d="m 268.5335,929.57793 c 0,-1.93798 -1.5622,-3.50869 -3.4879,-3.50869 -1.9257,0 -3.488,1.57071 -3.488,3.50869 0,1.93799 1.5623,3.50869 3.488,3.50869 1.9257,0 3.4879,-1.5707 3.4879,-3.50869 z"
       style="font-size:0.04539275px;fill:#bdc9d3;fill-opacity:1;stroke:none" />
    <path
       inkscape:connector-curvature="0"
       id="circle110"
       d="m 125.0437,906.29322 c 0,-2.2072 -1.7785,-3.99617 -3.9737,-3.99617 -2.1948,0 -3.9737,1.78897 -3.9737,3.99617 0,2.20721 1.7786,3.99618 3.9737,3.99618 2.1948,0 3.9737,-1.78897 3.9737,-3.99618 z"
       style="font-size:0.04539275px;fill:#bdc9d3;fill-opacity:1;stroke:none" />
    <path
       id="circle190"
       d="m 298.3144,794.89556 c -1.0659,0.60031 -1.8068,1.71481 -1.8068,3.0314 0,1.31624 0.7444,2.43109 1.8068,3.0314 l 0,-6.06255 z"
       style="font-size:0.04539275px;fill:#bdc9d3;fill-opacity:1;stroke:none"
       inkscape:connector-curvature="0" />
    <path
       inkscape:connector-curvature="0"
       id="path8945"
       d="m 46.1359,753.95574 c -11.9454,31.07912 -8.3618,65.74425 0,103.99549 8.3617,38.25124 33.447,41.83729 44.1978,60.96291 10.7508,19.12561 14.3345,53.7908 26.2798,74.11177 11.9454,20.32099 33.4471,58.57219 33.4471,58.57219"
       style="fill:none;stroke:#efc5bf;stroke-width:1.52355468;stroke-linecap:butt;stroke-linejoin:miter;stroke-miterlimit:4;stroke-dasharray:none;stroke-opacity:1" />
    <path
       sodipodi:nodetypes="csssscc"
       inkscape:connector-curvature="0"
       id="path8947"
       d="m 166.1583,753.12786 c -17.9175,38.43984 -27.3119,46.88316 -26.2789,62.46478 2.3891,36.03737 23.3616,69.61479 27.4734,84.08723 7.167,25.22616 19.8628,59.25763 26.279,66.06854 21.5009,22.82367 27.5749,12.38027 41.8074,18.01871 39.4183,15.61621 50.1688,-20.42119 50.1688,-20.42119 l 11.9449,-13.2137"
       style="fill:none;stroke:#efc5bf;stroke-width:1.52728033;stroke-linecap:butt;stroke-linejoin:miter;stroke-miterlimit:4;stroke-dasharray:none;stroke-opacity:1" />
    <path
       inkscape:connector-curvature="0"
       id="path8949"
       d="m 234.2447,753.12786 c -4.778,51.65356 -2.3892,68.47101 4.7779,80.48347 7.167,12.01246 28.668,36.03738 40.6129,39.64113 11.945,3.60373 17.9174,6.00625 17.9174,6.00625"
       style="fill:none;stroke:#efc5bf;stroke-width:1.52728033;stroke-linecap:butt;stroke-linejoin:miter;stroke-miterlimit:4;stroke-dasharray:none;stroke-opacity:1" />
  </g>
</svg>
