<?xml version="1.0" encoding="UTF-8" standalone="no"?>
<!-- Created with Inkscape (http://www.inkscape.org/) -->

<svg
   xmlns:dc="http://purl.org/dc/elements/1.1/"
   xmlns:cc="http://creativecommons.org/ns#"
   xmlns:rdf="http://www.w3.org/1999/02/22-rdf-syntax-ns#"
   xmlns:svg="http://www.w3.org/2000/svg"
   xmlns="http://www.w3.org/2000/svg"
   xmlns:sodipodi="http://sodipodi.sourceforge.net/DTD/sodipodi-0.dtd"
   xmlns:inkscape="http://www.inkscape.org/namespaces/inkscape"
   width="200"
   height="200"
   viewBox="0 0 200.00001 200"
   id="svg7093"
   version="1.1"
   inkscape:version="0.91 r13725"
   sodipodi:docname="title_bar.svg">
  <defs
     id="defs7095" />
  <sodipodi:namedview
     id="base"
     pagecolor="#ffffff"
     bordercolor="#666666"
     borderopacity="1.0"
     inkscape:pageopacity="0.0"
     inkscape:pageshadow="2"
     inkscape:zoom="0.33325"
     inkscape:cx="2000"
     inkscape:cy="100"
     inkscape:document-units="px"
     inkscape:current-layer="layer1"
     showgrid="false"
     units="px"
     inkscape:window-width="1920"
     inkscape:window-height="1019"
     inkscape:window-x="1920"
     inkscape:window-y="29"
     inkscape:window-maximized="1" />
  <metadata
     id="metadata7098">
    <rdf:RDF>
      <cc:Work
         rdf:about="">
        <dc:format>image/svg+xml</dc:format>
        <dc:type
           rdf:resource="http://purl.org/dc/dcmitype/StillImage" />
        <dc:title></dc:title>
      </cc:Work>
    </rdf:RDF>
  </metadata>
  <g
     inkscape:label="Layer 1"
     inkscape:groupmode="layer"
     id="layer1"
     transform="translate(0,-852.362)">
    <g
       id="g4277"
       transform="translate(-1904.1567,0)">
      <path
         inkscape:connector-curvature="0"
         id="path3818"
         d="m 1996.6855,860.81623 c -50.517,1.82929 -90.0558,44.33854 -88.2265,94.85547 1.8293,50.5169 44.3384,90.0656 94.8554,88.2363 50.517,-1.8293 90.056,-44.34827 88.2266,-94.86521 -1.8292,-50.51695 -44.3385,-90.05582 -94.8555,-88.22656 z m 0.027,0.80273 c 50.0823,-1.81352 92.2121,37.3709 94.0255,87.45313 1.8136,50.08222 -37.371,92.21961 -87.4532,94.03321 -50.0822,1.8135 -92.2098,-37.3807 -94.0234,-87.4629 -1.8136,-50.08221 37.3688,-92.20989 87.4511,-94.02344 z"
         style="color:#000000;font-style:normal;font-variant:normal;font-weight:normal;font-stretch:normal;font-size:400px;line-height:125%;font-family:'Weibei TC';-inkscape-font-specification:'Weibei TC';text-indent:0;text-align:start;text-decoration:none;text-decoration-line:none;text-decoration-style:solid;text-decoration-color:#000000;letter-spacing:0px;word-spacing:0px;text-transform:none;direction:ltr;block-progression:tb;writing-mode:lr-tb;baseline-shift:baseline;text-anchor:start;white-space:normal;clip-rule:nonzero;display:inline;overflow:visible;visibility:visible;opacity:1;isolation:auto;mix-blend-mode:normal;color-interpolation:sRGB;color-interpolation-filters:linearRGB;solid-color:#000000;solid-opacity:1;fill:#f2f2f2;fill-opacity:1;fill-rule:nonzero;stroke:none;stroke-width:0.80364048;stroke-linecap:butt;stroke-linejoin:miter;stroke-miterlimit:4;stroke-dasharray:none;stroke-dashoffset:0;stroke-opacity:1;color-rendering:auto;image-rendering:auto;shape-rendering:auto;text-rendering:auto;enable-background:accumulate" />
      <path
         inkscape:connector-curvature="0"
         id="path3806"
         d="m 2002.1074,874.44318 c -42.9969,-1.16314 -78.8583,32.81764 -80.0215,75.81445 -1.1631,42.99681 32.8099,78.86027 75.8067,80.02347 42.9969,1.1631 78.8583,-32.80988 80.0215,-75.80667 1.1631,-42.9968 -32.8098,-78.8681 -75.8067,-80.03125 z m -0.018,0.68359 c 42.6268,1.15314 76.2938,36.70133 75.1407,79.32813 -1.1532,42.62679 -36.6935,76.2957 -79.3204,75.1426 -42.6267,-1.1532 -76.2937,-36.69354 -75.1406,-79.32034 1.1531,-42.6268 36.6935,-76.30351 79.3203,-75.15039 z"
         style="color:#000000;font-style:normal;font-variant:normal;font-weight:normal;font-stretch:normal;font-size:400px;line-height:125%;font-family:'Weibei TC';-inkscape-font-specification:'Weibei TC';text-indent:0;text-align:start;text-decoration:none;text-decoration-line:none;text-decoration-style:solid;text-decoration-color:#000000;letter-spacing:0px;word-spacing:0px;text-transform:none;direction:ltr;block-progression:tb;writing-mode:lr-tb;baseline-shift:baseline;text-anchor:start;white-space:normal;clip-rule:nonzero;display:inline;overflow:visible;visibility:visible;opacity:1;isolation:auto;mix-blend-mode:normal;color-interpolation:sRGB;color-interpolation-filters:linearRGB;solid-color:#000000;solid-opacity:1;fill:#f2f2f2;fill-opacity:1;fill-rule:nonzero;stroke:none;stroke-width:0.6838097;stroke-linecap:butt;stroke-linejoin:miter;stroke-miterlimit:4;stroke-dasharray:none;stroke-dashoffset:0;stroke-opacity:1;color-rendering:auto;image-rendering:auto;shape-rendering:auto;text-rendering:auto;enable-background:accumulate" />
      <g
         transform="matrix(0.46113623,0,0,0.46113623,1557.8741,771.42841)"
         id="g3871">
        <path
           style="font-style:normal;font-variant:normal;font-weight:normal;font-stretch:normal;font-size:400px;line-height:125%;font-family:'Weibei TC';-inkscape-font-specification:'Weibei TC';text-align:start;letter-spacing:0px;word-spacing:0px;writing-mode:lr-tb;text-anchor:start;fill:#142735;fill-opacity:1;stroke:none"
           d="m 1004.3977,477.46474 0,-5.20514 c 3.9039,-2.34236 7.5475,-6.76674 10.1501,-11.97194 2.0821,-4.94491 2.863,-11.97193 2.863,-20.82073 l 0,-52.05186 -113.98036,0 0,52.05186 c 0,8.8488 1.04101,15.87582 3.12307,20.82073 2.6026,5.2052 5.98597,9.62958 10.1501,11.97194 l 0,5.20514 -38.85448,0 0,-5.20514 c 3.90389,-2.34236 7.5475,-6.76674 10.15009,-11.97194 2.08208,-4.94491 3.12313,-11.97193 3.12313,-20.82073 l 0,-94.21381 c 0,-8.8488 -1.04105,-15.87582 -3.12313,-20.82072 -2.60259,-5.20521 -6.2462,-9.62963 -10.15009,-12.23223 l 0,-4.9449 38.85448,0 0,4.9449 c -4.16413,2.6026 -7.5475,7.02702 -10.1501,12.23223 -2.08206,4.9449 -3.12307,11.97192 -3.12307,20.82072 l 0,36.89591 113.98036,0 0,-36.89591 c 0,-8.8488 -0.7809,-15.87582 -2.863,-20.82072 -2.6026,-5.20521 -6.2462,-9.62963 -10.1501,-12.23223 l 0,-4.9449 39.8497,0 0,4.9449 c -4.164,2.6026 -7.5475,7.02702 -10.15,12.23223 -2.0823,4.9449 -3.1233,11.97192 -3.1233,20.82072 l 0,94.21381 c 0,8.8488 1.041,15.87582 3.1233,20.82073 2.6025,5.2052 5.986,9.62958 10.15,11.97194 l 0,5.20514 -39.8497,0"
           id="path3841"
           inkscape:connector-curvature="0" />
        <path
           style="font-style:normal;font-variant:normal;font-weight:normal;font-stretch:normal;font-size:400px;line-height:125%;font-family:'Weibei TC';-inkscape-font-specification:'Weibei TC';text-align:start;letter-spacing:0px;word-spacing:0px;writing-mode:lr-tb;text-anchor:start;fill:#142735;fill-opacity:1;stroke:none"
           d="m 957.47948,339.49536 -16.14024,40.63049 7.09052,0 9.73393,-27.28914 8.78538,27.28914 11.59982,0 -13.99446,-40.63049 -7.07495,0 z"
           id="path3839"
           inkscape:connector-curvature="0" />
        <path
           style="font-style:normal;font-variant:normal;font-weight:normal;font-stretch:normal;font-size:400px;line-height:125%;font-family:'Weibei TC';-inkscape-font-specification:'Weibei TC';text-align:start;letter-spacing:0px;word-spacing:0px;writing-mode:lr-tb;text-anchor:start;fill:#142735;fill-opacity:1;stroke:none"
           d="m 937.54518,389.70428 -3.98064,10.01376 c -2.08859,4.8734 -3.82382,8.46949 -5.10019,10.55805 -1.27637,1.97255 -3.0176,3.58823 -4.75811,4.40044 l 0,2.33245 17.99063,0 0,-2.33245 c -3.48099,-0.1161 -4.06939,-3.93815 -1.6327,-10.90006 l 5.02246,-14.07219 -7.54145,0 z"
           id="path3837"
           inkscape:connector-curvature="0" />
        <path
           style="font-style:normal;font-variant:normal;font-weight:normal;font-stretch:normal;font-size:400px;line-height:125%;font-family:'Weibei TC';-inkscape-font-specification:'Weibei TC';text-align:start;letter-spacing:0px;word-spacing:0px;writing-mode:lr-tb;text-anchor:start;fill:#142735;fill-opacity:1;stroke:none"
           d="m 970.05894,389.70428 5.16239,15.22283 c 2.08856,5.91762 1.28732,9.40136 -2.42569,9.74942 l 0,2.33245 22.39108,0 0,-2.33245 c -2.55275,-1.27636 -4.3047,-2.90155 -5.34899,-4.75811 -1.3924,-2.20463 -2.78082,-4.98385 -3.8251,-8.11673 l -4.16725,-12.09741 -11.78644,0 z"
           id="path3835"
           inkscape:connector-curvature="0" />
      </g>
      <g
         id="text3808"
         style="font-style:normal;font-variant:normal;font-weight:normal;font-stretch:normal;font-size:28px;line-height:75%;font-family:'Baron Neue';-inkscape-font-specification:'Baron Neue';text-align:center;letter-spacing:4px;word-spacing:0px;writing-mode:lr-tb;text-anchor:middle;fill:#142735;fill-opacity:1;stroke:none"
         transform="translate(1040,559.99982)">
        <path
           id="path6968"
           d="m 888.74216,361.30434 1.22941,-3.30686 -21.62837,0.32337 16.17407,14.34755 1.22942,-3.30686 -1.83313,-1.57769 2.40029,-6.45625 2.42831,-0.0233 z m -12.65671,-0.10511 7.20688,0.14019 -1.65873,4.46164 -5.54815,-4.60183 z"
           inkscape:connector-curvature="0" />
        <path
           id="path6970"
           d="m 892.31851,348.06687 -13.47626,-9.21213 -1.84875,2.70449 16.18076,11.06088 5.94128,-8.69138 -2.7045,-1.84874 -4.09253,5.98688 z"
           inkscape:connector-curvature="0" />
        <path
           id="path6972"
           d="m 903.07057,317.34123 -2.171,-2.45335 -9.79245,8.66543 12.98887,14.67819 9.79245,-8.66543 -2.171,-2.45336 -7.33909,6.49444 -3.24722,-3.66955 6.10194,-5.39966 -2.15245,-2.43238 -6.10193,5.39966 -3.24722,-3.66955 7.3391,-6.49444 z"
           inkscape:connector-curvature="0" />
        <path
           id="path6974"
           d="m 918.51891,326.17313 3.61224,-1.72734 1.50179,-8.47731 7.51619,4.16499 3.61224,-1.72735 -10.54288,-5.82132 2.08735,-11.86099 -3.61224,1.72735 -1.47653,8.46523 -7.54145,-4.15291 -3.61224,1.72734 10.54287,5.82132 -2.08734,11.86099 z"
           inkscape:connector-curvature="0" />
        <path
           id="path6976"
           d="m 966.82394,295.31077 -0.22808,8.11679 -8.14479,-0.22887 0.22809,-8.1168 -3.27471,-0.092 -0.55055,19.59227 3.2747,0.092 0.22966,-8.17277 8.14479,0.22887 -0.22966,8.17277 3.27471,0.092 0.55055,-19.59226 -3.27471,-0.092 z"
           inkscape:connector-curvature="0" />
        <path
           id="path6978"
           d="m 987.34546,319.59224 3.36621,1.05614 -1.44536,-21.58245 -13.48884,16.89687 3.3662,1.05614 1.48043,-1.91253 6.57212,2.062 0.14924,2.42383 z m -0.55187,-12.64511 0.23401,7.20445 -4.54171,-1.42495 4.3077,-5.7795 z"
           inkscape:connector-curvature="0" />
        <path
           id="path6980"
           d="m 1011.6525,320.16993 -1.7474,2.5703 2.7092,1.8418 -1.5899,2.33874 c -1.7671,0.45773 -3.675,0.1764 -5.2959,-0.92553 -2.9871,-2.03071 -4.2619,-5.33509 -1.57,-9.29473 2.4085,-3.54284 6.2335,-3.9897 9.2206,-1.95899 1.482,1.00748 2.4389,2.5383 2.7503,4.17201 l 3.1896,-0.60794 c -0.4514,-2.47371 -1.852,-4.74634 -4.0981,-6.2733 -4.4691,-3.0382 -10.4973,-1.99 -13.7716,2.82641 -3.60493,5.30268 -2.26322,10.65016 2.0901,13.60964 1.9219,1.30658 3.6029,1.77224 5.7571,1.44227 l -0.9,1.62274 2.3619,1.60567 6.3125,-9.28548 -5.4184,-3.68361 z"
           inkscape:connector-curvature="0" />
        <path
           id="path6982"
           d="m 1037.5794,338.96824 2.551,-2.05537 -8.2039,-10.1822 -15.2624,12.29713 8.2039,10.18219 2.551,-2.05537 -6.1486,-7.6312 3.8156,-3.07428 5.1121,6.34479 2.5292,-2.03781 -5.1121,-6.34479 3.8156,-3.07428 6.1486,7.63119 z"
           inkscape:connector-curvature="0" />
        <path
           id="path6984"
           d="m 1053.1184,363.27456 -1.2258,-3.00778 -12.9128,5.2627 9.2247,-14.312 -1.247,-3.05965 -18.1505,7.39738 1.2364,3.03372 12.9128,-5.26271 -9.2352,14.28608 1.247,3.05964 18.1504,-7.39738 z"
           inkscape:connector-curvature="0" />
      </g>
      <g
         id="text3820"
         style="font-style:normal;font-variant:normal;font-weight:normal;font-stretch:normal;font-size:14px;line-height:75%;font-family:'Baron Neue';-inkscape-font-specification:'Baron Neue';text-align:center;letter-spacing:4px;word-spacing:0px;writing-mode:lr-tb;text-anchor:middle;fill:#142735;fill-opacity:1;stroke:none"
         transform="translate(1040,559.99982)">
        <path
           id="path6987"
           style="font-style:normal;font-variant:normal;font-weight:normal;font-stretch:normal;font-size:14px;line-height:75%;font-family:'Baron Neue';-inkscape-font-specification:'Baron Neue';text-align:center;writing-mode:lr-tb;text-anchor:middle"
           d="m 880.82629,425.01455 -1.3337,0.54827 0.99009,2.40843 -1.41139,0.58022 c -0.86337,-0.29596 -1.58186,-0.93908 -1.95447,-1.84548 -0.68668,-1.67036 -0.30798,-3.40027 1.90622,-4.31051 1.98113,-0.81443 3.7001,0.0531 4.38677,1.7235 0.34068,0.82871 0.31808,1.73108 -0.002,2.49848 l 1.49827,0.62529 c 0.49335,-1.15643 0.53524,-2.49056 0.0189,-3.74656 -1.02735,-2.49907 -3.83125,-3.72289 -6.52455,-2.61569 -2.96522,1.21898 -3.87899,3.81974 -2.87825,6.25406 0.44181,1.07473 1.01485,1.73224 2.00453,2.18818 l -0.79677,0.41837 0.54296,1.32075 5.16647,-2.1239 -1.61289,-3.92341 z"
           inkscape:connector-curvature="0" />
        <path
           id="path6989"
           style="font-style:normal;font-variant:normal;font-weight:normal;font-stretch:normal;font-size:14px;line-height:75%;font-family:'Baron Neue';-inkscape-font-specification:'Baron Neue';text-align:center;writing-mode:lr-tb;text-anchor:middle"
           d="m 882.61097,440.64556 0.92846,1.54906 2.69332,-3.94837 c 0.72963,0.59098 1.84825,1.0957 3.20518,0.28239 2.44968,-1.46827 0.76548,-4.2782 0.76548,-4.2782 l -1.677,-2.79791 -8.40575,5.03819 0.8421,1.40496 3.5064,-2.10164 0.68375,1.14078 -2.54194,3.71074 z m 5.35258,-6.94597 0.8349,1.39295 c 0,0 0.8421,1.40496 -0.20262,2.03114 -1.05672,0.63337 -1.89882,-0.77159 -1.89882,-0.77159 l -0.8349,-1.39295 2.10144,-1.25955 z"
           inkscape:connector-curvature="0" />
        <path
           id="path6991"
           style="font-style:normal;font-variant:normal;font-weight:normal;font-stretch:normal;font-size:14px;line-height:75%;font-family:'Baron Neue';-inkscape-font-specification:'Baron Neue';text-align:center;writing-mode:lr-tb;text-anchor:middle"
           d="m 889.95151,450.77979 1.09882,1.37996 5.44368,-9.34554 -10.31859,3.22333 1.09881,1.37996 1.14874,-0.37782 2.14532,2.69421 -0.61678,1.0459 z m 3.31164,-5.39295 -1.92009,3.05007 -1.48254,-1.86185 3.40263,-1.18822 z"
           inkscape:connector-curvature="0" />
        <path
           id="path6993"
           style="font-style:normal;font-variant:normal;font-weight:normal;font-stretch:normal;font-size:14px;line-height:75%;font-family:'Baron Neue';-inkscape-font-specification:'Baron Neue';text-align:center;writing-mode:lr-tb;text-anchor:middle"
           d="m 901.28076,448.81887 -6.76333,7.09206 1.18539,1.13045 c 1.76288,1.68117 4.63655,3.43501 7.52546,0.40568 3.00485,-3.1509 0.96023,-5.85522 -0.76213,-7.49775 l -1.18539,-1.13044 z m -4.47648,7.06751 4.56041,-4.78207 c 0,0 3.3734,2.36582 0.66807,5.20265 -2.66669,2.7963 -5.22848,-0.42058 -5.22848,-0.42058 z"
           inkscape:connector-curvature="0" />
        <path
           id="path6995"
           style="font-style:normal;font-variant:normal;font-weight:normal;font-stretch:normal;font-size:14px;line-height:75%;font-family:'Baron Neue';-inkscape-font-specification:'Baron Neue';text-align:center;writing-mode:lr-tb;text-anchor:middle"
           d="m 907.33373,466.97474 c 1.70316,1.20443 3.69334,1.15433 4.89776,-0.54883 l 3.84769,-5.44098 -1.33738,-0.94575 -3.84769,5.44097 c -0.6305,0.89159 -1.78019,0.7473 -2.61462,0.15721 -0.84587,-0.59817 -1.29786,-1.53509 -0.71169,-2.50947 l 3.84769,-5.44098 -1.33738,-0.94575 -3.84769,5.44097 c -1.16401,1.64601 -0.5427,3.62861 1.10331,4.79261 z"
           inkscape:connector-curvature="0" />
        <path
           id="path6997"
           style="font-style:normal;font-variant:normal;font-weight:normal;font-stretch:normal;font-size:14px;line-height:75%;font-family:'Baron Neue';-inkscape-font-specification:'Baron Neue';text-align:center;writing-mode:lr-tb;text-anchor:middle"
           d="m 920.17103,474.45143 1.56409,0.81567 1.18521,-10.75026 -8.12431,7.13154 1.56409,0.81567 0.89676,-0.81128 3.0537,1.5925 -0.13954,1.20616 z m 0.8396,-6.27263 -0.51794,3.56671 -2.11028,-1.1005 2.62822,-2.46621 z"
           inkscape:connector-curvature="0" />
        <path
           id="path6999"
           style="font-style:normal;font-variant:normal;font-weight:normal;font-stretch:normal;font-size:14px;line-height:75%;font-family:'Baron Neue';-inkscape-font-specification:'Baron Neue';text-align:center;writing-mode:lr-tb;text-anchor:middle"
           d="m 933.84853,469.52091 -5.36541,-2.0396 -0.53229,1.40024 1.9237,0.73127 -2.94997,7.76021 1.51802,0.57706 2.94996,-7.76021 1.9237,0.73127 0.53229,-1.40024 z"
           inkscape:connector-curvature="0" />
        <path
           id="path7001"
           style="font-style:normal;font-variant:normal;font-weight:normal;font-stretch:normal;font-size:14px;line-height:75%;font-family:'Baron Neue';-inkscape-font-specification:'Baron Neue';text-align:center;writing-mode:lr-tb;text-anchor:middle"
           d="m 943.75932,473.89394 0.38777,-1.59144 -6.35215,-1.54776 -2.31999,9.52143 6.35216,1.54776 0.38777,-1.59144 -4.76072,-1.15999 0.58,-2.38036 3.95819,0.96445 0.38446,-1.57784 -3.9582,-0.96445 0.58,-2.38035 4.76071,1.15999 z"
           inkscape:connector-curvature="0" />
        <path
           id="path7003"
           style="font-style:normal;font-variant:normal;font-weight:normal;font-stretch:normal;font-size:14px;line-height:75%;font-family:'Baron Neue';-inkscape-font-specification:'Baron Neue';text-align:center;writing-mode:lr-tb;text-anchor:middle"
           d="m 961.08406,483.57691 1.80596,0.0119 -1.97332,-4.35312 c 0.88411,-0.31617 1.8967,-1.00951 1.90714,-2.59147 0.0188,-2.85594 -3.25709,-2.87755 -3.25709,-2.87755 l -3.26193,-0.0215 -0.0646,9.79978 1.63796,0.0108 0.027,-4.08791 1.32997,0.009 1.84899,4.10029 z m -3.15208,-8.18297 1.62396,0.0107 c 0,0 1.63797,0.0108 1.62993,1.22878 -0.008,1.23197 -1.64609,1.22117 -1.64609,1.22117 l -1.62396,-0.0107 0.0162,-2.44994 z"
           inkscape:connector-curvature="0" />
        <path
           id="path7005"
           style="font-style:normal;font-variant:normal;font-weight:normal;font-stretch:normal;font-size:14px;line-height:75%;font-family:'Baron Neue';-inkscape-font-specification:'Baron Neue';text-align:center;writing-mode:lr-tb;text-anchor:middle"
           d="m 974.09438,474.28419 -0.20734,-1.62482 -6.48541,0.8276 1.24052,9.72117 6.48541,-0.8276 -0.20735,-1.62482 -4.86058,0.62026 -0.31013,-2.4303 4.04123,-0.5157 -0.20558,-1.61094 -4.04122,0.51571 -0.31013,-2.4303 4.86058,-0.62026 z"
           inkscape:connector-curvature="0" />
        <path
           id="path7007"
           style="font-style:normal;font-variant:normal;font-weight:normal;font-stretch:normal;font-size:14px;line-height:75%;font-family:'Baron Neue';-inkscape-font-specification:'Baron Neue';text-align:center;writing-mode:lr-tb;text-anchor:middle"
           d="m 983.37151,480.68141 c 1.52965,-0.40358 2.69386,-1.75325 2.21527,-3.56717 -0.29644,-1.12355 -1.0915,-1.9418 -2.21465,-2.13775 -0.75898,-0.13277 -1.42229,0.0422 -1.48997,0.0601 -0.70391,0.18572 -1.49147,-0.0553 -1.69862,-0.84047 -0.23215,-0.87989 0.28979,-1.48093 1.03431,-1.67737 0.71745,-0.18929 1.41946,0.002 1.65369,0.77993 l 1.57026,-0.4143 c -0.45209,-1.60374 -2.00388,-2.38159 -3.64183,-1.94943 -1.52965,0.40359 -2.67525,1.87865 -2.20023,3.67904 0.29644,1.12355 1.07289,1.8164 2.1825,2.01592 0.77252,0.12919 1.42229,-0.0422 1.50351,-0.0637 0.64337,-0.14079 1.52004,0.16363 1.73076,0.9623 0.19644,0.74452 -0.33189,1.37621 -1.06288,1.56907 -0.70391,0.18573 -1.45725,-0.0354 -1.69147,-0.81339 l -1.5838,0.41787 c 0.49495,1.76617 2.04449,2.37087 3.69315,1.97932 z"
           inkscape:connector-curvature="0" />
        <path
           id="path7009"
           style="font-style:normal;font-variant:normal;font-weight:normal;font-stretch:normal;font-size:14px;line-height:75%;font-family:'Baron Neue';-inkscape-font-specification:'Baron Neue';text-align:center;writing-mode:lr-tb;text-anchor:middle"
           d="m 994.76735,467.87198 -0.62227,-1.5152 -6.04785,2.48375 3.72297,9.0653 6.04785,-2.48376 -0.62227,-1.51519 -4.53265,1.86148 -0.93074,-2.26632 3.76857,-1.54769 -0.61695,-1.50225 -3.76857,1.54769 -0.93074,-2.26633 4.53265,-1.86148 z"
           inkscape:connector-curvature="0" />
        <path
           id="path7011"
           style="font-style:normal;font-variant:normal;font-weight:normal;font-stretch:normal;font-size:14px;line-height:75%;font-family:'Baron Neue';-inkscape-font-specification:'Baron Neue';text-align:center;writing-mode:lr-tb;text-anchor:middle"
           d="m 1007.2574,470.3974 1.5289,-0.8799 -8.4255,-6.78113 1.6426,10.6848 1.5289,-0.87989 -0.2016,-1.19236 2.9849,-1.71789 0.9418,0.76637 z m -4.8365,-4.08151 2.7283,2.35498 -2.0628,1.18716 -0.6655,-3.54214 z"
           inkscape:connector-curvature="0" />
        <path
           id="path7013"
           style="font-style:normal;font-variant:normal;font-weight:normal;font-stretch:normal;font-size:14px;line-height:75%;font-family:'Baron Neue';-inkscape-font-specification:'Baron Neue';text-align:center;writing-mode:lr-tb;text-anchor:middle"
           d="m 1016.8339,463.69449 1.4324,-1.09993 -4.2311,-2.22292 c 0.5035,-0.79257 0.8766,-1.96168 -0.087,-3.21642 -1.7394,-2.26521 -4.3377,-0.26999 -4.3377,-0.26999 l -2.5872,1.98669 5.9686,7.77276 1.2991,-0.99761 -2.4897,-3.24235 1.0548,-0.81002 3.9777,2.09979 z m -7.5138,-4.52102 1.2881,-0.98908 c 0,0 1.2992,-0.99761 2.041,-0.0316 0.7503,0.97715 -0.5489,1.97476 -0.5489,1.97476 l -1.288,0.98908 -1.4922,-1.94319 z"
           inkscape:connector-curvature="0" />
        <path
           id="path7015"
           style="font-style:normal;font-variant:normal;font-weight:normal;font-stretch:normal;font-size:14px;line-height:75%;font-family:'Baron Neue';-inkscape-font-specification:'Baron Neue';text-align:center;writing-mode:lr-tb;text-anchor:middle"
           d="m 1024.7152,454.45547 c -1.262,1.29187 -3.201,1.41352 -4.7032,-0.0539 -1.412,-1.37943 -1.5726,-3.25858 -0.1638,-4.70067 0.6261,-0.64092 1.4637,-0.97742 2.2952,-0.98713 l -0.019,-1.62341 c -1.2572,0.005 -2.4989,0.49451 -3.4479,1.46591 -2.0055,2.05297 -1.9417,4.97277 0.1713,7.03702 2.2032,2.1523 5.151,1.93965 7.0391,0.007 0.949,-0.9714 1.4096,-2.22421 1.395,-3.47146 l -1.6334,0.009 c 0.01,0.8315 -0.3071,1.67671 -0.9333,2.31764 z"
           inkscape:connector-curvature="0" />
        <path
           id="path7017"
           style="font-style:normal;font-variant:normal;font-weight:normal;font-stretch:normal;font-size:14px;line-height:75%;font-family:'Baron Neue';-inkscape-font-specification:'Baron Neue';text-align:center;writing-mode:lr-tb;text-anchor:middle"
           d="m 1027.2381,438.26435 3.2924,2.37569 -2.3839,3.30372 -3.2924,-2.37568 -0.9584,1.32831 7.9471,5.7344 0.9584,-1.3283 -3.315,-2.39207 2.3838,-3.30373 3.3151,2.39207 0.9585,-1.3283 -7.9471,-5.73441 -0.9585,1.3283 z"
           inkscape:connector-curvature="0" />
        <path
           id="path7019"
           style="font-style:normal;font-variant:normal;font-weight:normal;font-stretch:normal;font-size:14px;line-height:75%;font-family:'Baron Neue';-inkscape-font-specification:'Baron Neue';text-align:center;writing-mode:lr-tb;text-anchor:middle"
           d="m 1035.1982,427.76854 -1.45,-0.76199 -3.0414,5.78748 8.675,4.55893 3.0415,-5.78748 -1.45,-0.762 -2.2795,4.33752 -2.1687,-1.13973 1.8952,-3.60634 -1.4376,-0.75548 -1.8952,3.60634 -2.1687,-1.13974 2.2794,-4.33751 z"
           inkscape:connector-curvature="0" />
        <path
           id="path7021"
           style="font-style:normal;font-variant:normal;font-weight:normal;font-stretch:normal;font-size:14px;line-height:75%;font-family:'Baron Neue';-inkscape-font-specification:'Baron Neue';text-align:center;writing-mode:lr-tb;text-anchor:middle"
           d="m 1046.3492,421.80208 0.6166,-1.69751 -4.7628,0.40019 c 0,-0.93894 -0.3154,-2.12534 -1.8023,-2.66539 -2.6845,-0.97495 -3.8028,2.10425 -3.8028,2.10425 l -1.1136,3.06605 9.2114,3.34543 0.5591,-1.53961 -3.8424,-1.39552 0.454,-1.2501 4.4828,-0.36779 z m -8.7661,0.22715 0.5544,-1.52644 c 0,0 0.5592,-1.53961 1.704,-1.12382 1.158,0.42057 0.5988,1.96017 0.5988,1.96017 l -0.5544,1.52645 -2.3028,-0.83636 z"
           inkscape:connector-curvature="0" />
      </g>
      <path
         d="m 1904.1567,946.27602 0,0.13358 0.595,0 0,10.09164 -0.595,0 0,0.13359 6.0234,0 0,-0.65578 -0.1214,0 0,0.52219 -3.6797,0 0,-4.89402 3.0482,0 0,0.4129 0.1214,0 0,-0.98366 -0.1214,0 0,0.42504 -3.0482,0 0,-5.0519 3.6797,0 0,0.4979 0.1214,0 0,-0.63148 z"
         style="font-style:normal;font-variant:normal;font-weight:normal;font-stretch:normal;font-size:14.26739979px;line-height:75%;font-family:Athene;-inkscape-font-specification:Athene;text-align:end;letter-spacing:0px;word-spacing:0px;writing-mode:lr-tb;text-anchor:end;fill:#142735;fill-opacity:1;stroke:none"
         id="path3020"
         inkscape:connector-curvature="0" />
      <path
         d="m 1917.4988,951.17004 -2.6716,-1.1294 c -0.016,-0.002 -0.1204,-0.054 -0.3131,-0.15786 -0.1927,-0.1039 -0.4023,-0.25097 -0.6288,-0.44124 -0.2264,-0.19025 -0.3983,-0.41558 -0.5154,-0.67601 -0.1177,-0.34003 -0.092,-0.73774 0.077,-1.19315 0.1692,-0.45539 0.4956,-0.78631 0.9791,-0.99277 0.4007,-0.12142 0.8015,-0.18215 1.2022,-0.18216 0.6718,0.006 1.2865,0.146 1.8444,0.42049 0.5579,0.27451 0.9996,0.64844 1.3252,1.1218 l 0,0.57076 0.1336,0 0,-1.45727 -0.1336,0 0,0.61934 c -0.3719,-0.45716 -0.8334,-0.80579 -1.3844,-1.0459 -0.551,-0.24009 -1.1461,-0.36102 -1.7852,-0.3628 -0.5841,0.003 -1.1591,0.12414 -1.7249,0.36432 -0.5657,0.24019 -1.0417,0.58292 -1.428,1.02819 -0.3863,0.44528 -0.6023,0.97692 -0.6481,1.59491 0.03,0.64768 0.277,1.16785 0.7423,1.5605 0.4652,0.39267 0.9707,0.70638 1.5165,0.94116 0.4096,0.19064 0.9113,0.40038 1.5049,0.62923 0.5936,0.22887 1.1286,0.49889 1.6048,0.81006 0.4763,0.31117 0.7431,0.68554 0.8006,1.12309 0.044,0.75419 -0.1596,1.30421 -0.6117,1.65006 -0.4521,0.34585 -1.0173,0.51638 -1.6956,0.51157 -0.6416,-0.0387 -1.2468,-0.15863 -1.8156,-0.35977 -0.5687,-0.20113 -1.0767,-0.50625 -1.524,-0.91535 0.2525,0.0395 0.4731,-0.0213 0.6618,-0.18216 0.1888,-0.16091 0.2879,-0.36735 0.2975,-0.61935 -0.01,-0.2411 -0.085,-0.43591 -0.2383,-0.58443 -0.1531,-0.1485 -0.3448,-0.2249 -0.5753,-0.22921 -0.23,0.004 -0.4197,0.0807 -0.5692,0.22922 -0.1496,0.14851 -0.227,0.34332 -0.2323,0.58442 0,0.20848 0.063,0.38659 0.1943,0.53434 0.4931,0.54952 1.0674,0.95938 1.7229,1.22958 0.6555,0.2702 1.3483,0.41897 2.0782,0.44629 0.5464,-0.002 1.0929,-0.10727 1.6394,-0.31574 0.6795,-0.26843 1.2119,-0.63933 1.5969,-1.11269 0.3851,-0.47337 0.5895,-1.00517 0.6133,-1.59542 0.016,-0.58645 -0.1951,-1.08638 -0.633,-1.49978 -0.4379,-0.41339 -0.907,-0.71902 -1.4072,-0.91687 z"
         style="font-style:normal;font-variant:normal;font-weight:normal;font-stretch:normal;font-size:14.26739979px;line-height:75%;font-family:Athene;-inkscape-font-specification:Athene;text-align:end;letter-spacing:0px;word-spacing:0px;writing-mode:lr-tb;text-anchor:end;fill:#142735;fill-opacity:1;stroke:none"
         id="path3022"
         inkscape:connector-curvature="0" />
      <path
         d="m 1921.2389,946.31245 0,0.74078 0.1093,0 0,-0.61935 3.4368,0 0,10.05523 -0.6072,0 0,0.13358 2.9145,0 0,-0.13358 -0.6193,0 0,-10.05523 3.4003,0 0,0.61935 0.1093,0 0,-0.74078 z"
         style="font-style:normal;font-variant:normal;font-weight:normal;font-stretch:normal;font-size:14.26739979px;line-height:75%;font-family:Athene;-inkscape-font-specification:Athene;text-align:end;letter-spacing:0px;word-spacing:0px;writing-mode:lr-tb;text-anchor:end;fill:#142735;fill-opacity:1;stroke:none"
         id="path3024"
         inkscape:connector-curvature="0" />
      <path
         d="m 1934.3466,946.3003 -2.8795,0 0,0.096 0.4363,0 0,7.22472 -0.4363,0 0,0.096 2.8882,0 c 1.0125,-0.0927 1.8472,-0.48099 2.5042,-1.16486 0.657,-0.68386 1.0031,-1.52587 1.0383,-2.52603 -0.068,-1.03869 -0.4273,-1.90179 -1.0787,-2.58929 -0.6513,-0.68749 -1.4755,-1.06632 -2.4725,-1.1365 z m -0.1222,7.3207 -1.1605,0 0,-7.22472 1.2041,0 c 0.6883,0.0718 1.2013,0.29075 1.5393,0.65668 0.3379,0.36594 0.5595,0.81427 0.6647,1.34502 0.1053,0.53075 0.153,1.07927 0.1432,1.64556 0.01,0.56398 -0.049,1.12004 -0.1719,1.66819 -0.1225,0.54814 -0.3569,1.00273 -0.7032,1.36376 -0.3464,0.36103 -0.8517,0.54286 -1.5157,0.54551 z"
         style="font-style:normal;font-variant:normal;font-weight:normal;font-stretch:normal;font-size:14.26739979px;line-height:75%;font-family:Athene;-inkscape-font-specification:Athene;text-align:end;letter-spacing:0px;word-spacing:0px;writing-mode:lr-tb;text-anchor:end;fill:#142735;fill-opacity:1;stroke:none"
         id="path3026"
         inkscape:connector-curvature="0" />
      <g
         id="text3881"
         style="font-style:normal;font-variant:normal;font-weight:normal;font-stretch:normal;font-size:13.3798914px;line-height:75%;font-family:Athene;-inkscape-font-specification:Athene;text-align:end;letter-spacing:0px;word-spacing:0px;writing-mode:lr-tb;text-anchor:end;fill:#142735;fill-opacity:1;stroke:none"
         transform="translate(1040,559.99982)">
        <path
           id="path7025"
           d="m 1029.5448,385.48466 -0.1472,0 -2.4084,2.7295 0.1472,0.1338 0.562,-0.64224 -0.013,8.99129 -0.669,0 0,0.1338 3.2513,0 0,-0.1338 -0.7894,0 0.067,-11.21235 z"
           inkscape:connector-curvature="0" />
        <path
           id="path7027"
           d="m 1034.3846,385.56494 c 1.2041,0 1.5386,1.96685 1.5386,3.35835 0,1.43165 -0.2809,3.21118 -1.7393,3.21118 -1.7394,-0.10704 -1.4986,-4.21467 -0.9634,-5.48576 0,0 0.3479,-1.07039 1.1641,-1.08377 z m -3.3316,11.27925 c 1.0302,-0.38802 1.9936,-0.90983 2.8766,-1.55207 1.512,-1.11053 3.1443,-2.80977 3.7196,-5.37871 0.3881,-2.07389 -0.495,-3.94707 -2.5689,-4.37523 -0.3077,-0.0535 -0.495,-0.0669 -0.6957,-0.0669 -0.2007,0 -0.4014,0.0134 -0.5754,0.0535 -1.6992,0.34788 -2.8098,1.73939 -2.8098,3.3316 0,2.08726 2.1141,3.79988 4.1077,3.33159 -0.7493,1.53869 -1.5387,3.10413 -4.1077,4.60268 l 0.054,0.0535 z"
           inkscape:connector-curvature="0" />
        <path
           id="path7029"
           d="m 1042.1014,396.67025 c -2.2344,0 -1.8464,-5.75335 0.1338,-5.48575 1.9401,0.53519 1.8331,5.48575 -0.1338,5.48575 z m 0,-5.60617 c -1.9802,0 -2.114,-5.63294 0.1472,-5.48576 1.1774,0.10704 1.3112,1.85981 1.3112,2.98372 0,0.92321 -0.2274,2.50204 -1.4584,2.50204 z m 0,-5.61956 c -1.6859,0.0669 -3.2914,1.21757 -3.2914,2.87668 0,1.32461 1.0034,2.47528 2.609,2.7964 -1.5387,0.32111 -2.609,1.48516 -2.609,2.80977 0,1.49855 1.5386,3.02386 3.2513,2.87668 1.6591,0 3.278,-1.04363 3.3449,-2.97034 -0.067,-1.29784 -1.1239,-2.43514 -2.5823,-2.71611 l -0.027,0 c 1.7527,-0.36126 2.5689,-1.57883 2.609,-3.01048 0,-1.76614 -2.0203,-2.6626 -3.3048,-2.6626 z"
           inkscape:connector-curvature="0" />
        <path
           id="path7031"
           d="m 1049.7321,396.67025 c -2.2344,0 -1.8464,-5.75335 0.1338,-5.48575 1.9401,0.53519 1.8331,5.48575 -0.1338,5.48575 z m 0,-5.60617 c -1.9802,0 -2.114,-5.63294 0.1472,-5.48576 1.1774,0.10704 1.3112,1.85981 1.3112,2.98372 0,0.92321 -0.2274,2.50204 -1.4584,2.50204 z m 0,-5.61956 c -1.6858,0.0669 -3.2914,1.21757 -3.2914,2.87668 0,1.32461 1.0035,2.47528 2.6091,2.7964 -1.5387,0.32111 -2.6091,1.48516 -2.6091,2.80977 0,1.49855 1.5387,3.02386 3.2513,2.87668 1.6591,0 3.2781,-1.04363 3.345,-2.97034 -0.067,-1.29784 -1.124,-2.43514 -2.5824,-2.71611 l -0.027,0 c 1.7527,-0.36126 2.5689,-1.57883 2.6091,-3.01048 0,-1.76614 -2.0204,-2.6626 -3.3049,-2.6626 z"
           inkscape:connector-curvature="0" />
      </g>
      <path
         id="rect3032"
         d="m 1931.4263,955.30448 6.5893,0 0,1.39029 -6.5893,0 z"
         style="fill:#142735;stroke:none"
         inkscape:connector-curvature="0" />
    </g>
  </g>
</svg>
