<?xml version="1.0" encoding="UTF-8" standalone="no"?>
<!-- Created with Inkscape (http://www.inkscape.org/) -->

<svg
   xmlns:dc="http://purl.org/dc/elements/1.1/"
   xmlns:cc="http://creativecommons.org/ns#"
   xmlns:rdf="http://www.w3.org/1999/02/22-rdf-syntax-ns#"
   xmlns:svg="http://www.w3.org/2000/svg"
   xmlns="http://www.w3.org/2000/svg"
   xmlns:sodipodi="http://sodipodi.sourceforge.net/DTD/sodipodi-0.dtd"
   xmlns:inkscape="http://www.inkscape.org/namespaces/inkscape"
   width="200"
   height="200"
   viewBox="0 0 200.00001 200"
   id="svg7093"
   version="1.1"
   inkscape:version="0.91 r13725"
   sodipodi:docname="title_bar.svg">
  <defs
     id="defs7095" />
  <sodipodi:namedview
     id="base"
     pagecolor="#ffffff"
     bordercolor="#666666"
     borderopacity="1.0"
     inkscape:pageopacity="0.0"
     inkscape:pageshadow="2"
     inkscape:zoom="2.01"
     inkscape:cx="100"
     inkscape:cy="100"
     inkscape:document-units="px"
     inkscape:current-layer="g4277"
     showgrid="false"
     units="px"
     inkscape:window-width="1920"
     inkscape:window-height="993"
     inkscape:window-x="1920"
     inkscape:window-y="24"
     inkscape:window-maximized="1" />
  <metadata
     id="metadata7098">
    <rdf:RDF>
      <cc:Work
         rdf:about="">
        <dc:format>image/svg+xml</dc:format>
        <dc:type
           rdf:resource="http://purl.org/dc/dcmitype/StillImage" />
        <dc:title />
      </cc:Work>
    </rdf:RDF>
  </metadata>
  <g
     inkscape:label="Layer 1"
     inkscape:groupmode="layer"
     id="layer1"
     transform="translate(0,-852.362)">
    <g
       id="g4277"
       transform="translate(-1904.1567,0)">
      <path
         inkscape:connector-curvature="0"
         id="path3806"
         d="m 2002.1074,874.44318 c -42.9969,-1.16314 -78.8583,32.81764 -80.0215,75.81445 -1.1631,42.99681 32.8099,78.86027 75.8067,80.02347 42.9969,1.1631 78.8583,-32.80988 80.0215,-75.80667 1.1631,-42.9968 -32.8098,-78.8681 -75.8067,-80.03125 z m -0.018,0.68359 c 42.6268,1.15314 76.2938,36.70133 75.1407,79.32813 -1.1532,42.62679 -36.6935,76.2957 -79.3204,75.1426 -42.6267,-1.1532 -76.2937,-36.69354 -75.1406,-79.32034 1.1531,-42.6268 36.6935,-76.30351 79.3203,-75.15039 z"
         style="color:#000000;font-style:normal;font-variant:normal;font-weight:normal;font-stretch:normal;font-size:400px;line-height:125%;font-family:'Weibei TC';-inkscape-font-specification:'Weibei TC';text-indent:0;text-align:start;text-decoration:none;text-decoration-line:none;text-decoration-style:solid;text-decoration-color:#000000;letter-spacing:0px;word-spacing:0px;text-transform:none;direction:ltr;block-progression:tb;writing-mode:lr-tb;baseline-shift:baseline;text-anchor:start;white-space:normal;clip-rule:nonzero;display:inline;overflow:visible;visibility:visible;opacity:1;isolation:auto;mix-blend-mode:normal;color-interpolation:sRGB;color-interpolation-filters:linearRGB;solid-color:#000000;solid-opacity:1;fill:none;fill-opacity:1;fill-rule:nonzero;stroke:none;stroke-width:0.6838097;stroke-linecap:butt;stroke-linejoin:miter;stroke-miterlimit:4;stroke-dasharray:none;stroke-dashoffset:0;stroke-opacity:1;color-rendering:auto;image-rendering:auto;shape-rendering:auto;text-rendering:auto;enable-background:accumulate" />
      <path
         inkscape:connector-curvature="0"
         id="path3841"
         d="m 2021.0383,991.6047 0,-2.40028 c 1.8002,-1.08015 3.4804,-3.12039 4.6805,-5.52069 0.9602,-2.28028 1.3203,-5.52069 1.3203,-9.6012 l 0,-24.003 -52.5605,0 0,24.003 c 0,4.08051 0.4801,7.32092 1.4402,9.6012 1.2001,2.4003 2.7603,4.44054 4.6805,5.52069 l 0,2.40028 -17.9172,0 0,-2.40028 c 1.8003,-1.08015 3.4805,-3.12039 4.6806,-5.52069 0.9601,-2.28028 1.4402,-5.52069 1.4402,-9.6012 l 0,-43.4454 c 0,-4.0805 -0.4801,-7.32091 -1.4402,-9.60119 -1.2001,-2.40031 -2.8803,-4.44057 -4.6806,-5.64072 l 0,-2.28027 17.9172,0 0,2.28027 c -1.9202,1.20015 -3.4804,3.24041 -4.6805,5.64072 -0.9601,2.28028 -1.4402,5.52069 -1.4402,9.60119 l 0,17.01404 52.5605,0 0,-17.01404 c 0,-4.0805 -0.3601,-7.32091 -1.3203,-9.60119 -1.2001,-2.40031 -2.8803,-4.44057 -4.6805,-5.64072 l 0,-2.28027 18.3761,0 0,2.28027 c -1.9202,1.20015 -3.4804,3.24041 -4.6805,5.64072 -0.9602,2.28028 -1.4403,5.52069 -1.4403,9.60119 l 0,43.4454 c 0,4.08051 0.4801,7.32092 1.4403,9.6012 1.2001,2.4003 2.7603,4.44054 4.6805,5.52069 l 0,2.40028 -18.3761,0"
         style="font-style:normal;font-variant:normal;font-weight:normal;font-stretch:normal;font-size:400px;line-height:125%;font-family:'Weibei TC';-inkscape-font-specification:'Weibei TC';text-align:start;letter-spacing:0px;word-spacing:0px;writing-mode:lr-tb;text-anchor:start;fill:#142735;fill-opacity:1;stroke:none" />
      <path
         inkscape:connector-curvature="0"
         id="path3839"
         d="m 1999.4026,927.98202 -7.4429,18.73619 3.2697,0 4.4887,-12.58401 4.0512,12.58401 5.3491,0 -6.4533,-18.73619 -3.2625,0 z"
         style="font-style:normal;font-variant:normal;font-weight:normal;font-stretch:normal;font-size:400px;line-height:125%;font-family:'Weibei TC';-inkscape-font-specification:'Weibei TC';text-align:start;letter-spacing:0px;word-spacing:0px;writing-mode:lr-tb;text-anchor:start;fill:#142735;fill-opacity:1;stroke:none" />
      <path
         inkscape:connector-curvature="0"
         id="path3837"
         d="m 1990.2101,951.13517 -1.8356,4.61771 c -0.9631,2.2473 -1.7633,3.90559 -2.3518,4.8687 -0.5886,0.90961 -1.3916,1.65466 -2.1942,2.0292 l 0,1.07558 8.2961,0 0,-1.07558 c -1.6052,-0.0535 -1.8765,-1.81602 -0.7529,-5.02641 l 2.3161,-6.4892 -3.4777,0 z"
         style="font-style:normal;font-variant:normal;font-weight:normal;font-stretch:normal;font-size:400px;line-height:125%;font-family:'Weibei TC';-inkscape-font-specification:'Weibei TC';text-align:start;letter-spacing:0px;word-spacing:0px;writing-mode:lr-tb;text-anchor:start;fill:#142735;fill-opacity:1;stroke:none" />
      <path
         inkscape:connector-curvature="0"
         id="path3835"
         d="m 2005.2034,951.13517 2.3806,7.0198 c 0.9631,2.72883 0.5936,4.33531 -1.1186,4.49581 l 0,1.07558 10.3254,0 0,-1.07558 c -1.1772,-0.58857 -1.9851,-1.33801 -2.4667,-2.19414 -0.642,-1.01663 -1.2823,-2.29823 -1.7639,-3.74291 l -1.9216,-5.57856 -5.4352,0 z"
         style="font-style:normal;font-variant:normal;font-weight:normal;font-stretch:normal;font-size:400px;line-height:125%;font-family:'Weibei TC';-inkscape-font-specification:'Weibei TC';text-align:start;letter-spacing:0px;word-spacing:0px;writing-mode:lr-tb;text-anchor:start;fill:#142735;fill-opacity:1;stroke:none" />
      <g
         id="text3808"
         style="font-style:normal;font-variant:normal;font-weight:normal;font-stretch:normal;font-size:28px;line-height:75%;font-family:'Baron Neue';-inkscape-font-specification:'Baron Neue';text-align:center;letter-spacing:4px;word-spacing:0px;writing-mode:lr-tb;text-anchor:middle;fill:#142735;fill-opacity:1;stroke:none"
         transform="translate(1040,559.99982)">
        <path
           id="path6968"
           d="m 888.74216,361.30434 1.22941,-3.30686 -21.62837,0.32337 16.17407,14.34755 1.22942,-3.30686 -1.83313,-1.57769 2.40029,-6.45625 2.42831,-0.0233 z m -12.65671,-0.10511 7.20688,0.14019 -1.65873,4.46164 -5.54815,-4.60183 z"
           inkscape:connector-curvature="0" />
        <path
           id="path6970"
           d="m 892.31851,348.06687 -13.47626,-9.21213 -1.84875,2.70449 16.18076,11.06088 5.94128,-8.69138 -2.7045,-1.84874 -4.09253,5.98688 z"
           inkscape:connector-curvature="0" />
        <path
           id="path6972"
           d="m 903.07057,317.34123 -2.171,-2.45335 -9.79245,8.66543 12.98887,14.67819 9.79245,-8.66543 -2.171,-2.45336 -7.33909,6.49444 -3.24722,-3.66955 6.10194,-5.39966 -2.15245,-2.43238 -6.10193,5.39966 -3.24722,-3.66955 7.3391,-6.49444 z"
           inkscape:connector-curvature="0" />
        <path
           id="path6974"
           d="m 918.51891,326.17313 3.61224,-1.72734 1.50179,-8.47731 7.51619,4.16499 3.61224,-1.72735 -10.54288,-5.82132 2.08735,-11.86099 -3.61224,1.72735 -1.47653,8.46523 -7.54145,-4.15291 -3.61224,1.72734 10.54287,5.82132 -2.08734,11.86099 z"
           inkscape:connector-curvature="0" />
        <path
           id="path6976"
           d="m 966.82394,295.31077 -0.22808,8.11679 -8.14479,-0.22887 0.22809,-8.1168 -3.27471,-0.092 -0.55055,19.59227 3.2747,0.092 0.22966,-8.17277 8.14479,0.22887 -0.22966,8.17277 3.27471,0.092 0.55055,-19.59226 -3.27471,-0.092 z"
           inkscape:connector-curvature="0" />
        <path
           id="path6978"
           d="m 987.34546,319.59224 3.36621,1.05614 -1.44536,-21.58245 -13.48884,16.89687 3.3662,1.05614 1.48043,-1.91253 6.57212,2.062 0.14924,2.42383 z m -0.55187,-12.64511 0.23401,7.20445 -4.54171,-1.42495 4.3077,-5.7795 z"
           inkscape:connector-curvature="0" />
        <path
           id="path6980"
           d="m 1011.6525,320.16993 -1.7474,2.5703 2.7092,1.8418 -1.5899,2.33874 c -1.7671,0.45773 -3.675,0.1764 -5.2959,-0.92553 -2.9871,-2.03071 -4.2619,-5.33509 -1.57,-9.29473 2.4085,-3.54284 6.2335,-3.9897 9.2206,-1.95899 1.482,1.00748 2.4389,2.5383 2.7503,4.17201 l 3.1896,-0.60794 c -0.4514,-2.47371 -1.852,-4.74634 -4.0981,-6.2733 -4.4691,-3.0382 -10.4973,-1.99 -13.7716,2.82641 -3.60493,5.30268 -2.26322,10.65016 2.0901,13.60964 1.9219,1.30658 3.6029,1.77224 5.7571,1.44227 l -0.9,1.62274 2.3619,1.60567 6.3125,-9.28548 -5.4184,-3.68361 z"
           inkscape:connector-curvature="0" />
        <path
           id="path6982"
           d="m 1037.5794,338.96824 2.551,-2.05537 -8.2039,-10.1822 -15.2624,12.29713 8.2039,10.18219 2.551,-2.05537 -6.1486,-7.6312 3.8156,-3.07428 5.1121,6.34479 2.5292,-2.03781 -5.1121,-6.34479 3.8156,-3.07428 6.1486,7.63119 z"
           inkscape:connector-curvature="0" />
        <path
           id="path6984"
           d="m 1053.1184,363.27456 -1.2258,-3.00778 -12.9128,5.2627 9.2247,-14.312 -1.247,-3.05965 -18.1505,7.39738 1.2364,3.03372 12.9128,-5.26271 -9.2352,14.28608 1.247,3.05964 18.1504,-7.39738 z"
           inkscape:connector-curvature="0" />
      </g>
      <path
         inkscape:connector-curvature="0"
         id="path3818"
         d="m 1920.531,998.12518 c 25.2974,43.76472 81.3815,58.76222 125.1462,33.46482 43.7646,-25.2975 58.771,-81.38609 33.4735,-125.15078 -25.2975,-43.76476 -81.3902,-58.75785 -125.1549,-33.46036 -43.7647,25.29735 -58.7623,81.38149 -33.4648,125.14632 z m 0.6961,-0.40047 c -25.0797,-43.38817 -10.2174,-98.97107 33.1708,-124.05062 43.3881,-25.07973 98.9776,-10.22085 124.0575,33.1672 25.0795,43.38818 10.2076,98.97361 -33.1805,124.05331 -43.3881,25.0797 -98.9681,10.2182 -124.0478,-33.16989 z"
         style="color:#000000;font-style:normal;font-variant:normal;font-weight:normal;font-stretch:normal;font-size:400px;line-height:125%;font-family:'Weibei TC';-inkscape-font-specification:'Weibei TC';text-indent:0;text-align:start;text-decoration:none;text-decoration-line:none;text-decoration-style:solid;text-decoration-color:#000000;letter-spacing:0px;word-spacing:0px;text-transform:none;direction:ltr;block-progression:tb;writing-mode:lr-tb;baseline-shift:baseline;text-anchor:start;white-space:normal;clip-rule:nonzero;display:inline;overflow:visible;visibility:visible;opacity:1;isolation:auto;mix-blend-mode:normal;color-interpolation:sRGB;color-interpolation-filters:linearRGB;solid-color:#000000;solid-opacity:1;fill:none;fill-opacity:1;fill-rule:nonzero;stroke:none;stroke-width:0.80364048;stroke-linecap:butt;stroke-linejoin:miter;stroke-miterlimit:4;stroke-dasharray:none;stroke-dashoffset:0;stroke-opacity:1;color-rendering:auto;image-rendering:auto;shape-rendering:auto;text-rendering:auto;enable-background:accumulate" />
      <g
         id="text4180"
         style="font-style:normal;font-variant:normal;font-weight:normal;font-stretch:normal;font-size:17.5px;line-height:125%;font-family:'Baron Neue';-inkscape-font-specification:'Baron Neue';text-align:start;letter-spacing:5.00000048px;word-spacing:0px;writing-mode:lr-tb;text-anchor:start;fill:#142735;fill-opacity:1;stroke:none;stroke-width:1px;stroke-linecap:butt;stroke-linejoin:miter;stroke-opacity:1"
         transform="matrix(-0.70263216,-0.71155327,0.71155327,-0.70263216,2727.4105,3044.5464)">
        <path
           inkscape:connector-curvature="0"
           id="path4222"
           style="letter-spacing:5.00000048px"
           d="m 2019.4157,875.32532 2.3429,-12.02387 -2.0097,-0.3916 c -2.9888,-0.58237 -7.1961,-0.49288 -8.1968,4.64303 -1.0409,5.34203 2.9339,6.81186 5.8539,7.38084 l 2.0097,0.3916 z m -0.048,-10.45729 -1.5798,8.10752 c 0,0 -5.1458,-0.21818 -4.2086,-5.02773 0.9237,-4.74084 5.7884,-3.07979 5.7884,-3.07979 z" />
        <path
           inkscape:connector-curvature="0"
           id="path4224"
           style="letter-spacing:5.00000048px"
           d="m 1999.1672,860.72901 -2.2045,-0.0463 4.6345,12.70004 5.1458,-12.49478 -2.2045,-0.0463 -0.5546,1.40618 -4.3041,-0.0903 -0.5126,-1.42857 z m 2.5384,7.49241 -1.398,-4.28278 2.9744,0.0624 -1.5764,4.22036 z" />
        <path
           inkscape:connector-curvature="0"
           id="path4226"
           style="letter-spacing:5.00000048px"
           d="m 1986.1072,874.1593 7.1136,-0.93627 -0.2443,-1.85648 -2.5505,0.33568 -1.3542,-10.28877 -2.0126,0.26489 1.3542,10.28877 -2.5505,0.33569 0.2443,1.85649 z" />
        <path
           inkscape:connector-curvature="0"
           id="path4228"
           style="letter-spacing:5.00000048px"
           d="m 1972.0106,865.11898 -2.1179,0.61362 8.2129,10.73867 1.1832,-13.46102 -2.1179,0.61363 -0.1098,1.5076 -4.1349,1.19803 -0.9156,-1.21053 z m 4.6584,6.39372 -2.6122,-3.67057 2.8575,-0.8279 -0.2453,4.49847 z" />
        <path
           inkscape:connector-curvature="0"
           id="path4230"
           style="letter-spacing:5.00000048px"
           d="m 1951.1161,874.71648 c -1.6744,1.05207 -2.5506,3.11135 -1.303,5.09694 0.7728,1.22988 2.0172,1.89471 3.4303,1.70955 0.955,-0.1247 1.6811,-0.58091 1.7552,-0.62746 0.7705,-0.48414 1.8,-0.4903 2.34,0.36913 0.6052,0.96316 0.2067,1.87491 -0.6083,2.38698 -0.7854,0.49345 -1.6942,0.52715 -2.2639,-0.31366 l -1.7188,1.08 c 1.1375,1.7447 3.279,2.0939 5.072,0.96735 1.6744,-1.05207 2.491,-3.23921 1.2527,-5.20998 -0.7728,-1.22988 -1.9575,-1.76686 -3.3558,-1.59101 -0.9698,0.13402 -1.6811,0.58091 -1.77,0.63678 -0.7151,0.40795 -1.8652,0.38657 -2.4145,-0.48768 -0.5121,-0.81498 -0.1267,-1.7805 0.6735,-2.28326 0.7705,-0.48413 1.7517,-0.50131 2.3214,0.3395 l 1.7337,-1.08931 c -1.2493,-1.92251 -3.3236,-2.06597 -5.1445,-0.98387 z" />
        <path
           inkscape:connector-curvature="0"
           id="path4232"
           style="letter-spacing:5.00000048px"
           d="m 1939.1048,886.45724 c 1.6781,-1.51006 4.1067,-1.50596 5.8625,0.44532 1.6506,1.83421 1.6998,4.1912 -0.1734,5.87684 -0.8326,0.74918 -1.9044,1.1016 -2.9424,1.04689 l -0.1069,2.02658 c 1.5688,0.0951 3.157,-0.41599 4.4189,-1.55146 2.6667,-2.3997 2.8218,-6.04704 0.3519,-8.79184 -2.5753,-2.86189 -6.2695,-2.83356 -8.7801,-0.57433 -1.2619,1.13546 -1.9371,2.66121 -2.0192,4.21822 l 2.0383,0.11983 c 0.055,-1.03801 0.5179,-2.06688 1.3504,-2.81605 z" />
        <path
           inkscape:connector-curvature="0"
           id="path4234"
           style="letter-spacing:5.00000048px"
           d="m 1935.4425,902.97931 1.4516,1.18278 3.0178,-3.70374 -1.4517,-1.18278 -0.8622,1.05821 -6.5935,-5.37225 0.9065,-1.11248 -1.4517,-1.18278 -3.1062,3.81228 1.4517,1.18278 0.9064,-1.11248 6.5935,5.37225 -0.8622,1.05821 z" />
        <path
           inkscape:connector-curvature="0"
           id="path4236"
           style="letter-spacing:5.00000048px"
           d="m 1927.8187,914.41295 1.7577,1.05008 4.1914,-7.01585 -10.5163,-6.28256 -4.1913,7.01586 1.7577,1.05008 3.1413,-5.25814 2.629,1.57064 -2.6117,4.37177 1.7427,1.04111 2.6117,-4.37177 2.6291,1.57064 -3.1413,5.25814 z" />
        <path
           inkscape:connector-curvature="0"
           id="path4238"
           style="letter-spacing:5.00000048px"
           d="m 1923.8463,929.4177 0.7076,-1.90269 -8.1685,-3.03777 10.2973,-2.68668 0.7198,-1.93549 -11.4817,-4.26997 -0.7137,1.91909 8.1684,3.03777 -10.2912,2.67028 -0.7198,1.93549 11.4818,4.26997 z" />
        <path
           inkscape:connector-curvature="0"
           id="path4240"
           style="letter-spacing:5.00000048px"
           d="m 1921.3456,941.05239 1.3515,-7.04656 -1.839,-0.35272 -0.4846,2.52645 -10.1917,-1.95476 -0.3824,1.99366 10.1918,1.95476 -0.4846,2.52645 1.839,0.35272 z" />
        <path
           inkscape:connector-curvature="0"
           id="path4242"
           style="letter-spacing:5.00000048px"
           d="m 1918.7327,950.0411 1.8693,0.10992 0.2804,-4.76927 -1.8693,-0.10991 -0.08,1.36264 -8.4903,-0.49924 0.084,-1.43252 -1.8693,-0.10992 -0.2886,4.90902 1.8692,0.10992 0.084,-1.43253 8.4903,0.49924 -0.08,1.36265 z" />
        <path
           inkscape:connector-curvature="0"
           id="path4244"
           style="letter-spacing:5.00000048px"
           d="m 1908.4896,959.90941 c 0.1624,1.97082 1.5864,3.69724 3.9235,3.50473 1.4476,-0.11924 2.611,-0.91744 3.0977,-2.25692 0.3293,-0.90508 0.2589,-1.75969 0.2517,-1.84689 -0.075,-0.90693 0.3941,-1.82352 1.4057,-1.90684 1.1337,-0.0934 1.7593,0.68037 1.8383,1.63962 0.076,0.92437 -0.3126,1.74656 -1.3213,1.86477 l 0.1666,2.02315 c 2.0726,-0.20584 3.3692,-1.94566 3.1953,-4.05601 -0.1623,-1.97082 -1.7273,-3.70319 -4.047,-3.51212 -1.4476,0.11924 -2.47,0.92339 -2.9581,2.24543 -0.3279,0.92253 -0.2589,1.75969 -0.2503,1.86434 0.033,0.82259 -0.5162,1.83356 -1.5452,1.91833 -0.9593,0.079 -1.6387,-0.70787 -1.7163,-1.64968 -0.075,-0.90693 0.3622,-1.78576 1.3709,-1.90396 l -0.1681,-2.04059 c -2.2819,0.22308 -3.3649,1.99797 -3.2434,4.11264 z" />
        <path
           inkscape:connector-curvature="0"
           id="path4246"
           style="letter-spacing:5.00000048px"
           d="m 1923.552,974.04838 -1.6506,-6.98255 -1.8223,0.43077 0.5918,2.5035 -10.0992,2.38735 0.467,1.97555 10.0992,-2.38735 0.5918,2.5035 1.8223,-0.43077 z" />
      </g>
      <path
         d="m 1904.1567,946.27602 0,0.13358 0.595,0 0,10.09164 -0.595,0 0,0.13359 6.0234,0 0,-0.65578 -0.1214,0 0,0.52219 -3.6797,0 0,-4.89402 3.0482,0 0,0.4129 0.1214,0 0,-0.98366 -0.1214,0 0,0.42504 -3.0482,0 0,-5.0519 3.6797,0 0,0.4979 0.1214,0 0,-0.63148 z"
         style="font-style:normal;font-variant:normal;font-weight:normal;font-stretch:normal;font-size:14.26739979px;line-height:75%;font-family:Athene;-inkscape-font-specification:Athene;text-align:end;letter-spacing:0px;word-spacing:0px;writing-mode:lr-tb;text-anchor:end;fill:#142735;fill-opacity:1;stroke:none"
         id="path3020"
         inkscape:connector-curvature="0" />
      <path
         d="m 1917.4988,951.17004 -2.6716,-1.1294 c -0.016,-0.002 -0.1204,-0.054 -0.3131,-0.15786 -0.1927,-0.1039 -0.4023,-0.25097 -0.6288,-0.44124 -0.2264,-0.19025 -0.3983,-0.41558 -0.5154,-0.67601 -0.1177,-0.34003 -0.092,-0.73774 0.077,-1.19315 0.1692,-0.45539 0.4956,-0.78631 0.9791,-0.99277 0.4007,-0.12142 0.8015,-0.18215 1.2022,-0.18216 0.6718,0.006 1.2865,0.146 1.8444,0.42049 0.5579,0.27451 0.9996,0.64844 1.3252,1.1218 l 0,0.57076 0.1336,0 0,-1.45727 -0.1336,0 0,0.61934 c -0.3719,-0.45716 -0.8334,-0.80579 -1.3844,-1.0459 -0.551,-0.24009 -1.1461,-0.36102 -1.7852,-0.3628 -0.5841,0.003 -1.1591,0.12414 -1.7249,0.36432 -0.5657,0.24019 -1.0417,0.58292 -1.428,1.02819 -0.3863,0.44528 -0.6023,0.97692 -0.6481,1.59491 0.03,0.64768 0.277,1.16785 0.7423,1.5605 0.4652,0.39267 0.9707,0.70638 1.5165,0.94116 0.4096,0.19064 0.9113,0.40038 1.5049,0.62923 0.5936,0.22887 1.1286,0.49889 1.6048,0.81006 0.4763,0.31117 0.7431,0.68554 0.8006,1.12309 0.044,0.75419 -0.1596,1.30421 -0.6117,1.65006 -0.4521,0.34585 -1.0173,0.51638 -1.6956,0.51157 -0.6416,-0.0387 -1.2468,-0.15863 -1.8156,-0.35977 -0.5687,-0.20113 -1.0767,-0.50625 -1.524,-0.91535 0.2525,0.0395 0.4731,-0.0213 0.6618,-0.18216 0.1888,-0.16091 0.2879,-0.36735 0.2975,-0.61935 -0.01,-0.2411 -0.085,-0.43591 -0.2383,-0.58443 -0.1531,-0.1485 -0.3448,-0.2249 -0.5753,-0.22921 -0.23,0.004 -0.4197,0.0807 -0.5692,0.22922 -0.1496,0.14851 -0.227,0.34332 -0.2323,0.58442 0,0.20848 0.063,0.38659 0.1943,0.53434 0.4931,0.54952 1.0674,0.95938 1.7229,1.22958 0.6555,0.2702 1.3483,0.41897 2.0782,0.44629 0.5464,-0.002 1.0929,-0.10727 1.6394,-0.31574 0.6795,-0.26843 1.2119,-0.63933 1.5969,-1.11269 0.3851,-0.47337 0.5895,-1.00517 0.6133,-1.59542 0.016,-0.58645 -0.1951,-1.08638 -0.633,-1.49978 -0.4379,-0.41339 -0.907,-0.71902 -1.4072,-0.91687 z"
         style="font-style:normal;font-variant:normal;font-weight:normal;font-stretch:normal;font-size:14.26739979px;line-height:75%;font-family:Athene;-inkscape-font-specification:Athene;text-align:end;letter-spacing:0px;word-spacing:0px;writing-mode:lr-tb;text-anchor:end;fill:#142735;fill-opacity:1;stroke:none"
         id="path3022"
         inkscape:connector-curvature="0" />
      <path
         d="m 1921.2389,946.31245 0,0.74078 0.1093,0 0,-0.61935 3.4368,0 0,10.05523 -0.6072,0 0,0.13358 2.9145,0 0,-0.13358 -0.6193,0 0,-10.05523 3.4003,0 0,0.61935 0.1093,0 0,-0.74078 z"
         style="font-style:normal;font-variant:normal;font-weight:normal;font-stretch:normal;font-size:14.26739979px;line-height:75%;font-family:Athene;-inkscape-font-specification:Athene;text-align:end;letter-spacing:0px;word-spacing:0px;writing-mode:lr-tb;text-anchor:end;fill:#142735;fill-opacity:1;stroke:none"
         id="path3024"
         inkscape:connector-curvature="0" />
      <path
         d="m 1934.3466,946.3003 -2.8795,0 0,0.096 0.4363,0 0,7.22472 -0.4363,0 0,0.096 2.8882,0 c 1.0125,-0.0927 1.8472,-0.48099 2.5042,-1.16486 0.657,-0.68386 1.0031,-1.52587 1.0383,-2.52603 -0.068,-1.03869 -0.4273,-1.90179 -1.0787,-2.58929 -0.6513,-0.68749 -1.4755,-1.06632 -2.4725,-1.1365 z m -0.1222,7.3207 -1.1605,0 0,-7.22472 1.2041,0 c 0.6883,0.0718 1.2013,0.29075 1.5393,0.65668 0.3379,0.36594 0.5595,0.81427 0.6647,1.34502 0.1053,0.53075 0.153,1.07927 0.1432,1.64556 0.01,0.56398 -0.049,1.12004 -0.1719,1.66819 -0.1225,0.54814 -0.3569,1.00273 -0.7032,1.36376 -0.3464,0.36103 -0.8517,0.54286 -1.5157,0.54551 z"
         style="font-style:normal;font-variant:normal;font-weight:normal;font-stretch:normal;font-size:14.26739979px;line-height:75%;font-family:Athene;-inkscape-font-specification:Athene;text-align:end;letter-spacing:0px;word-spacing:0px;writing-mode:lr-tb;text-anchor:end;fill:#142735;fill-opacity:1;stroke:none"
         id="path3026"
         inkscape:connector-curvature="0" />
      <g
         id="text3881"
         style="font-style:normal;font-variant:normal;font-weight:normal;font-stretch:normal;font-size:13.3798914px;line-height:75%;font-family:Athene;-inkscape-font-specification:Athene;text-align:end;letter-spacing:0px;word-spacing:0px;writing-mode:lr-tb;text-anchor:end;fill:#142735;fill-opacity:1;stroke:none"
         transform="translate(1040,559.99982)">
        <path
           id="path7025"
           d="m 1029.5448,385.48466 -0.1472,0 -2.4084,2.7295 0.1472,0.1338 0.562,-0.64224 -0.013,8.99129 -0.669,0 0,0.1338 3.2513,0 0,-0.1338 -0.7894,0 0.067,-11.21235 z"
           inkscape:connector-curvature="0" />
        <path
           id="path7027"
           d="m 1034.3846,385.56494 c 1.2041,0 1.5386,1.96685 1.5386,3.35835 0,1.43165 -0.2809,3.21118 -1.7393,3.21118 -1.7394,-0.10704 -1.4986,-4.21467 -0.9634,-5.48576 0,0 0.3479,-1.07039 1.1641,-1.08377 z m -3.3316,11.27925 c 1.0302,-0.38802 1.9936,-0.90983 2.8766,-1.55207 1.512,-1.11053 3.1443,-2.80977 3.7196,-5.37871 0.3881,-2.07389 -0.495,-3.94707 -2.5689,-4.37523 -0.3077,-0.0535 -0.495,-0.0669 -0.6957,-0.0669 -0.2007,0 -0.4014,0.0134 -0.5754,0.0535 -1.6992,0.34788 -2.8098,1.73939 -2.8098,3.3316 0,2.08726 2.1141,3.79988 4.1077,3.33159 -0.7493,1.53869 -1.5387,3.10413 -4.1077,4.60268 l 0.054,0.0535 z"
           inkscape:connector-curvature="0" />
        <path
           id="path7029"
           d="m 1042.1014,396.67025 c -2.2344,0 -1.8464,-5.75335 0.1338,-5.48575 1.9401,0.53519 1.8331,5.48575 -0.1338,5.48575 z m 0,-5.60617 c -1.9802,0 -2.114,-5.63294 0.1472,-5.48576 1.1774,0.10704 1.3112,1.85981 1.3112,2.98372 0,0.92321 -0.2274,2.50204 -1.4584,2.50204 z m 0,-5.61956 c -1.6859,0.0669 -3.2914,1.21757 -3.2914,2.87668 0,1.32461 1.0034,2.47528 2.609,2.7964 -1.5387,0.32111 -2.609,1.48516 -2.609,2.80977 0,1.49855 1.5386,3.02386 3.2513,2.87668 1.6591,0 3.278,-1.04363 3.3449,-2.97034 -0.067,-1.29784 -1.1239,-2.43514 -2.5823,-2.71611 l -0.027,0 c 1.7527,-0.36126 2.5689,-1.57883 2.609,-3.01048 0,-1.76614 -2.0203,-2.6626 -3.3048,-2.6626 z"
           inkscape:connector-curvature="0" />
        <path
           id="path7031"
           d="m 1049.7321,396.67025 c -2.2344,0 -1.8464,-5.75335 0.1338,-5.48575 1.9401,0.53519 1.8331,5.48575 -0.1338,5.48575 z m 0,-5.60617 c -1.9802,0 -2.114,-5.63294 0.1472,-5.48576 1.1774,0.10704 1.3112,1.85981 1.3112,2.98372 0,0.92321 -0.2274,2.50204 -1.4584,2.50204 z m 0,-5.61956 c -1.6858,0.0669 -3.2914,1.21757 -3.2914,2.87668 0,1.32461 1.0035,2.47528 2.6091,2.7964 -1.5387,0.32111 -2.6091,1.48516 -2.6091,2.80977 0,1.49855 1.5387,3.02386 3.2513,2.87668 1.6591,0 3.2781,-1.04363 3.345,-2.97034 -0.067,-1.29784 -1.124,-2.43514 -2.5824,-2.71611 l -0.027,0 c 1.7527,-0.36126 2.5689,-1.57883 2.6091,-3.01048 0,-1.76614 -2.0204,-2.6626 -3.3049,-2.6626 z"
           inkscape:connector-curvature="0" />
      </g>
      <path
         id="rect3032"
         d="m 1931.4263,955.30448 6.5893,0 0,1.39029 -6.5893,0 z"
         style="fill:#142735;stroke:none"
         inkscape:connector-curvature="0" />
    </g>
  </g>
</svg>
